<?xml version="1.0" encoding="UTF-8"?>
<svg xmlns="http://www.w3.org/2000/svg" xmlns:xlink="http://www.w3.org/1999/xlink" version="1.2" >
<font id="Bourton Base">
<font-face  font-family="Bourton" units-per-em="1000" ascent="730" descent="-270" font-style="normal" font-weight="400" font-stretch="normal" cap-height="900" x-height="450" underline-position="-75" underline-thickness="50" />
<missing-glyph  horiz-adv-x="534" d="" />
<glyph glyph-name="NULL" d="" />
<glyph glyph-name="CR" unicode="&#xd;" horiz-adv-x="374" d="" />
<glyph glyph-name="space" unicode="&#x20;" horiz-adv-x="374" d="" />
<glyph glyph-name="exclam" unicode="&#x21;" horiz-adv-x="334" d="M221 197 C226 197 230 201 230 206 L256 652 C256 656 254 661 247 661 L84 661 C80 661 75 660 75 652 L102 206 C102 201 106 197 111 197 L221 197 Z M170 167 C122 167 84 129 84 80 C84 31 122 -9 170 -9 C220 -9 259 31 259 80 C259 129 220 167 170 167 L170 167 Z " />
<glyph glyph-name="quotedbl" unicode="&#x22;" horiz-adv-x="311" d="M99 686 C91 686 87 682 89 676 L101 587 C102 582 105 581 110 581 L146 581 C151 581 154 585 154 587 L166 676 C167 681 164 686 157 686 L99 686 Z M249 676 C250 681 246 686 240 686 L181 686 C176 686 171 682 172 676 L184 587 C185 582 189 581 194 581 L227 581 C234 581 236 582 237 587 L249 676 Z " />
<glyph glyph-name="numbersign" unicode="&#x23;" horiz-adv-x="706" d="M634 535 L576 535 L595 650 C595 656 590 660 586 660 L471 660 C467 660 462 656 462 652 L444 535 L342 535 L364 650 C365 656 359 660 354 660 L240 660 C236 660 231 657 230 652 L211 535 L161 535 C155 535 152 532 152 529 L134 414 C132 407 139 402 142 402 L190 402 L167 261 L117 261 C112 261 109 259 107 254 L89 140 C89 132 94 130 99 130 L145 130 L126 11 C125 5 129 0 134 0 L247 0 C254 0 256 1 257 7 L277 130 L376 130 L357 11 C356 5 361 0 366 0 L481 0 C485 0 487 4 489 7 L509 130 L571 130 C576 130 579 132 580 136 L599 250 C600 256 595 261 589 261 L531 261 L555 402 L615 402 C620 402 624 406 625 411 L642 525 C642 531 639 535 634 535 L634 535 Z M397 261 L299 261 L321 402 L421 402 L397 261 L397 261 Z " />
<glyph glyph-name="dollar" unicode="&#x24;" horiz-adv-x="615" d="M366 405 C324 424 237 447 237 492 C237 529 289 537 311 537 C354 537 385 514 407 484 L420 465 C422 461 429 460 432 462 L525 524 C530 526 531 530 529 534 C492 605 442 651 372 664 L372 720 C372 724 371 727 364 727 L277 727 C271 727 269 724 269 720 L269 664 C172 646 89 585 89 481 C89 431 110 389 154 351 C195 317 244 294 291 276 C332 261 399 235 399 189 C399 141 355 124 321 124 C280 124 241 154 225 186 L214 209 C211 214 206 215 201 211 L102 134 C99 131 97 129 99 125 C124 45 200 5 269 -6 L269 -60 C269 -65 274 -70 279 -70 L364 -70 C367 -70 372 -66 372 -60 L372 -6 C434 1 480 27 511 72 C546 121 551 179 551 209 C551 312 447 369 366 405 L366 405 Z " />
<glyph glyph-name="percent" unicode="&#x25;" horiz-adv-x="979" d="M461 497 C461 602 371 667 275 667 C170 667 89 591 89 496 C89 394 172 311 275 311 C325 311 372 330 407 366 C441 401 461 447 461 497 L461 497 Z M727 347 C622 347 542 271 542 177 C542 74 626 -10 727 -10 C831 -10 914 79 914 177 C914 281 822 347 727 347 L727 347 Z M560 664 C556 664 554 661 552 657 L307 -3 C305 -9 311 -14 316 -14 L429 -14 C432 -14 436 -13 437 -9 L682 651 C685 659 680 664 675 664 L560 664 Z M275 445 C247 445 224 469 224 497 C224 527 247 545 275 545 C305 545 327 526 327 497 C327 469 304 445 275 445 L275 445 Z M727 125 C699 125 675 149 675 177 C675 206 704 225 727 225 C756 225 781 205 781 177 C781 149 757 125 727 125 L727 125 Z " />
<glyph glyph-name="ampersand" unicode="&#x26;" horiz-adv-x="769" d="M702 15 L574 141 C592 187 604 244 604 300 L604 415 C604 421 597 425 591 421 L470 345 C467 344 466 341 466 337 L466 284 C466 272 466 257 466 245 L295 409 C277 426 265 444 259 462 C254 476 252 490 257 502 C267 524 292 536 324 536 L350 536 C384 536 414 515 414 471 L414 434 C414 426 421 422 427 426 L545 499 C547 500 549 504 549 512 C549 535 545 557 535 575 C525 594 511 611 494 626 C457 654 405 670 342 670 C269 670 211 655 174 627 C135 600 116 559 116 504 C116 455 130 412 165 369 C137 349 119 327 107 302 C95 275 89 244 89 200 C89 134 105 84 136 51 C154 31 179 16 207 6 C240 -5 279 -10 322 -10 L354 -10 C411 -10 461 7 500 39 L525 4 C527 0 529 0 532 0 L697 0 C705 0 709 10 702 15 L702 15 Z M339 125 L304 125 C252 125 225 164 225 209 C225 245 251 266 257 271 L395 139 C377 131 359 125 339 125 L339 125 Z " />
<glyph glyph-name="quotesingle" unicode="&#x27;" horiz-adv-x="227" d="M99 696 C92 696 87 691 89 685 L101 599 C102 592 105 590 110 590 L146 590 C151 590 152 592 154 599 L166 684 C167 692 162 696 157 696 L99 696 Z " />
<glyph glyph-name="parenleft" unicode="&#x28;" horiz-adv-x="425" d="M199 339 C199 419 225 489 264 551 C292 597 321 626 327 631 L349 651 C351 654 352 659 350 662 L292 752 C289 759 284 760 279 756 C145 661 90 495 90 342 C90 185 147 11 279 -75 C284 -78 290 -79 292 -73 L351 19 C354 22 352 27 350 30 C344 34 336 41 327 50 C245 126 199 231 199 339 L199 339 Z " />
<glyph glyph-name="parenright" unicode="&#x29;" horiz-adv-x="425" d="M174 756 C169 760 164 759 160 752 L102 662 C100 659 101 654 104 651 L125 631 C131 626 160 597 189 551 C227 489 254 419 254 339 C254 231 207 126 125 50 C116 41 109 34 102 30 C100 27 99 22 101 19 L160 -73 C162 -79 169 -78 174 -75 C305 11 362 185 362 342 C362 495 307 661 174 756 L174 756 Z " />
<glyph glyph-name="asterisk" unicode="&#x2a;" horiz-adv-x="329" d="M149 700 L149 672 L126 689 C121 692 115 691 112 686 L91 654 C89 650 89 646 94 642 L127 619 L94 595 C89 591 86 587 90 582 L112 551 C116 546 120 547 125 550 L149 565 L149 536 C149 531 152 529 157 529 L196 529 C201 529 204 531 204 536 L204 564 L227 549 C231 546 237 546 240 550 L262 581 C266 586 265 591 260 595 L225 619 L260 641 C265 645 265 649 262 654 L241 686 C239 690 231 691 227 689 L204 672 L204 700 C204 705 202 710 196 710 L157 710 C151 710 149 705 149 700 L149 700 Z " />
<glyph glyph-name="plus" unicode="&#x2b;" horiz-adv-x="410" d="M164 225 C164 220 169 216 174 216 L264 216 C269 216 271 220 271 225 L271 294 L339 294 C342 294 346 296 346 301 L346 389 C346 392 345 396 339 396 L271 396 L271 464 C271 469 269 472 264 472 L174 472 C169 472 164 469 164 464 L164 396 L96 396 C91 396 89 394 89 389 L89 301 C89 296 94 294 99 294 L164 294 L164 225 L164 225 Z " />
<glyph glyph-name="comma" unicode="&#x2c;" horiz-adv-x="275" d="M140 167 C91 167 50 129 50 80 C50 40 80 6 114 -5 L82 -85 C80 -91 82 -98 91 -98 L159 -98 C162 -98 166 -95 167 -91 L224 57 C226 64 229 74 229 82 C229 131 187 167 140 167 L140 167 Z " />
<glyph glyph-name="hyphen" unicode="&#x2d;" horiz-adv-x="409" d="M99 396 C94 396 89 394 89 389 L89 301 C89 296 94 294 99 294 L339 294 C342 294 346 296 346 301 L346 389 C346 391 342 396 339 396 L99 396 Z " />
<glyph glyph-name="period" unicode="&#x2e;" horiz-adv-x="292" d="M146 -9 C195 -9 236 31 236 80 C236 129 195 167 146 167 C99 167 59 129 59 80 C59 31 99 -9 146 -9 L146 -9 Z " />
<glyph glyph-name="slash" unicode="&#x2f;" horiz-adv-x="529" d="M465 651 C467 657 464 664 457 664 L342 664 C340 664 337 664 335 657 L90 -3 C87 -9 91 -14 96 -14 L212 -14 C215 -14 220 -13 221 -9 L465 651 Z " />
<glyph glyph-name="zero" unicode="0" horiz-adv-x="656" d="M342 669 C226 669 137 601 106 496 C95 459 89 415 89 367 L89 291 C89 127 172 -10 342 -10 C517 -10 595 137 595 291 L595 367 C595 541 506 669 342 669 L342 669 Z M342 124 C240 124 222 255 222 329 C222 410 242 535 342 535 C452 535 461 410 461 329 C461 241 447 124 342 124 L342 124 Z " />
<glyph glyph-name="one" unicode="1" horiz-adv-x="379" d="M162 654 L90 552 C90 551 89 550 89 547 L89 435 C89 427 99 424 104 429 L166 495 L166 9 C166 4 170 0 175 0 L289 0 C294 0 297 4 297 9 L297 650 C297 655 294 659 289 659 L172 659 C170 659 166 659 162 654 L162 654 Z " />
<glyph glyph-name="two" unicode="2" horiz-adv-x="587" d="M396 250 C486 311 530 382 525 464 C520 526 496 577 456 614 C415 650 362 669 300 669 C197 669 90 604 90 494 C90 486 91 485 94 484 L210 415 C215 411 222 415 222 422 L222 440 C222 491 254 535 301 535 C331 535 356 520 371 497 C414 435 330 390 290 367 C192 312 94 244 94 122 L94 9 C94 5 97 0 102 0 L491 0 C496 0 500 4 500 9 L500 124 C500 129 496 132 491 132 L247 132 C252 180 359 224 396 250 L396 250 Z " />
<glyph glyph-name="three" unicode="3" horiz-adv-x="562" d="M289 669 C205 669 110 625 90 542 C89 537 89 535 92 532 L180 466 C185 462 190 464 192 469 C207 504 239 536 279 536 C324 536 360 506 360 462 C360 424 319 394 275 394 L260 394 C255 394 251 390 251 386 L251 294 C251 289 256 284 261 284 C270 284 270 284 279 284 C334 284 360 234 360 197 C360 150 319 124 292 124 C259 124 232 132 189 191 C186 195 180 196 176 192 L92 129 C89 126 87 121 90 117 C134 36 205 -10 289 -10 C417 -10 500 84 500 206 C500 252 484 300 452 331 C484 369 500 411 500 455 C500 581 409 669 289 669 L289 669 Z " />
<glyph glyph-name="four" unicode="4" horiz-adv-x="610" d="M460 660 L341 660 C339 660 336 659 335 656 L92 305 C90 301 89 300 89 295 L89 186 C89 181 92 177 97 177 L337 177 L337 9 C337 4 341 0 346 0 L460 0 C465 0 469 4 469 9 L469 177 L539 177 C544 177 547 181 547 186 L547 294 C547 299 544 302 539 302 L469 302 L469 651 C469 656 465 660 460 660 L460 660 Z M337 302 L239 302 L337 454 L337 302 L337 302 Z " />
<glyph glyph-name="five" unicode="5" horiz-adv-x="570" d="M304 441 C286 441 266 440 246 439 L246 535 L442 535 C447 535 451 539 451 544 L451 651 C451 656 447 660 442 660 L121 660 C117 660 114 656 114 651 L114 304 C114 299 117 295 124 296 C171 306 229 320 275 320 C336 320 364 280 364 225 C364 169 346 124 290 124 C245 124 219 156 209 195 L205 209 C204 214 197 216 192 212 L92 145 C89 142 89 139 91 131 C125 31 196 -11 295 -11 C427 -11 507 99 507 219 L507 236 C511 371 435 441 304 441 L304 441 Z " />
<glyph glyph-name="six" unicode="6" horiz-adv-x="607" d="M327 451 C291 451 257 446 229 439 C235 499 262 534 319 534 C366 534 385 514 395 495 L406 475 C409 470 412 469 417 471 L530 529 C535 531 535 534 534 539 C501 634 400 669 319 669 L312 669 C177 669 89 582 89 461 L89 216 C89 69 177 -10 315 -10 L321 -10 C412 -10 500 32 531 116 C541 144 546 176 546 209 L546 232 C546 362 447 451 327 451 L327 451 Z M319 124 C259 124 222 166 222 222 C222 280 264 320 319 320 C376 320 414 276 414 222 C414 169 371 124 319 124 L319 124 Z " />
<glyph glyph-name="seven" unicode="7" horiz-adv-x="509" d="M97 535 L301 535 L92 11 C90 6 94 0 100 0 L227 0 C230 0 234 2 235 5 L446 535 C446 536 446 544 446 651 C446 656 442 660 437 660 L97 660 C92 660 89 656 89 651 L89 544 C89 539 92 535 97 535 L97 535 Z " />
<glyph glyph-name="eight" unicode="8" horiz-adv-x="607" d="M471 391 C492 422 504 461 504 497 C504 524 500 547 490 569 C481 589 466 606 450 622 C415 652 369 669 319 669 C219 669 131 597 131 497 C131 462 142 426 161 396 C115 357 89 296 89 222 L89 214 C89 67 180 -10 319 -10 C354 -10 386 -5 414 5 C470 25 511 64 531 115 C541 142 546 174 546 207 L546 219 C546 291 520 351 471 391 L471 391 Z M319 546 C347 546 370 524 370 497 C370 469 346 445 319 445 C290 445 266 469 266 497 C266 530 290 546 319 546 L319 546 Z M319 124 C260 124 222 164 222 219 C222 244 230 269 247 284 C266 301 290 311 319 311 C374 311 414 271 414 219 C414 165 370 124 319 124 L319 124 Z " />
<glyph glyph-name="nine" unicode="9" horiz-adv-x="607" d="M106 132 C101 130 100 126 102 121 C139 34 234 -10 319 -10 C462 -10 546 75 546 199 L546 442 C546 589 461 669 321 669 L315 669 C180 669 89 576 89 450 L89 426 C89 360 111 304 152 265 C197 225 252 207 309 207 C344 207 377 212 407 220 C401 160 374 126 319 126 C269 126 252 145 241 165 L230 184 C226 190 224 190 219 187 L106 132 Z M317 340 C260 340 221 384 221 437 C221 494 266 534 319 534 C377 534 414 490 414 437 C414 381 371 340 317 340 L317 340 Z " />
<glyph glyph-name="colon" unicode="&#x3a;" horiz-adv-x="302" d="M150 -9 C199 -9 240 31 240 80 C240 129 199 167 150 167 C103 167 63 129 63 80 C63 31 103 -9 150 -9 L150 -9 Z M150 246 C199 246 240 286 240 335 C240 384 199 422 150 422 C103 422 63 384 63 335 C63 286 103 246 150 246 L150 246 Z " />
<glyph glyph-name="semicolon" unicode="&#x3b;" horiz-adv-x="304" d="M151 246 C200 246 241 286 241 335 C241 384 200 422 151 422 C104 422 64 384 64 335 C64 286 104 246 151 246 L151 246 Z M152 167 C103 167 62 129 62 80 C62 40 92 6 126 -5 L94 -85 C92 -91 94 -98 103 -98 L171 -98 C174 -98 178 -95 179 -91 L236 57 C238 64 241 74 241 82 C241 131 199 167 152 167 L152 167 Z " />
<glyph glyph-name="less" unicode="&#x3c;" horiz-adv-x="420" d="M95 240 L344 121 C350 117 357 122 357 130 L357 245 C357 249 355 250 352 251 L197 316 L354 406 C356 407 357 411 357 414 L357 529 C357 536 349 539 344 535 L94 377 C91 376 89 372 89 369 L89 249 C89 245 91 241 95 240 L95 240 Z " />
<glyph glyph-name="equal" unicode="&#x3d;" horiz-adv-x="409" d="M339 454 L99 454 C94 454 89 449 89 442 L89 357 C89 352 94 347 99 347 L339 347 C342 347 346 352 346 357 L346 442 C346 449 342 454 339 454 L339 454 Z M339 321 L99 321 C94 321 89 317 89 312 L89 226 C89 221 94 217 99 217 L339 217 C342 217 346 221 346 226 L346 312 C346 317 342 321 339 321 L339 321 Z " />
<glyph glyph-name="greater" unicode="&#x3e;" horiz-adv-x="420" d="M356 249 L356 369 C356 372 356 376 351 379 L102 535 C96 539 89 532 89 529 L89 414 C89 411 90 409 94 406 L249 316 L95 251 C91 250 89 249 89 245 L89 130 C89 121 96 119 101 121 L352 240 C355 241 356 245 356 249 L356 249 Z " />
<glyph glyph-name="question" unicode="&#x3f;" horiz-adv-x="582" d="M244 167 C196 167 157 129 157 80 C157 31 196 -9 244 -9 C294 -9 332 31 332 80 C332 129 294 167 244 167 L244 167 Z M282 669 C177 669 66 582 76 475 C76 471 77 467 81 466 L194 409 C200 406 206 410 206 416 L206 441 C205 490 236 535 286 535 C339 535 367 497 349 451 C331 410 266 377 232 351 C202 331 185 304 176 271 C170 247 171 232 171 211 C171 202 175 200 179 200 C204 200 276 200 301 200 C306 200 310 204 310 209 C310 232 312 244 324 257 C336 275 360 294 405 320 C441 342 467 367 484 395 C501 425 510 459 506 494 C496 610 380 669 282 669 L282 669 Z " />
<glyph glyph-name="at" unicode="&#x40;" horiz-adv-x="741" d="M580 627 C556 644 525 654 491 660 C464 666 436 667 402 667 L364 667 C265 667 200 647 156 605 C132 581 117 552 106 515 C95 477 89 434 89 379 L89 290 C89 179 111 101 156 54 C195 11 251 -10 329 -10 C365 -10 415 -6 454 17 C470 27 480 36 482 41 C485 46 485 50 482 54 L420 127 C416 131 411 131 407 129 C396 119 365 96 325 96 C305 96 267 101 236 127 C205 154 190 197 190 251 L190 346 C190 429 205 486 239 520 C267 550 307 564 366 564 L387 564 C449 564 492 554 522 534 C556 510 571 471 571 416 L571 272 C571 234 561 219 540 219 C519 219 514 229 514 274 C514 315 516 462 517 490 C517 496 514 499 509 499 L436 499 C431 499 427 496 427 490 L427 469 C425 472 421 475 417 479 C396 495 367 499 347 499 C315 499 287 486 269 464 C250 442 242 415 242 384 L242 274 C242 209 267 147 335 147 C379 147 401 167 424 197 C431 167 444 147 462 132 C484 119 510 111 547 111 C592 111 627 129 650 159 C669 186 679 225 679 272 L679 416 C679 516 646 587 580 627 L580 627 Z M416 296 C410 276 391 250 369 250 C330 250 321 292 321 321 L321 337 C321 390 345 395 366 395 C380 395 416 382 416 366 L416 296 Z " />
<glyph glyph-name="A" unicode="A" horiz-adv-x="576" d="M219 654 L46 11 C45 5 49 0 55 0 L170 0 C174 0 176 2 177 6 L215 146 L361 146 L400 6 C401 2 404 0 407 0 L521 0 C527 0 531 5 530 11 L357 654 C356 657 354 660 350 660 L226 660 C222 660 220 657 219 654 L219 654 Z M247 270 L287 421 L330 270 L247 270 Z " />
<glyph glyph-name="B" unicode="B" horiz-adv-x="575" d="M471 489 C471 547 457 601 410 631 C372 656 316 660 262 660 L102 660 C97 660 94 656 94 651 L94 9 C94 4 97 0 102 0 L297 0 C352 0 407 6 446 37 C487 69 505 130 505 216 C505 297 489 355 451 391 C465 416 471 450 471 489 L471 489 Z M226 529 L266 529 C310 529 336 519 336 484 C336 449 319 439 287 439 L226 439 L226 529 L226 529 Z M264 131 L226 131 L226 305 C271 305 279 305 286 305 C337 305 371 267 371 219 C371 155 319 131 264 131 L264 131 Z " />
<glyph glyph-name="C" unicode="C" horiz-adv-x="614" d="M407 231 C407 197 400 172 387 154 C372 134 349 125 316 125 L304 125 C264 125 215 144 215 231 L215 429 C215 462 220 487 234 506 C249 526 271 535 304 535 L316 535 C365 535 406 512 406 457 L406 441 C406 436 410 432 415 432 L530 432 C535 432 539 436 539 441 L539 462 C539 615 452 669 311 669 C162 669 81 610 81 462 L81 199 C81 45 172 -10 311 -10 C460 -10 539 52 539 199 L539 262 C539 267 535 271 530 271 L416 271 C411 271 407 267 407 262 L407 231 L407 231 Z " />
<glyph glyph-name="D" unicode="D" horiz-adv-x="631" d="M352 660 L102 660 C97 660 94 656 94 651 L94 9 C94 4 97 0 102 0 L352 0 C480 0 550 76 550 197 L550 462 C550 522 535 571 505 604 C471 641 420 660 352 660 L352 660 Z M419 227 C419 164 376 125 316 125 L226 125 L226 535 L316 535 C386 535 419 495 419 432 L419 227 L419 227 Z " />
<glyph glyph-name="E" unicode="E" horiz-adv-x="526" d="M102 0 L442 0 C447 0 451 4 451 9 L451 116 C451 121 447 125 442 125 L226 125 L226 272 L394 272 C399 272 402 276 402 281 L402 390 C402 395 399 399 394 399 L226 399 L226 535 L442 535 C447 535 451 539 451 544 L451 651 C451 656 447 660 442 660 L102 660 C97 660 94 656 94 651 L94 9 C94 4 97 0 102 0 L102 0 Z " />
<glyph glyph-name="F" unicode="F" horiz-adv-x="497" d="M217 0 C222 0 226 4 226 9 L226 272 L394 272 C399 272 402 276 402 281 L402 390 C402 395 399 399 394 399 L226 399 L226 535 L442 535 C447 535 451 539 451 544 L451 651 C451 656 447 660 442 660 L102 660 C97 660 94 656 94 651 L94 9 C94 4 97 0 102 0 L217 0 Z " />
<glyph glyph-name="G" unicode="G" horiz-adv-x="615" d="M301 240 L406 240 L406 231 C406 167 377 125 316 125 L304 125 C262 125 215 144 215 231 L215 429 C215 462 220 487 234 506 C249 526 271 535 304 535 L316 535 C367 535 406 515 406 454 L406 441 C406 436 410 432 415 432 L530 432 C535 432 539 436 539 441 L539 462 C539 615 451 669 311 669 C162 669 81 607 81 462 L81 199 C81 45 172 -10 311 -10 C460 -10 539 52 539 199 L539 356 C539 361 535 365 530 365 L301 365 C296 365 292 361 292 356 L292 249 C292 244 296 240 301 240 L301 240 Z " />
<glyph glyph-name="H" unicode="H" horiz-adv-x="612" d="M387 400 L225 400 L225 651 C225 656 221 660 216 660 L102 660 C97 660 94 656 94 651 L94 9 C94 4 97 0 102 0 L216 0 C221 0 225 4 225 9 L225 275 L387 275 L387 9 C387 4 391 0 396 0 L510 0 C515 0 519 4 519 9 L519 651 C519 656 515 660 510 660 L396 660 C391 660 387 656 387 651 L387 400 L387 400 Z " />
<glyph glyph-name="I" unicode="I" horiz-adv-x="315" d="M102 0 L216 0 C221 0 225 4 225 9 L225 651 C225 656 221 660 216 660 L102 660 C97 660 94 656 94 651 L94 9 C94 4 97 0 102 0 L102 0 Z " />
<glyph glyph-name="J" unicode="J" horiz-adv-x="509" d="M300 660 C295 660 291 656 291 651 L291 236 C291 194 282 125 232 125 C180 125 156 184 142 224 C140 230 134 230 130 227 L25 154 C21 151 20 147 22 142 C41 101 70 64 100 36 C136 7 177 -9 219 -9 L244 -9 C346 -9 424 75 424 172 L424 651 C424 656 420 660 415 660 L300 660 Z " />
<glyph glyph-name="K" unicode="K" horiz-adv-x="581" d="M514 660 L390 660 C386 660 385 660 382 656 L225 444 L225 651 C225 656 221 660 216 660 L102 660 C97 660 94 656 94 651 L94 9 C94 4 97 0 102 0 L216 0 C221 0 225 4 225 9 L225 235 L276 305 L380 6 C381 2 384 0 387 0 L522 0 C529 0 532 6 530 11 L364 429 L521 646 C525 652 521 660 514 660 L514 660 Z " />
<glyph glyph-name="L" unicode="L" horiz-adv-x="496" d="M216 660 L102 660 C97 660 94 656 94 651 L94 9 C94 4 97 0 102 0 L441 0 C446 0 450 4 450 9 L450 117 C450 122 446 126 441 126 L225 126 L225 651 C225 656 221 660 216 660 L216 660 Z " />
<glyph glyph-name="M" unicode="M" horiz-adv-x="749" d="M646 660 L511 660 C507 660 504 657 504 654 L371 249 L250 654 C249 657 245 660 241 660 L101 660 C97 660 94 656 94 651 L94 9 C94 4 97 0 101 0 L212 0 C217 0 221 4 221 9 L221 386 L324 6 C325 2 329 0 332 0 L411 0 C415 0 417 2 419 6 L529 379 L529 9 C529 4 534 0 537 0 L646 0 C651 0 655 4 655 9 L655 651 C655 656 651 660 646 660 L646 660 Z " />
<glyph glyph-name="N" unicode="N" horiz-adv-x="594" d="M367 651 L367 332 L227 655 C226 657 224 660 220 660 L102 660 C97 660 94 656 94 651 L94 9 C94 4 97 0 102 0 L216 0 C221 0 225 4 225 9 L225 334 L371 5 C372 2 376 0 380 0 L491 0 C496 0 500 4 500 9 L500 651 C500 656 496 660 491 660 L376 660 C371 660 367 656 367 651 L367 651 Z " />
<glyph glyph-name="O" unicode="O" horiz-adv-x="620" d="M311 669 C224 669 164 651 126 610 C96 577 81 529 81 462 L81 199 C81 130 97 82 126 50 C164 10 222 -10 311 -10 C397 -10 456 10 495 50 C525 82 539 130 539 199 L539 462 C539 529 525 576 495 609 C457 650 397 669 311 669 L311 669 Z M406 229 C405 165 380 122 316 122 L304 122 C262 122 215 141 215 229 L215 429 C215 494 240 535 304 535 L316 535 C359 535 406 517 406 429 L406 229 L406 229 Z " />
<glyph glyph-name="P" unicode="P" horiz-adv-x="534" d="M309 660 L101 660 C97 660 94 656 94 651 L94 9 C94 4 97 0 101 0 L216 0 C221 0 225 4 225 9 L225 175 L309 175 C421 175 487 247 487 354 L487 480 C487 597 420 660 309 660 L309 660 Z M356 384 C356 316 309 306 254 306 L225 306 L225 526 L254 526 C324 526 356 519 356 450 L356 384 L356 384 Z " />
<glyph glyph-name="Q" unicode="Q" horiz-adv-x="611" d="M304 669 C155 669 74 610 74 462 L74 199 C74 81 124 15 236 -6 L236 -68 C236 -73 241 -78 246 -78 L360 -78 C365 -78 370 -73 370 -68 L370 -6 C489 17 531 86 531 199 L531 462 C531 614 442 669 304 669 L304 669 Z M399 231 C399 167 371 125 309 125 L296 125 C255 125 207 144 207 231 L207 429 C207 494 234 535 296 535 L309 535 C351 535 399 517 399 429 L399 231 Z " />
<glyph glyph-name="R" unicode="R" horiz-adv-x="570" d="M469 261 C481 286 487 319 487 354 L487 480 C487 597 420 660 309 660 L101 660 C97 660 94 656 94 651 L94 9 C94 4 97 0 101 0 L216 0 C221 0 225 4 225 9 L225 175 L276 175 L354 5 C355 2 357 0 361 0 L484 0 C490 0 494 6 491 12 L407 197 C435 210 455 232 469 261 L469 261 Z M356 385 C354 307 317 306 254 306 L225 306 L225 527 L254 527 C330 527 356 520 356 450 L356 385 L356 385 Z " />
<glyph glyph-name="S" unicode="S" horiz-adv-x="550" d="M319 405 C279 424 196 447 196 492 C196 529 245 537 266 537 C306 537 336 514 370 465 C374 460 376 460 380 462 L469 524 C472 526 474 531 472 535 C430 624 366 669 280 669 C171 669 56 606 56 481 C56 431 76 389 117 351 C156 317 202 294 247 276 C286 261 349 235 349 189 C349 141 307 124 276 124 C236 124 200 155 185 186 C180 196 176 204 174 209 C171 214 165 214 161 211 L69 132 C66 130 65 127 66 124 C97 31 196 -10 281 -10 C361 -10 419 17 456 72 C489 121 494 179 494 209 C494 312 395 369 319 405 L319 405 Z " />
<glyph glyph-name="T" unicode="T" horiz-adv-x="527" d="M55 535 L197 535 L197 9 C197 4 201 0 206 0 L321 0 C326 0 330 4 330 9 L330 535 L472 535 C477 535 481 539 481 544 L481 651 C481 656 477 660 472 660 L55 660 C50 660 46 656 46 651 L46 544 C46 539 50 535 55 535 L55 535 Z " />
<glyph glyph-name="U" unicode="U" horiz-adv-x="630" d="M412 231 C412 167 384 125 322 125 L310 125 C269 125 220 144 220 231 L220 651 C220 656 216 660 211 660 L96 660 C91 660 87 656 87 651 L87 199 C87 46 175 -10 316 -10 C465 -10 544 55 544 199 L544 651 C544 656 540 660 535 660 L421 660 C416 660 412 656 412 651 L412 231 L412 231 Z " />
<glyph glyph-name="V" unicode="V" horiz-adv-x="577" d="M289 240 L179 654 C177 657 175 660 171 660 L56 660 C50 660 46 655 47 649 L220 6 C221 2 224 0 227 0 L351 0 C355 0 357 2 359 6 L532 649 C534 655 530 660 524 660 L410 660 C406 660 404 657 402 654 L289 240 L289 240 Z " />
<glyph glyph-name="W" unicode="W" horiz-adv-x="874" d="M804 660 L689 660 C685 660 682 657 681 654 L571 246 L479 654 C477 659 475 660 471 660 L347 660 C342 660 337 655 339 649 L385 481 L302 230 L191 654 C190 657 187 660 184 660 L69 660 C62 660 59 655 60 650 L231 6 C232 2 235 0 239 0 L345 0 C349 0 351 2 352 5 L444 259 L512 6 C514 2 517 0 521 0 L631 0 C635 0 639 2 640 6 L812 649 C814 655 810 660 804 660 L804 660 Z " />
<glyph glyph-name="X" unicode="X" horiz-adv-x="566" d="M486 660 L372 660 C369 660 366 657 365 655 L284 477 L204 655 C202 657 200 660 196 660 L80 660 C74 660 70 654 72 647 L201 354 L45 12 C42 6 46 0 52 0 L166 0 C170 0 171 0 174 5 L284 239 L394 5 C395 1 397 0 401 0 L514 0 C520 0 524 6 521 12 L364 354 L494 647 C496 654 492 660 486 660 L486 660 Z " />
<glyph glyph-name="Y" unicode="Y" horiz-adv-x="511" d="M256 487 L169 655 C166 660 165 660 161 660 L49 660 C42 660 39 654 41 647 L190 312 L190 9 C190 4 194 0 197 0 L315 0 C320 0 324 4 324 9 L324 312 L469 649 C471 654 467 660 461 660 L349 660 C345 660 344 660 341 655 L256 487 L256 487 Z " />
<glyph glyph-name="Z" unicode="Z" horiz-adv-x="590" d="M255 125 L496 536 C497 537 497 539 497 540 L497 652 C497 654 496 660 490 660 L101 660 C96 660 92 656 92 651 L92 544 C92 539 96 535 101 535 L337 535 L96 124 C95 121 95 120 95 120 L95 9 C95 2 100 0 104 0 L490 0 C495 0 499 4 499 9 L499 116 C499 121 495 125 490 125 L255 125 L255 125 Z " />
<glyph glyph-name="bracketleft" unicode="&#x5b;" horiz-adv-x="397" d="M239 59 L239 604 L326 604 C331 604 335 607 335 612 L335 726 C335 731 331 735 326 735 L116 735 C111 735 107 731 107 726 L107 -65 C107 -70 111 -74 116 -74 L326 -74 C331 -74 335 -70 335 -65 L335 50 C335 55 331 59 326 59 L239 59 L239 59 Z " />
<glyph glyph-name="backslash" unicode="&#x5c;" horiz-adv-x="530" d="M465 4 L221 664 C220 667 216 669 212 669 L99 669 C92 669 87 662 90 656 L335 -3 C336 -6 337 -9 342 -9 L459 -9 C465 -9 467 -3 465 4 L465 4 Z " />
<glyph glyph-name="bracketright" unicode="&#x5d;" horiz-adv-x="397" d="M311 735 L101 735 C96 735 92 731 92 726 L92 612 C92 607 96 604 101 604 L187 604 L187 59 L101 59 C96 59 92 55 92 50 L92 -66 C92 -71 96 -75 101 -75 L311 -75 C316 -75 320 -71 320 -66 L320 726 C320 731 316 735 311 735 L311 735 Z " />
<glyph glyph-name="asciicircum" unicode="&#x5e;" horiz-adv-x="567" d="M379 660 L256 660 C254 660 250 660 247 656 L91 406 C86 400 92 391 99 391 L214 391 C217 391 219 395 221 397 L310 554 L374 399 C375 395 379 391 382 391 L497 391 C504 391 507 399 505 405 L386 656 C385 659 382 660 379 660 L379 660 Z " />
<glyph glyph-name="underscore" unicode="&#x5f;" horiz-adv-x="649" d="M586 -94 L586 -8 C586 -3 582 1 577 1 L99 1 C94 1 89 -4 89 -8 L89 -94 C89 -100 94 -103 99 -103 L577 -103 C581 -103 586 -100 586 -94 L586 -94 Z " />
<glyph glyph-name="grave" unicode="&#x60;" horiz-adv-x="247" d="M137 589 C139 586 141 584 145 584 L176 584 C182 584 186 587 185 594 L172 677 C171 682 169 686 164 686 L99 686 C92 686 89 679 91 674 L137 589 L137 589 Z " />
<glyph glyph-name="a" unicode="a" horiz-adv-x="576" d="M219 654 L46 11 C45 5 49 0 55 0 L170 0 C174 0 176 2 177 6 L215 146 L361 146 L400 6 C401 2 404 0 407 0 L521 0 C527 0 531 5 530 11 L357 654 C356 657 354 660 350 660 L226 660 C222 660 220 657 219 654 L219 654 Z M247 270 L287 421 L330 270 L247 270 Z " />
<glyph glyph-name="b" unicode="b" horiz-adv-x="575" d="M471 489 C471 547 457 601 410 631 C372 656 316 660 262 660 L102 660 C97 660 94 656 94 651 L94 9 C94 4 97 0 102 0 L297 0 C352 0 407 6 446 37 C487 69 505 130 505 216 C505 297 489 355 451 391 C465 416 471 450 471 489 L471 489 Z M226 529 L266 529 C310 529 336 519 336 484 C336 449 319 439 287 439 L226 439 L226 529 L226 529 Z M264 131 L226 131 L226 305 C271 305 279 305 286 305 C337 305 371 267 371 219 C371 155 319 131 264 131 L264 131 Z " />
<glyph glyph-name="c" unicode="c" horiz-adv-x="614" d="M407 231 C407 197 400 172 387 154 C372 134 349 125 316 125 L304 125 C264 125 215 144 215 231 L215 429 C215 462 220 487 234 506 C249 526 271 535 304 535 L316 535 C365 535 406 512 406 457 L406 441 C406 436 410 432 415 432 L530 432 C535 432 539 436 539 441 L539 462 C539 615 452 669 311 669 C162 669 81 610 81 462 L81 199 C81 45 172 -10 311 -10 C460 -10 539 52 539 199 L539 262 C539 267 535 271 530 271 L416 271 C411 271 407 267 407 262 L407 231 L407 231 Z " />
<glyph glyph-name="d" unicode="d" horiz-adv-x="631" d="M352 660 L102 660 C97 660 94 656 94 651 L94 9 C94 4 97 0 102 0 L352 0 C480 0 550 76 550 197 L550 462 C550 522 535 571 505 604 C471 641 420 660 352 660 L352 660 Z M419 227 C419 164 376 125 316 125 L226 125 L226 535 L316 535 C386 535 419 495 419 432 L419 227 L419 227 Z " />
<glyph glyph-name="e" unicode="e" horiz-adv-x="526" d="M102 0 L442 0 C447 0 451 4 451 9 L451 116 C451 121 447 125 442 125 L226 125 L226 272 L394 272 C399 272 402 276 402 281 L402 390 C402 395 399 399 394 399 L226 399 L226 535 L442 535 C447 535 451 539 451 544 L451 651 C451 656 447 660 442 660 L102 660 C97 660 94 656 94 651 L94 9 C94 4 97 0 102 0 L102 0 Z " />
<glyph glyph-name="f" unicode="f" horiz-adv-x="497" d="M217 0 C222 0 226 4 226 9 L226 272 L394 272 C399 272 402 276 402 281 L402 390 C402 395 399 399 394 399 L226 399 L226 535 L442 535 C447 535 451 539 451 544 L451 651 C451 656 447 660 442 660 L102 660 C97 660 94 656 94 651 L94 9 C94 4 97 0 102 0 L217 0 Z " />
<glyph glyph-name="g" unicode="g" horiz-adv-x="615" d="M301 240 L406 240 L406 231 C406 167 377 125 316 125 L304 125 C262 125 215 144 215 231 L215 429 C215 462 220 487 234 506 C249 526 271 535 304 535 L316 535 C367 535 406 515 406 454 L406 441 C406 436 410 432 415 432 L530 432 C535 432 539 436 539 441 L539 462 C539 615 451 669 311 669 C162 669 81 607 81 462 L81 199 C81 45 172 -10 311 -10 C460 -10 539 52 539 199 L539 356 C539 361 535 365 530 365 L301 365 C296 365 292 361 292 356 L292 249 C292 244 296 240 301 240 L301 240 Z " />
<glyph glyph-name="h" unicode="h" horiz-adv-x="612" d="M387 400 L225 400 L225 651 C225 656 221 660 216 660 L102 660 C97 660 94 656 94 651 L94 9 C94 4 97 0 102 0 L216 0 C221 0 225 4 225 9 L225 275 L387 275 L387 9 C387 4 391 0 396 0 L510 0 C515 0 519 4 519 9 L519 651 C519 656 515 660 510 660 L396 660 C391 660 387 656 387 651 L387 400 L387 400 Z " />
<glyph glyph-name="i" unicode="i" horiz-adv-x="315" d="M102 0 L216 0 C221 0 225 4 225 9 L225 651 C225 656 221 660 216 660 L102 660 C97 660 94 656 94 651 L94 9 C94 4 97 0 102 0 L102 0 Z " />
<glyph glyph-name="j" unicode="j" horiz-adv-x="509" d="M300 660 C295 660 291 656 291 651 L291 236 C291 194 282 125 232 125 C180 125 156 184 142 224 C140 230 134 230 130 227 L25 154 C21 151 20 147 22 142 C41 101 70 64 100 36 C136 7 177 -9 219 -9 L244 -9 C346 -9 424 75 424 172 L424 651 C424 656 420 660 415 660 L300 660 Z " />
<glyph glyph-name="k" unicode="k" horiz-adv-x="581" d="M514 660 L390 660 C386 660 385 660 382 656 L225 444 L225 651 C225 656 221 660 216 660 L102 660 C97 660 94 656 94 651 L94 9 C94 4 97 0 102 0 L216 0 C221 0 225 4 225 9 L225 235 L276 305 L380 6 C381 2 384 0 387 0 L522 0 C529 0 532 6 530 11 L364 429 L521 646 C525 652 521 660 514 660 L514 660 Z " />
<glyph glyph-name="l" unicode="l" horiz-adv-x="496" d="M216 660 L102 660 C97 660 94 656 94 651 L94 9 C94 4 97 0 102 0 L441 0 C446 0 450 4 450 9 L450 117 C450 122 446 126 441 126 L225 126 L225 651 C225 656 221 660 216 660 L216 660 Z " />
<glyph glyph-name="m" unicode="m" horiz-adv-x="749" d="M646 660 L511 660 C507 660 504 657 504 654 L371 249 L250 654 C249 657 245 660 241 660 L101 660 C97 660 94 656 94 651 L94 9 C94 4 97 0 101 0 L212 0 C217 0 221 4 221 9 L221 386 L324 6 C325 2 329 0 332 0 L411 0 C415 0 417 2 419 6 L529 379 L529 9 C529 4 534 0 537 0 L646 0 C651 0 655 4 655 9 L655 651 C655 656 651 660 646 660 L646 660 Z " />
<glyph glyph-name="n" unicode="n" horiz-adv-x="594" d="M367 651 L367 332 L227 655 C226 657 224 660 220 660 L102 660 C97 660 94 656 94 651 L94 9 C94 4 97 0 102 0 L216 0 C221 0 225 4 225 9 L225 334 L371 5 C372 2 376 0 380 0 L491 0 C496 0 500 4 500 9 L500 651 C500 656 496 660 491 660 L376 660 C371 660 367 656 367 651 L367 651 Z " />
<glyph glyph-name="o" unicode="o" horiz-adv-x="620" d="M311 669 C224 669 164 651 126 610 C96 577 81 529 81 462 L81 199 C81 130 97 82 126 50 C164 10 222 -10 311 -10 C397 -10 456 10 495 50 C525 82 539 130 539 199 L539 462 C539 529 525 576 495 609 C457 650 397 669 311 669 L311 669 Z M406 229 C405 165 380 122 316 122 L304 122 C262 122 215 141 215 229 L215 429 C215 494 240 535 304 535 L316 535 C359 535 406 517 406 429 L406 229 L406 229 Z " />
<glyph glyph-name="p" unicode="p" horiz-adv-x="534" d="M309 660 L101 660 C97 660 94 656 94 651 L94 9 C94 4 97 0 101 0 L216 0 C221 0 225 4 225 9 L225 175 L309 175 C421 175 487 247 487 354 L487 480 C487 597 420 660 309 660 L309 660 Z M356 384 C356 316 309 306 254 306 L225 306 L225 526 L254 526 C324 526 356 519 356 450 L356 384 L356 384 Z " />
<glyph glyph-name="q" unicode="q" horiz-adv-x="611" d="M304 669 C155 669 74 610 74 462 L74 199 C74 81 124 15 236 -6 L236 -68 C236 -73 241 -78 246 -78 L360 -78 C365 -78 370 -73 370 -68 L370 -6 C489 17 531 86 531 199 L531 462 C531 614 442 669 304 669 L304 669 Z M399 231 C399 167 371 125 309 125 L296 125 C255 125 207 144 207 231 L207 429 C207 494 234 535 296 535 L309 535 C351 535 399 517 399 429 L399 231 Z " />
<glyph glyph-name="r" unicode="r" horiz-adv-x="570" d="M469 261 C481 286 487 319 487 354 L487 480 C487 597 420 660 309 660 L101 660 C97 660 94 656 94 651 L94 9 C94 4 97 0 101 0 L216 0 C221 0 225 4 225 9 L225 175 L276 175 L354 5 C355 2 357 0 361 0 L484 0 C490 0 494 6 491 12 L407 197 C435 210 455 232 469 261 L469 261 Z M356 385 C354 307 317 306 254 306 L225 306 L225 527 L254 527 C330 527 356 520 356 450 L356 385 L356 385 Z " />
<glyph glyph-name="s" unicode="s" horiz-adv-x="550" d="M319 405 C279 424 196 447 196 492 C196 529 245 537 266 537 C306 537 336 514 370 465 C374 460 376 460 380 462 L469 524 C472 526 474 531 472 535 C430 624 366 669 280 669 C171 669 56 606 56 481 C56 431 76 389 117 351 C156 317 202 294 247 276 C286 261 349 235 349 189 C349 141 307 124 276 124 C236 124 200 155 185 186 C180 196 176 204 174 209 C171 214 165 214 161 211 L69 132 C66 130 65 127 66 124 C97 31 196 -10 281 -10 C361 -10 419 17 456 72 C489 121 494 179 494 209 C494 312 395 369 319 405 L319 405 Z " />
<glyph glyph-name="t" unicode="t" horiz-adv-x="527" d="M55 535 L197 535 L197 9 C197 4 201 0 206 0 L321 0 C326 0 330 4 330 9 L330 535 L472 535 C477 535 481 539 481 544 L481 651 C481 656 477 660 472 660 L55 660 C50 660 46 656 46 651 L46 544 C46 539 50 535 55 535 L55 535 Z " />
<glyph glyph-name="u" unicode="u" horiz-adv-x="630" d="M412 231 C412 167 384 125 322 125 L310 125 C269 125 220 144 220 231 L220 651 C220 656 216 660 211 660 L96 660 C91 660 87 656 87 651 L87 199 C87 46 175 -10 316 -10 C465 -10 544 55 544 199 L544 651 C544 656 540 660 535 660 L421 660 C416 660 412 656 412 651 L412 231 L412 231 Z " />
<glyph glyph-name="v" unicode="v" horiz-adv-x="577" d="M289 240 L179 654 C177 657 175 660 171 660 L56 660 C50 660 46 655 47 649 L220 6 C221 2 224 0 227 0 L351 0 C355 0 357 2 359 6 L532 649 C534 655 530 660 524 660 L410 660 C406 660 404 657 402 654 L289 240 L289 240 Z " />
<glyph glyph-name="w" unicode="w" horiz-adv-x="874" d="M804 660 L689 660 C685 660 682 657 681 654 L571 246 L479 654 C477 659 475 660 471 660 L347 660 C342 660 337 655 339 649 L385 481 L302 230 L191 654 C190 657 187 660 184 660 L69 660 C62 660 59 655 60 650 L231 6 C232 2 235 0 239 0 L345 0 C349 0 351 2 352 5 L444 259 L512 6 C514 2 517 0 521 0 L631 0 C635 0 639 2 640 6 L812 649 C814 655 810 660 804 660 L804 660 Z " />
<glyph glyph-name="x" unicode="x" horiz-adv-x="566" d="M486 660 L372 660 C369 660 366 657 365 655 L284 477 L204 655 C202 657 200 660 196 660 L80 660 C74 660 70 654 72 647 L201 354 L45 12 C42 6 46 0 52 0 L166 0 C170 0 171 0 174 5 L284 239 L394 5 C395 1 397 0 401 0 L514 0 C520 0 524 6 521 12 L364 354 L494 647 C496 654 492 660 486 660 L486 660 Z " />
<glyph glyph-name="y" unicode="y" horiz-adv-x="511" d="M256 487 L169 655 C166 660 165 660 161 660 L49 660 C42 660 39 654 41 647 L190 312 L190 9 C190 4 194 0 197 0 L315 0 C320 0 324 4 324 9 L324 312 L469 649 C471 654 467 660 461 660 L349 660 C345 660 344 660 341 655 L256 487 L256 487 Z " />
<glyph glyph-name="z" unicode="z" horiz-adv-x="590" d="M255 125 L496 536 C497 537 497 539 497 540 L497 652 C497 654 496 660 490 660 L101 660 C96 660 92 656 92 651 L92 544 C92 539 96 535 101 535 L337 535 L96 124 C95 121 95 120 95 120 L95 9 C95 2 100 0 104 0 L490 0 C495 0 499 4 499 9 L499 116 C499 121 495 125 490 125 L255 125 L255 125 Z " />
<glyph glyph-name="braceleft" unicode="&#x7b;" horiz-adv-x="389" d="M106 640 C95 575 126 492 124 426 C122 379 110 347 92 331 C89 327 89 320 94 316 C114 301 122 270 124 222 C125 182 117 134 107 79 C102 54 102 30 106 7 C117 -55 171 -91 231 -91 L319 -91 C322 -91 326 -88 326 -83 L326 36 C326 41 322 45 319 45 L276 45 C240 45 232 84 237 110 C245 154 259 187 259 226 C259 262 247 295 225 324 C247 354 259 386 259 421 C259 465 242 500 237 537 C232 567 242 604 276 604 L319 604 C322 604 326 607 326 612 C326 636 326 706 327 731 C327 736 324 740 319 740 L231 740 C167 740 116 701 106 640 L106 640 Z " />
<glyph glyph-name="bar" unicode="&#x7c;" horiz-adv-x="284" d="M97 704 C94 704 89 700 89 696 L89 -46 C89 -50 94 -55 97 -55 L214 -55 C217 -55 222 -50 222 -46 L222 696 C221 700 216 704 214 704 L97 704 L97 704 Z " />
<glyph glyph-name="braceright" unicode="&#x7d;" horiz-adv-x="389" d="M326 331 C307 347 295 379 295 426 C295 499 326 574 311 640 C307 662 299 680 286 697 C264 724 229 740 187 740 L101 740 C96 740 92 736 92 731 L92 612 C92 607 96 604 101 604 L141 604 C179 604 186 566 181 537 C171 481 160 454 160 421 C160 386 171 354 192 324 C171 295 160 262 160 226 C160 184 174 146 181 110 C189 77 175 45 141 45 L101 45 C96 45 92 41 92 36 L92 -83 C92 -88 96 -91 101 -91 L187 -91 C229 -91 264 -78 286 -49 C299 -34 307 -14 311 7 C324 67 295 157 295 222 C295 270 306 301 326 317 C332 322 330 327 326 331 L326 331 Z " />
<glyph glyph-name="asciitilde" unicode="&#x7e;" horiz-adv-x="584" d="M355 276 C370 276 381 270 394 239 C395 234 397 231 402 231 L511 231 C515 231 520 234 520 240 C520 272 507 309 490 336 C471 364 439 396 381 396 C344 396 310 384 285 361 C275 352 267 346 252 346 C226 346 220 369 215 387 C215 391 211 395 206 395 L97 395 C92 395 89 391 89 387 C90 355 102 317 120 291 C139 262 172 229 231 229 C279 229 301 244 317 259 C330 269 342 276 355 276 L355 276 Z " />
<glyph glyph-name="exclamdown" unicode="&#xa1;" horiz-adv-x="334" d="M87 306 C82 306 79 302 79 297 L52 -149 C52 -153 55 -158 61 -158 L225 -158 C229 -158 234 -156 234 -149 L206 297 C206 302 202 306 197 306 L87 306 Z M139 336 C186 336 225 375 225 424 C225 472 186 512 139 512 C89 512 50 472 50 424 C50 375 89 336 139 336 L139 336 Z " />
<glyph glyph-name="cent" unicode="&#xa2;" horiz-adv-x="552" d="M437 501 C415 532 380 550 329 557 L329 631 C329 636 325 640 320 640 L234 640 C229 640 224 635 224 630 L224 557 C174 550 139 532 116 501 C97 474 87 439 87 390 L87 261 C87 211 96 176 116 150 C139 117 174 100 224 91 L224 15 C224 11 229 6 234 6 L320 6 C325 6 329 11 329 15 L329 91 C429 111 465 165 465 261 L465 311 C465 316 461 320 456 320 L365 320 C360 320 356 316 356 311 L356 287 C356 235 332 201 282 201 L271 201 C237 201 199 216 199 287 L199 364 C199 391 202 414 216 429 C227 442 246 450 271 450 L282 450 C321 450 352 427 352 385 L352 375 C352 370 356 366 361 366 L456 366 C461 366 465 370 465 375 L465 390 C465 439 457 475 437 501 L437 501 Z " />
<glyph glyph-name="sterling" unicode="&#xa3;" horiz-adv-x="629" d="M504 532 C507 535 509 539 507 542 C476 632 396 667 310 667 L285 667 C237 667 192 650 157 615 C125 581 105 536 105 487 L105 391 L71 391 C67 391 62 387 62 382 L62 269 C62 262 67 259 71 259 L105 259 L105 9 C105 5 109 0 114 0 L314 0 C401 0 460 17 497 55 C527 86 541 131 541 197 L541 261 C541 266 537 270 532 270 L420 270 C415 270 411 266 411 261 L411 230 C411 197 402 172 390 154 C375 132 351 124 320 124 L237 124 L237 259 L325 259 C329 259 334 262 334 269 L334 382 C334 387 329 391 325 391 L237 391 L237 424 C237 502 260 534 300 534 L307 534 C365 534 381 501 397 470 C400 465 406 464 410 466 L504 532 L504 532 Z " />
<glyph glyph-name="currency" unicode="&#xa4;" horiz-adv-x="695" d="M470 107 L531 47 C535 44 540 44 544 47 L604 107 C607 111 607 117 604 121 L550 175 C566 205 576 245 576 296 L576 359 C576 411 567 450 550 481 L604 535 C607 539 607 544 604 547 L544 607 C539 612 535 611 531 607 L470 549 C437 560 395 566 347 566 C299 566 256 560 224 549 L164 607 C159 612 155 611 152 609 C145 601 129 585 91 547 C86 544 87 539 91 535 L145 481 C127 450 119 411 119 359 L119 296 C119 245 127 205 145 175 L91 121 C86 117 86 112 91 107 L151 47 C154 44 161 45 164 47 L224 107 C256 95 299 89 347 89 C395 89 437 95 470 107 L470 107 Z M444 330 L444 325 C444 264 412 224 354 224 L341 224 C279 224 251 271 250 325 L250 330 C252 391 281 432 341 432 L354 432 C417 432 441 385 444 330 L444 330 Z " />
<glyph glyph-name="yen" unicode="&#xa5;" horiz-adv-x="511" d="M256 487 L169 655 C167 659 165 660 161 660 L49 660 C42 660 39 654 41 647 L165 371 L135 371 C131 371 127 367 127 362 L127 277 C127 272 131 269 135 269 L190 269 L190 240 L135 240 C131 240 127 236 127 231 L127 145 C127 140 131 136 135 136 L190 136 L190 9 C190 4 194 0 197 0 L314 0 C319 0 322 4 322 9 L322 136 L376 136 C381 136 385 140 385 145 L385 231 C385 236 381 240 376 240 L322 240 L322 269 L376 269 C381 269 385 272 385 277 L385 362 C385 367 381 371 376 371 L350 371 L469 649 C470 654 466 660 460 660 L349 660 C346 660 344 659 341 655 L256 487 L256 487 Z " />
<glyph glyph-name="brokenbar" unicode="&#xa6;" horiz-adv-x="309" d="M211 357 C216 357 221 361 221 366 L221 695 C221 701 219 705 211 705 L96 705 C92 705 87 700 87 697 L87 366 C87 360 91 357 96 357 L211 357 Z M87 -45 C87 -49 91 -54 96 -54 L211 -54 C216 -54 221 -50 221 -45 L221 286 C221 292 216 295 211 295 L96 295 C92 295 87 292 87 286 L87 -45 Z " />
<glyph glyph-name="section" unicode="&#xa7;" horiz-adv-x="652" d="M524 402 C499 427 461 451 412 472 C361 494 332 507 319 517 C304 530 302 536 304 547 C306 566 339 581 365 581 C392 581 414 566 430 552 C440 542 445 531 450 520 C452 515 457 512 462 516 L541 569 C546 571 547 577 545 581 C534 600 522 624 502 644 C500 646 496 649 492 651 C462 677 426 689 377 689 C321 689 271 676 237 649 C201 622 182 582 181 537 C181 517 184 499 192 482 C161 471 136 454 119 431 C100 407 90 379 89 345 C87 309 104 275 131 246 L144 235 C169 214 204 195 247 176 C285 162 310 150 331 131 C342 120 345 109 344 96 C339 60 312 47 282 47 C269 47 250 52 236 61 C222 70 207 86 202 100 C200 107 199 112 197 117 C196 124 189 126 184 122 L100 59 C96 56 97 51 97 47 C110 2 152 -29 190 -46 C217 -59 249 -63 286 -63 C356 -63 407 -40 439 5 C466 44 471 90 471 114 C471 126 471 135 470 145 C505 162 532 189 547 226 C560 259 564 290 564 305 C565 337 556 366 535 390 L524 402 L524 402 Z M437 289 C435 271 417 250 390 250 C365 250 237 311 227 321 C215 331 211 342 212 356 C215 374 247 390 272 390 C327 390 387 357 422 322 C434 312 439 300 437 289 L437 289 Z " />
<glyph glyph-name="dieresis" unicode="&#xa8;" horiz-adv-x="362" d="M89 631 C89 605 111 581 139 581 C165 581 186 605 186 631 C186 657 165 679 139 679 C111 679 89 657 89 631 L89 631 Z M251 581 C279 581 300 605 300 631 C300 657 279 679 251 679 C225 679 204 657 204 631 C204 605 225 581 251 581 L251 581 Z " />
<glyph glyph-name="copyright" unicode="&#xa9;" horiz-adv-x="644" d="M341 581 L304 581 C185 581 87 480 87 367 L87 304 C87 185 190 87 304 87 L341 87 C461 87 556 190 556 304 L556 367 C556 486 454 581 341 581 L341 581 Z M472 311 C472 232 409 174 335 174 L310 174 C234 174 172 239 172 311 L172 366 C172 441 239 504 310 504 L335 504 C411 504 472 439 472 366 L472 311 L472 311 Z M319 405 L326 405 C345 405 356 402 364 395 C367 391 370 386 371 379 C371 375 372 371 372 367 C372 364 376 360 381 360 L437 360 C442 360 447 365 447 369 C446 457 404 480 322 480 C246 480 199 441 199 367 L199 309 C199 229 251 196 322 196 C396 196 447 224 447 300 L447 331 C447 336 441 340 437 340 L382 340 C377 340 374 336 374 331 L374 317 C374 284 361 272 326 272 L319 272 C286 272 272 299 272 326 L272 349 C272 382 287 405 319 405 L319 405 Z " />
<glyph glyph-name="ordfeminine" unicode="&#xaa;" horiz-adv-x="292" d="M103 747 L17 425 C16 422 18 420 21 420 L79 420 C81 420 82 421 82 423 L101 493 L174 493 L194 423 C194 421 196 420 197 420 L254 420 C257 420 259 422 259 425 L172 747 C172 748 171 750 169 750 L107 750 C105 750 104 748 103 747 L103 747 Z M117 555 L137 630 L159 555 L117 555 Z " />
<glyph glyph-name="guillemotleft" unicode="&#xab;" horiz-adv-x="660" d="M342 124 C349 120 357 124 357 131 L357 246 C357 249 356 251 352 252 L184 330 L352 407 C355 409 357 411 357 415 L357 529 C357 536 349 539 342 536 L94 372 C90 370 89 369 89 365 L89 295 C89 292 90 290 94 287 L342 124 Z M584 124 C590 120 599 124 599 131 L599 246 C599 249 597 251 594 252 L425 330 L594 407 C596 409 599 411 599 415 L599 529 C599 536 590 539 584 536 L335 372 C331 370 330 369 330 365 L330 295 C330 292 331 290 335 287 L584 124 Z " />
<glyph glyph-name="logicalnot" unicode="&#xac;" horiz-adv-x="491" d="M420 432 L99 432 C94 432 89 427 89 422 L89 336 C89 331 94 327 99 327 L325 327 L325 257 C325 252 330 249 334 249 L420 249 C426 249 429 252 429 257 L429 422 C429 427 426 432 420 432 L420 432 Z " />
<glyph glyph-name="uni00AD" unicode="&#xad;" horiz-adv-x="409" d="M99 396 C94 396 89 394 89 389 L89 301 C89 296 94 294 99 294 L339 294 C342 294 346 296 346 301 L346 389 C346 391 342 396 339 396 L99 396 Z " />
<glyph glyph-name="registered" unicode="&#xae;" horiz-adv-x="542" d="M89 467 C89 357 177 262 285 262 C397 262 481 364 481 467 C481 581 395 675 285 675 C172 675 89 571 89 467 L89 467 Z M155 476 C155 520 176 564 210 589 C232 605 257 614 285 614 C321 614 354 597 376 574 C401 547 415 512 415 476 L415 465 C415 432 402 397 380 371 C354 345 321 327 285 327 C250 327 224 342 194 367 C169 397 155 432 155 465 L155 476 Z M336 429 C352 440 360 460 360 485 L360 510 C360 534 354 550 342 561 C331 574 314 580 291 580 L224 580 C220 580 216 576 216 571 L216 372 C216 367 220 364 224 364 L260 364 C265 364 269 367 269 372 L269 415 L286 415 L306 369 C307 366 310 364 314 364 L354 364 C360 364 364 370 361 376 L336 429 Z M307 499 C307 476 297 470 274 470 L269 470 L269 532 L274 532 C299 532 307 525 307 504 L307 499 Z " />
<glyph glyph-name="macron" unicode="&#xaf;" horiz-adv-x="409" d="M98 690 C93 690 88 688 88 683 L88 595 C88 590 93 588 98 588 L338 588 C341 588 345 590 345 595 L345 683 C345 685 341 690 338 690 L98 690 Z " />
<glyph glyph-name="degree" unicode="&#xb0;" horiz-adv-x="352" d="M291 631 C287 696 251 724 191 724 C127 724 89 694 89 631 L89 605 C92 539 131 512 191 512 C254 512 291 544 291 605 L291 631 L291 631 Z M224 619 C224 604 220 582 194 582 L187 582 C166 584 157 600 157 619 C157 634 161 654 187 654 L194 654 C216 652 224 637 224 619 L224 619 Z " />
<glyph glyph-name="plusminus" unicode="&#xb1;" horiz-adv-x="432" d="M345 155 L345 242 C345 249 341 250 337 250 L97 250 C92 250 87 249 87 242 L87 155 C87 152 92 147 97 147 L337 147 C341 147 345 152 345 155 L345 155 Z M87 444 L87 357 C87 354 92 349 97 349 L162 349 L162 282 C162 276 167 272 172 272 L262 272 C267 272 270 276 270 282 L270 349 L337 349 C341 349 345 354 345 357 L345 444 C345 450 341 454 337 454 L270 454 L270 521 C270 526 267 530 262 530 L172 530 C167 530 162 526 162 521 L162 454 L97 454 C92 454 87 450 87 444 L87 444 Z " />
<glyph glyph-name="twosuperior" unicode="&#xb2;" horiz-adv-x="394" d="M234 545 C279 575 301 611 298 652 C296 683 284 708 264 727 C243 745 217 754 186 754 C134 754 81 722 81 667 C81 663 81 662 83 662 L141 627 C143 625 147 627 147 631 L147 640 C147 665 163 687 186 687 C201 687 214 680 221 668 C243 637 201 615 181 603 C132 576 83 542 83 481 L83 424 C83 422 84 420 87 420 L281 420 C284 420 286 422 286 424 L286 482 C286 484 284 486 281 486 L159 486 C162 510 215 532 234 545 L234 545 Z " />
<glyph glyph-name="threesuperior" unicode="&#xb3;" horiz-adv-x="381" d="M181 754 C139 754 92 732 82 691 C81 688 81 687 83 686 L127 653 C129 651 132 652 133 654 C140 672 156 688 176 688 C199 688 217 673 217 651 C217 632 196 617 174 617 L167 617 C164 617 162 615 162 613 L162 567 C162 564 165 562 167 562 C172 562 172 562 176 562 C204 562 217 537 217 518 C217 495 196 482 183 482 C166 482 153 486 131 515 C130 517 127 518 125 516 L83 484 C81 483 80 480 82 478 C104 438 139 415 181 415 C245 415 287 462 287 523 C287 546 279 570 263 585 C279 604 287 625 287 647 C287 710 241 754 181 754 L181 754 Z " />
<glyph glyph-name="acute" unicode="&#xb4;" horiz-adv-x="264" d="M90 594 C89 587 95 584 99 584 L137 584 C140 584 144 585 147 591 L200 667 C206 676 201 681 192 681 L115 681 C110 681 107 679 106 675 L90 594 Z " />
<glyph glyph-name="mu" unicode="&#xb5;" horiz-adv-x="695" d="M640 660 L505 660 C501 660 498 657 498 654 L365 249 L244 654 C243 657 239 660 235 660 L95 660 C91 660 88 656 88 651 L88 9 C88 4 91 0 95 0 L206 0 C211 0 215 4 215 9 L215 386 L318 6 C319 2 323 0 326 0 L405 0 C409 0 411 2 413 6 L523 379 L523 9 C523 4 528 0 531 0 L640 0 C645 0 649 4 649 9 L649 651 C649 656 645 660 640 660 L640 660 Z " />
<glyph glyph-name="paragraph" unicode="&#xb6;" horiz-adv-x="679" d="M125 604 C101 574 89 532 89 480 L89 354 C89 242 165 175 270 175 L276 175 L276 9 C276 4 280 0 285 0 L399 0 C404 0 407 4 407 9 L407 535 L466 535 L466 9 C466 4 470 0 475 0 L591 0 C596 0 600 4 600 9 L600 651 C600 656 596 660 591 660 L252 660 C195 660 152 637 125 604 L125 604 Z " />
<glyph glyph-name="periodcentered" unicode="&#xb7;" horiz-adv-x="329" d="M146 257 C195 257 236 297 236 346 C236 395 195 433 146 433 C99 433 59 395 59 346 C59 297 99 257 146 257 L146 257 Z " />
<glyph glyph-name="cedilla" unicode="&#xb8;" horiz-adv-x="330" d="M189 -15 L180 -15 L180 21 C180 26 176 30 171 30 L99 30 C94 30 89 26 89 21 L89 -25 C89 -59 91 -79 102 -91 C111 -103 129 -105 156 -105 L161 -105 C172 -105 176 -108 176 -115 C176 -130 159 -129 130 -129 C122 -129 109 -128 109 -136 L109 -209 C109 -214 112 -219 119 -219 L169 -219 C234 -219 267 -185 267 -123 L267 -104 C267 -75 265 -53 254 -38 C239 -16 211 -15 189 -15 L189 -15 Z " />
<glyph glyph-name="onesuperior" unicode="&#xb9;" horiz-adv-x="186" d="M81 747 L45 696 C45 695 44 695 44 693 L44 637 C44 633 49 632 52 634 L83 667 L83 424 C83 422 85 420 87 420 L144 420 C147 420 148 422 148 424 L148 745 C148 747 147 749 144 749 L86 749 C85 749 83 749 81 747 L81 747 Z " />
<glyph glyph-name="ordmasculine" unicode="&#xba;" horiz-adv-x="352" d="M291 631 C287 696 251 724 191 724 C127 724 89 694 89 631 L89 605 C92 539 131 512 191 512 C254 512 291 544 291 605 L291 631 L291 631 Z M224 619 C224 604 220 582 194 582 L187 582 C166 584 157 600 157 619 C157 634 161 654 187 654 L194 654 C216 652 224 637 224 619 L224 619 Z " />
<glyph glyph-name="guillemotright" unicode="&#xbb;" horiz-adv-x="660" d="M357 295 L357 366 C357 370 355 371 354 372 L104 536 C97 541 89 537 89 529 L89 415 C89 411 92 409 95 407 L262 330 L95 252 C91 251 89 249 89 246 L89 131 C89 122 99 120 104 124 L354 287 C356 289 357 292 357 295 L357 295 Z M335 252 C332 251 330 249 330 246 L330 131 C330 122 339 121 342 124 L594 287 C597 290 599 292 599 295 L599 365 C599 369 596 371 594 372 L342 536 C337 540 330 534 330 529 L330 415 C330 412 330 411 332 410 L504 330 L335 252 Z " />
<glyph glyph-name="onequarter" unicode="&#xbc;" horiz-adv-x="1045" d="M676 651 C678 657 675 664 668 664 L553 664 C551 664 548 664 546 657 L301 -3 C298 -9 302 -14 307 -14 L423 -14 C426 -14 431 -13 432 -9 L676 651 Z M121 656 L67 580 C67 579 67 578 67 576 L67 492 C67 486 74 484 78 488 L124 537 L124 173 C124 169 127 166 131 166 L217 166 C220 166 223 169 223 173 L223 653 C223 657 220 660 217 660 L129 660 C127 660 124 660 121 656 L121 656 Z M934 495 L845 495 C843 495 841 494 840 492 L658 229 C656 226 656 225 656 221 L656 139 C656 136 658 133 662 133 L842 133 L842 7 C842 3 845 0 848 0 L934 0 C938 0 941 3 941 7 L941 133 L993 133 C997 133 999 136 999 139 L999 220 C999 224 997 226 993 226 L941 226 L941 488 C941 492 938 495 934 495 L934 495 Z M842 226 L768 226 L842 340 L842 226 L842 226 Z " />
<glyph glyph-name="onehalf" unicode="&#xbd;" horiz-adv-x="1085" d="M676 651 C678 657 675 664 668 664 L553 664 C551 664 548 664 546 657 L301 -3 C298 -9 302 -14 307 -14 L423 -14 C426 -14 431 -13 432 -9 L676 651 Z M121 656 L67 580 C67 579 67 578 67 576 L67 492 C67 486 74 484 78 488 L124 537 L124 173 C124 169 127 166 131 166 L217 166 C220 166 223 169 223 173 L223 653 C223 657 220 660 217 660 L129 660 C127 660 124 660 121 656 L121 656 Z M943 187 C1010 233 1043 286 1040 348 C1036 394 1018 433 988 460 C957 487 917 502 871 502 C794 502 713 453 713 370 C713 364 714 364 716 363 L803 311 C807 308 812 311 812 316 L812 330 C812 368 836 401 872 401 C894 401 913 390 924 373 C956 326 893 292 863 275 C790 234 716 183 716 91 L716 7 C716 4 719 0 722 0 L1014 0 C1018 0 1021 3 1021 7 L1021 93 C1021 97 1018 99 1014 99 L831 99 C835 135 915 168 943 187 L943 187 Z " />
<glyph glyph-name="threequarters" unicode="&#xbe;" horiz-adv-x="1134" d="M769 651 C771 657 768 664 761 664 L646 664 C644 664 641 664 639 657 L394 -3 C391 -9 395 -14 400 -14 L516 -14 C519 -14 524 -13 525 -9 L769 651 Z M217 668 C154 668 82 635 67 572 C67 569 67 567 69 565 L135 515 C139 512 142 514 144 518 C155 544 179 568 209 568 C243 568 270 545 270 512 C270 484 239 461 206 461 L195 461 C191 461 188 458 188 455 L188 386 C188 383 192 379 196 379 C202 379 202 379 209 379 C250 379 270 341 270 314 C270 278 239 259 219 259 C194 259 174 265 142 309 C139 312 135 313 132 310 L69 263 C67 260 65 257 67 254 C100 193 154 158 217 158 C313 158 375 229 375 320 C375 355 363 391 339 414 C363 443 375 474 375 507 C375 602 307 668 217 668 L217 668 Z M1022 495 L933 495 C931 495 929 494 928 492 L746 229 C744 226 744 225 744 221 L744 139 C744 136 746 133 750 133 L930 133 L930 7 C930 3 933 0 936 0 L1022 0 C1026 0 1029 3 1029 7 L1029 133 L1081 133 C1085 133 1087 136 1087 139 L1087 220 C1087 224 1085 226 1081 226 L1029 226 L1029 488 C1029 492 1026 495 1022 495 L1022 495 Z M930 226 L856 226 L930 340 L930 226 L930 226 Z " />
<glyph glyph-name="questiondown" unicode="&#xbf;" horiz-adv-x="582" d="M313 303 C361 303 400 341 400 390 C400 439 361 479 313 479 C263 479 225 439 225 390 C225 341 263 303 313 303 L313 303 Z M275 -199 C380 -199 491 -112 481 -5 C481 -1 480 3 476 4 L363 61 C357 64 351 60 351 54 L351 29 C352 -20 321 -65 271 -65 C218 -65 190 -27 208 19 C226 60 291 93 325 119 C355 139 372 166 381 199 C387 223 386 238 386 259 C386 268 382 270 378 270 C353 270 281 270 256 270 C251 270 247 266 247 261 C247 238 245 226 233 213 C221 195 197 176 152 150 C116 128 90 103 73 75 C56 45 47 11 51 -24 C61 -140 177 -199 275 -199 L275 -199 Z " />
<glyph glyph-name="Agrave" unicode="&#xc0;" horiz-adv-x="576" d="M219 654 L46 11 C45 5 49 0 55 0 L170 0 C174 0 176 2 177 6 L215 146 L361 146 L400 6 C401 2 404 0 407 0 L521 0 C527 0 531 5 530 11 L357 654 C356 657 354 660 350 660 L226 660 C222 660 220 657 219 654 L219 654 Z M247 270 L287 421 L330 270 L247 270 Z M289 769 C291 766 293 764 297 764 L328 764 C334 764 338 767 337 774 L324 857 C323 862 321 866 316 866 L251 866 C244 866 241 859 243 854 L289 769 L289 769 Z " />
<glyph glyph-name="Aacute" unicode="&#xc1;" horiz-adv-x="576" d="M219 654 L46 11 C45 5 49 0 55 0 L170 0 C174 0 176 2 177 6 L215 146 L361 146 L400 6 C401 2 404 0 407 0 L521 0 C527 0 531 5 530 11 L357 654 C356 657 354 660 350 660 L226 660 C222 660 220 657 219 654 L219 654 Z M247 270 L287 421 L330 270 L247 270 Z M255 774 C254 767 260 764 264 764 L302 764 C305 764 309 765 312 771 L365 847 C371 856 366 861 357 861 L280 861 C275 861 272 859 271 855 L255 774 Z " />
<glyph glyph-name="Acircumflex" unicode="&#xc2;" horiz-adv-x="576" d="M219 654 L46 11 C45 5 49 0 55 0 L170 0 C174 0 176 2 177 6 L215 146 L361 146 L400 6 C401 2 404 0 407 0 L521 0 C527 0 531 5 530 11 L357 654 C356 657 354 660 350 660 L226 660 C222 660 220 657 219 654 L219 654 Z M247 270 L287 421 L330 270 L247 270 Z M151 750 L228 750 C231 750 233 751 234 753 L287 815 L323 755 C324 752 327 750 331 750 L411 750 C419 750 421 760 418 763 L352 860 C349 863 347 865 344 865 L238 865 C236 865 234 863 232 861 L144 765 C138 758 143 750 151 750 L151 750 Z " />
<glyph glyph-name="Atilde" unicode="&#xc3;" horiz-adv-x="576" d="M219 654 L46 11 C45 5 49 0 55 0 L170 0 C174 0 176 2 177 6 L215 146 L361 146 L400 6 C401 2 404 0 407 0 L521 0 C527 0 531 5 530 11 L357 654 C356 657 354 660 350 660 L226 660 C222 660 220 657 219 654 L219 654 Z M247 270 L287 421 L330 270 L247 270 Z M336 879 C295 876 273 837 256 837 C238 837 233 856 233 861 C233 866 230 869 225 869 L160 869 C153 869 150 864 150 859 C150 807 180 752 240 752 C281 752 298 791 320 791 C332 791 342 781 342 770 C342 765 346 762 351 762 L417 762 C423 762 426 767 426 772 C426 824 387 879 336 879 L336 879 Z " />
<glyph glyph-name="Adieresis" unicode="&#xc4;" horiz-adv-x="576" d="M219 654 L46 11 C45 5 49 0 55 0 L170 0 C174 0 176 2 177 6 L215 146 L361 146 L400 6 C401 2 404 0 407 0 L521 0 C527 0 531 5 530 11 L357 654 C356 657 354 660 350 660 L226 660 C222 660 220 657 219 654 L219 654 Z M247 270 L287 421 L330 270 L247 270 Z M184 811 C184 785 206 761 234 761 C260 761 281 785 281 811 C281 837 260 859 234 859 C206 859 184 837 184 811 L184 811 Z M346 761 C374 761 395 785 395 811 C395 837 374 859 346 859 C320 859 299 837 299 811 C299 785 320 761 346 761 L346 761 Z " />
<glyph glyph-name="Aring" unicode="&#xc5;" horiz-adv-x="577" d="M390 684 L390 710 C390 776 346 802 289 802 C224 802 190 769 190 710 L190 684 C190 655 199 630 210 616 L45 10 C44 5 47 0 54 0 L170 0 C174 0 176 2 177 6 L215 146 L362 146 L399 6 C400 2 404 0 407 0 L524 0 C529 0 532 5 531 10 L369 617 C386 634 390 662 390 684 L390 684 Z M286 732 L291 732 C314 732 321 716 321 699 C321 682 319 661 291 661 L286 661 C264 661 257 680 257 699 C257 712 260 732 286 732 L286 732 Z M249 271 L289 421 L330 271 L249 271 L249 271 Z " />
<glyph glyph-name="AE" unicode="&#xc6;" horiz-adv-x="866" d="M794 660 L375 660 C371 660 369 657 367 655 L100 11 C97 6 101 0 107 0 L222 0 C226 0 229 2 230 5 L289 146 L446 146 L446 9 C446 4 450 0 455 0 L794 0 C799 0 802 5 802 9 L802 116 C802 121 799 125 794 125 L579 125 L579 272 L745 272 C750 272 754 276 754 281 L754 390 C754 395 750 399 745 399 L579 399 L579 535 L794 535 C799 535 802 539 802 544 L802 652 C802 656 799 660 794 660 L794 660 Z M446 271 L340 271 L446 526 L446 271 L446 271 Z " />
<glyph glyph-name="Ccedilla" unicode="&#xc7;" horiz-adv-x="614" d="M415 437 L530 437 C535 437 539 441 539 446 L539 467 C539 620 452 674 311 674 C162 674 81 615 81 467 L81 204 C81 71 150 12 257 -1 L257 -38 C257 -71 259 -94 270 -105 C281 -118 299 -119 325 -119 C337 -119 345 -121 345 -130 C345 -141 315 -143 299 -143 L287 -143 C282 -143 277 -145 277 -151 L277 -224 C277 -226 281 -231 287 -231 L336 -231 C397 -231 435 -204 435 -135 L435 -118 C435 -89 435 -65 422 -51 C404 -30 377 -29 357 -29 L349 -29 L349 -4 C474 6 539 70 539 204 L539 267 C539 272 535 276 530 276 L416 276 C411 276 407 272 407 267 L407 236 C407 172 379 130 316 130 L304 130 C264 130 215 149 215 236 L215 434 C215 497 241 540 304 540 L316 540 C365 540 406 517 406 462 L406 446 C406 441 410 437 415 437 L415 437 Z " />
<glyph glyph-name="Egrave" unicode="&#xc8;" horiz-adv-x="526" d="M102 0 L442 0 C447 0 451 4 451 9 L451 116 C451 121 447 125 442 125 L226 125 L226 272 L394 272 C399 272 402 276 402 281 L402 390 C402 395 399 399 394 399 L226 399 L226 535 L442 535 C447 535 451 539 451 544 L451 651 C451 656 447 660 442 660 L102 660 C97 660 94 656 94 651 L94 9 C94 4 97 0 102 0 L102 0 Z M262 769 C264 766 266 764 270 764 L301 764 C307 764 311 767 310 774 L297 857 C296 862 294 866 289 866 L224 866 C217 866 214 859 216 854 L262 769 L262 769 Z " />
<glyph glyph-name="Eacute" unicode="&#xc9;" horiz-adv-x="526" d="M102 0 L442 0 C447 0 451 4 451 9 L451 116 C451 121 447 125 442 125 L226 125 L226 272 L394 272 C399 272 402 276 402 281 L402 390 C402 395 399 399 394 399 L226 399 L226 535 L442 535 C447 535 451 539 451 544 L451 651 C451 656 447 660 442 660 L102 660 C97 660 94 656 94 651 L94 9 C94 4 97 0 102 0 L102 0 Z M250 774 C249 767 255 764 259 764 L297 764 C300 764 304 765 307 771 L360 847 C366 856 361 861 352 861 L275 861 C270 861 267 859 266 855 L250 774 Z " />
<glyph glyph-name="Ecircumflex" unicode="&#xca;" horiz-adv-x="526" d="M102 0 L442 0 C447 0 451 4 451 9 L451 116 C451 121 447 125 442 125 L226 125 L226 272 L394 272 C399 272 402 276 402 281 L402 390 C402 395 399 399 394 399 L226 399 L226 535 L442 535 C447 535 451 539 451 544 L451 651 C451 656 447 660 442 660 L102 660 C97 660 94 656 94 651 L94 9 C94 4 97 0 102 0 L102 0 Z M133 750 L210 750 C213 750 215 751 216 753 L269 815 L305 755 C306 752 309 750 313 750 L393 750 C401 750 403 760 400 763 L334 860 C331 863 329 865 326 865 L220 865 C218 865 216 863 214 861 L126 765 C120 758 125 750 133 750 L133 750 Z " />
<glyph glyph-name="Edieresis" unicode="&#xcb;" horiz-adv-x="526" d="M102 0 L442 0 C447 0 451 4 451 9 L451 116 C451 121 447 125 442 125 L226 125 L226 272 L394 272 C399 272 402 276 402 281 L402 390 C402 395 399 399 394 399 L226 399 L226 535 L442 535 C447 535 451 539 451 544 L451 651 C451 656 447 660 442 660 L102 660 C97 660 94 656 94 651 L94 9 C94 4 97 0 102 0 L102 0 Z M178 811 C178 785 200 761 228 761 C254 761 275 785 275 811 C275 837 254 859 228 859 C200 859 178 837 178 811 L178 811 Z M340 761 C368 761 389 785 389 811 C389 837 368 859 340 859 C314 859 293 837 293 811 C293 785 314 761 340 761 L340 761 Z " />
<glyph glyph-name="Igrave" unicode="&#xcc;" horiz-adv-x="315" d="M102 0 L216 0 C221 0 225 4 225 9 L225 651 C225 656 221 660 216 660 L102 660 C97 660 94 656 94 651 L94 9 C94 4 97 0 102 0 L102 0 Z M146 769 C148 766 150 764 154 764 L185 764 C191 764 195 767 194 774 L181 857 C180 862 178 866 173 866 L108 866 C101 866 98 859 100 854 L146 769 L146 769 Z " />
<glyph glyph-name="Iacute" unicode="&#xcd;" horiz-adv-x="315" d="M102 0 L216 0 C221 0 225 4 225 9 L225 651 C225 656 221 660 216 660 L102 660 C97 660 94 656 94 651 L94 9 C94 4 97 0 102 0 L102 0 Z M134 774 C133 767 139 764 143 764 L181 764 C184 764 188 765 191 771 L244 847 C250 856 245 861 236 861 L159 861 C154 861 151 859 150 855 L134 774 Z " />
<glyph glyph-name="Icircumflex" unicode="&#xce;" horiz-adv-x="315" d="M102 0 L216 0 C221 0 225 4 225 9 L225 651 C225 656 221 660 216 660 L102 660 C97 660 94 656 94 651 L94 9 C94 4 97 0 102 0 L102 0 Z M31 750 L108 750 C111 750 113 751 114 753 L167 815 L203 755 C204 752 207 750 211 750 L291 750 C299 750 301 760 298 763 L232 860 C229 863 227 865 224 865 L118 865 C116 865 114 863 112 861 L24 765 C18 758 23 750 31 750 L31 750 Z " />
<glyph glyph-name="Idieresis" unicode="&#xcf;" horiz-adv-x="315" d="M102 0 L216 0 C221 0 225 4 225 9 L225 651 C225 656 221 660 216 660 L102 660 C97 660 94 656 94 651 L94 9 C94 4 97 0 102 0 L102 0 Z M61 811 C61 785 83 761 111 761 C137 761 158 785 158 811 C158 837 137 859 111 859 C83 859 61 837 61 811 L61 811 Z M223 761 C251 761 272 785 272 811 C272 837 251 859 223 859 C197 859 176 837 176 811 C176 785 197 761 223 761 L223 761 Z " />
<glyph glyph-name="Eth" unicode="&#xd0;" horiz-adv-x="682" d="M402 660 L152 660 C147 660 144 656 144 651 L144 390 L102 390 C99 390 94 385 94 380 L94 294 C94 289 100 285 102 285 L144 285 L144 9 C144 4 147 0 152 0 L402 0 C530 0 601 76 601 197 L601 462 C601 592 524 660 402 660 L402 660 Z M467 227 C467 164 426 125 367 125 L276 125 L276 285 L387 285 C392 285 395 289 395 294 L395 380 C395 386 391 390 387 390 L276 390 L276 535 L367 535 C436 535 467 494 467 432 L467 227 L467 227 Z " />
<glyph glyph-name="Ntilde" unicode="&#xd1;" horiz-adv-x="596" d="M361 651 L361 332 L221 655 C220 657 218 660 214 660 L96 660 C91 660 88 656 88 651 L88 9 C88 4 91 0 96 0 L210 0 C215 0 219 4 219 9 L219 334 L365 5 C366 2 370 0 374 0 L485 0 C490 0 494 4 494 9 L494 651 C494 656 490 660 485 660 L370 660 C365 660 361 656 361 651 L361 651 Z M341 890 C300 887 278 848 261 848 C243 848 238 867 238 872 C238 877 235 880 230 880 L165 880 C158 880 155 875 155 870 C155 818 185 763 245 763 C286 763 303 802 325 802 C337 802 347 792 347 781 C347 776 351 773 356 773 L422 773 C428 773 431 778 431 783 C431 835 392 890 341 890 L341 890 Z " />
<glyph glyph-name="Ograve" unicode="&#xd2;" horiz-adv-x="620" d="M311 669 C224 669 164 651 126 610 C96 577 81 529 81 462 L81 199 C81 130 97 82 126 50 C164 10 222 -10 311 -10 C397 -10 456 10 495 50 C525 82 539 130 539 199 L539 462 C539 529 525 576 495 609 C457 650 397 669 311 669 L311 669 Z M406 229 C405 165 380 122 316 122 L304 122 C262 122 215 141 215 229 L215 429 C215 494 240 535 304 535 L316 535 C359 535 406 517 406 429 L406 229 L406 229 Z M301 769 C303 766 305 764 309 764 L340 764 C346 764 350 767 349 774 L336 857 C335 862 333 866 328 866 L263 866 C256 866 253 859 255 854 L301 769 L301 769 Z " />
<glyph glyph-name="Oacute" unicode="&#xd3;" horiz-adv-x="620" d="M311 669 C224 669 164 651 126 610 C96 577 81 529 81 462 L81 199 C81 130 97 82 126 50 C164 10 222 -10 311 -10 C397 -10 456 10 495 50 C525 82 539 130 539 199 L539 462 C539 529 525 576 495 609 C457 650 397 669 311 669 L311 669 Z M406 229 C405 165 380 122 316 122 L304 122 C262 122 215 141 215 229 L215 429 C215 494 240 535 304 535 L316 535 C359 535 406 517 406 429 L406 229 L406 229 Z M290 774 C289 767 295 764 299 764 L337 764 C340 764 344 765 347 771 L400 847 C406 856 401 861 392 861 L315 861 C310 861 307 859 306 855 L290 774 Z " />
<glyph glyph-name="Ocircumflex" unicode="&#xd4;" horiz-adv-x="620" d="M180 750 L257 750 C260 750 262 751 263 753 L316 815 L352 755 C353 752 356 750 360 750 L440 750 C448 750 450 760 447 763 L381 860 C378 863 376 865 373 865 L267 865 C265 865 263 863 261 861 L173 765 C167 758 172 750 180 750 L180 750 Z M311 669 C224 669 164 651 126 610 C96 577 81 529 81 462 L81 199 C81 130 97 82 126 50 C164 10 222 -10 311 -10 C397 -10 456 10 495 50 C525 82 539 130 539 199 L539 462 C539 529 525 576 495 609 C457 650 397 669 311 669 L311 669 Z M406 229 C405 165 380 122 316 122 L304 122 C262 122 215 141 215 229 L215 429 C215 494 240 535 304 535 L316 535 C359 535 406 517 406 429 L406 229 L406 229 Z " />
<glyph glyph-name="Otilde" unicode="&#xd5;" horiz-adv-x="620" d="M311 669 C224 669 164 651 126 610 C96 577 81 529 81 462 L81 199 C81 130 97 82 126 50 C164 10 222 -10 311 -10 C397 -10 456 10 495 50 C525 82 539 130 539 199 L539 462 C539 529 525 576 495 609 C457 650 397 669 311 669 L311 669 Z M406 229 C405 165 380 122 316 122 L304 122 C262 122 215 141 215 229 L215 429 C215 494 240 535 304 535 L316 535 C359 535 406 517 406 429 L406 229 L406 229 Z M370 890 C329 887 307 848 290 848 C272 848 267 867 267 872 C267 877 264 880 259 880 L194 880 C187 880 184 875 184 870 C184 818 214 763 274 763 C315 763 332 802 354 802 C366 802 376 792 376 781 C376 776 380 773 385 773 L451 773 C457 773 460 778 460 783 C460 835 421 890 370 890 L370 890 Z " />
<glyph glyph-name="Odieresis" unicode="&#xd6;" horiz-adv-x="620" d="M311 669 C224 669 164 651 126 610 C96 577 81 529 81 462 L81 199 C81 130 97 82 126 50 C164 10 222 -10 311 -10 C397 -10 456 10 495 50 C525 82 539 130 539 199 L539 462 C539 529 525 576 495 609 C457 650 397 669 311 669 L311 669 Z M406 229 C405 165 380 122 316 122 L304 122 C262 122 215 141 215 229 L215 429 C215 494 240 535 304 535 L316 535 C359 535 406 517 406 429 L406 229 L406 229 Z M216 822 C216 796 238 772 266 772 C292 772 313 796 313 822 C313 848 292 870 266 870 C238 870 216 848 216 822 L216 822 Z M378 772 C406 772 427 796 427 822 C427 848 406 870 378 870 C352 870 331 848 331 822 C331 796 352 772 378 772 L378 772 Z " />
<glyph glyph-name="multiply" unicode="&#xd7;" horiz-adv-x="390" d="M147 465 C142 470 137 469 134 465 L74 405 C70 401 70 395 74 391 L120 345 L72 297 C69 294 69 289 72 285 L135 221 C140 216 145 217 149 221 L196 270 L242 224 C247 219 251 220 255 224 L316 284 C320 287 319 294 316 296 L270 344 L317 391 C321 395 321 399 317 402 L254 466 C250 470 245 470 241 466 L194 419 L147 465 Z " />
<glyph glyph-name="Oslash" unicode="&#xd8;" horiz-adv-x="620" d="M270 -8 C282 -9 296 -10 311 -10 C460 -10 539 56 539 199 L539 462 C539 539 520 592 477 625 L499 686 C501 692 496 699 490 699 L377 699 C372 699 369 695 367 691 L359 667 C345 669 327 670 311 670 C164 670 81 607 81 462 L81 199 C81 134 99 66 150 30 L121 -55 C120 -60 125 -66 131 -66 L244 -66 C249 -66 251 -64 252 -60 L270 -8 Z M314 126 L406 409 L406 231 C406 166 377 126 314 126 L314 126 Z M215 337 L215 430 C215 462 220 489 234 507 C249 526 271 536 304 536 L316 536 L215 225 C215 226 215 229 215 231 L215 337 Z " />
<glyph glyph-name="Ugrave" unicode="&#xd9;" horiz-adv-x="630" d="M412 231 C412 167 384 125 322 125 L310 125 C269 125 220 144 220 231 L220 651 C220 656 216 660 211 660 L96 660 C91 660 87 656 87 651 L87 199 C87 46 175 -10 316 -10 C465 -10 544 55 544 199 L544 651 C544 656 540 660 535 660 L421 660 C416 660 412 656 412 651 L412 231 L412 231 Z M296 769 C298 766 300 764 304 764 L335 764 C341 764 345 767 344 774 L331 857 C330 862 328 866 323 866 L258 866 C251 866 248 859 250 854 L296 769 L296 769 Z " />
<glyph glyph-name="Uacute" unicode="&#xda;" horiz-adv-x="630" d="M412 231 C412 167 384 125 322 125 L310 125 C269 125 220 144 220 231 L220 651 C220 656 216 660 211 660 L96 660 C91 660 87 656 87 651 L87 199 C87 46 175 -10 316 -10 C465 -10 544 55 544 199 L544 651 C544 656 540 660 535 660 L421 660 C416 660 412 656 412 651 L412 231 L412 231 Z M282 774 C281 767 287 764 291 764 L329 764 C332 764 336 765 339 771 L392 847 C398 856 393 861 384 861 L307 861 C302 861 299 859 298 855 L282 774 Z " />
<glyph glyph-name="Ucircumflex" unicode="&#xdb;" horiz-adv-x="630" d="M412 231 C412 167 384 125 322 125 L310 125 C269 125 220 144 220 231 L220 651 C220 656 216 660 211 660 L96 660 C91 660 87 656 87 651 L87 199 C87 46 175 -10 316 -10 C465 -10 544 55 544 199 L544 651 C544 656 540 660 535 660 L421 660 C416 660 412 656 412 651 L412 231 L412 231 Z M185 750 L262 750 C265 750 267 751 268 753 L321 815 L357 755 C358 752 361 750 365 750 L445 750 C453 750 455 760 452 763 L386 860 C383 863 381 865 378 865 L272 865 C270 865 268 863 266 861 L178 765 C172 758 177 750 185 750 L185 750 Z " />
<glyph glyph-name="Udieresis" unicode="&#xdc;" horiz-adv-x="630" d="M412 231 C412 167 384 125 322 125 L310 125 C269 125 220 144 220 231 L220 651 C220 656 216 660 211 660 L96 660 C91 660 87 656 87 651 L87 199 C87 46 175 -10 316 -10 C465 -10 544 55 544 199 L544 651 C544 656 540 660 535 660 L421 660 C416 660 412 656 412 651 L412 231 L412 231 Z M211 811 C211 785 233 761 261 761 C287 761 308 785 308 811 C308 837 287 859 261 859 C233 859 211 837 211 811 L211 811 Z M373 761 C401 761 422 785 422 811 C422 837 401 859 373 859 C347 859 326 837 326 811 C326 785 347 761 373 761 L373 761 Z " />
<glyph glyph-name="Yacute" unicode="&#xdd;" horiz-adv-x="511" d="M256 487 L169 655 C166 660 165 660 161 660 L49 660 C42 660 39 654 41 647 L190 312 L190 9 C190 4 194 0 197 0 L315 0 C320 0 324 4 324 9 L324 312 L469 649 C471 654 467 660 461 660 L349 660 C345 660 344 660 341 655 L256 487 L256 487 Z M222 774 C221 767 227 764 231 764 L269 764 C272 764 276 765 279 771 L332 847 C338 856 333 861 324 861 L247 861 C242 861 239 859 238 855 L222 774 Z " />
<glyph glyph-name="Thorn" unicode="&#xde;" horiz-adv-x="554" d="M309 602 L239 602 L239 651 C239 656 235 660 230 660 L115 660 C110 660 106 656 106 651 L106 9 C106 4 110 0 115 0 L230 0 C235 0 239 4 239 9 L239 115 L309 115 C421 115 487 190 487 296 L487 421 C487 537 421 602 309 602 L309 602 Z M356 325 C356 257 310 240 254 240 L239 240 L239 476 L254 476 C321 476 356 456 356 391 L356 325 L356 325 Z " />
<glyph glyph-name="germandbls" unicode="&#xdf;" horiz-adv-x="607" d="M450 345 C435 354 427 360 427 367 C427 372 431 380 440 387 C459 404 485 426 485 501 C485 619 374 659 276 659 L116 659 C111 659 107 655 107 650 L107 7 C107 2 111 -1 116 -1 L230 -1 C236 -1 239 4 239 7 L239 529 L284 529 C316 529 352 517 355 484 C357 452 340 429 311 421 C274 411 257 375 261 340 C267 309 280 282 311 280 C366 275 397 254 397 200 C397 152 369 131 326 131 C320 131 310 132 302 132 C297 132 294 129 294 124 L294 6 C294 2 294 -1 300 -3 C331 -8 355 -10 377 -10 C507 -10 552 80 542 195 C537 262 504 312 450 345 L450 345 Z " />
<glyph glyph-name="agrave" unicode="&#xe0;" horiz-adv-x="576" d="M219 654 L46 11 C45 5 49 0 55 0 L170 0 C174 0 176 2 177 6 L215 146 L361 146 L400 6 C401 2 404 0 407 0 L521 0 C527 0 531 5 530 11 L357 654 C356 657 354 660 350 660 L226 660 C222 660 220 657 219 654 L219 654 Z M247 270 L287 421 L330 270 L247 270 Z M289 769 C291 766 293 764 297 764 L328 764 C334 764 338 767 337 774 L324 857 C323 862 321 866 316 866 L251 866 C244 866 241 859 243 854 L289 769 L289 769 Z " />
<glyph glyph-name="aacute" unicode="&#xe1;" horiz-adv-x="576" d="M219 654 L46 11 C45 5 49 0 55 0 L170 0 C174 0 176 2 177 6 L215 146 L361 146 L400 6 C401 2 404 0 407 0 L521 0 C527 0 531 5 530 11 L357 654 C356 657 354 660 350 660 L226 660 C222 660 220 657 219 654 L219 654 Z M247 270 L287 421 L330 270 L247 270 Z M255 774 C254 767 260 764 264 764 L302 764 C305 764 309 765 312 771 L365 847 C371 856 366 861 357 861 L280 861 C275 861 272 859 271 855 L255 774 Z " />
<glyph glyph-name="acircumflex" unicode="&#xe2;" horiz-adv-x="576" d="M219 654 L46 11 C45 5 49 0 55 0 L170 0 C174 0 176 2 177 6 L215 146 L361 146 L400 6 C401 2 404 0 407 0 L521 0 C527 0 531 5 530 11 L357 654 C356 657 354 660 350 660 L226 660 C222 660 220 657 219 654 L219 654 Z M247 270 L287 421 L330 270 L247 270 Z M151 750 L228 750 C231 750 233 751 234 753 L287 815 L323 755 C324 752 327 750 331 750 L411 750 C419 750 421 760 418 763 L352 860 C349 863 347 865 344 865 L238 865 C236 865 234 863 232 861 L144 765 C138 758 143 750 151 750 L151 750 Z " />
<glyph glyph-name="atilde" unicode="&#xe3;" horiz-adv-x="576" d="M219 654 L46 11 C45 5 49 0 55 0 L170 0 C174 0 176 2 177 6 L215 146 L361 146 L400 6 C401 2 404 0 407 0 L521 0 C527 0 531 5 530 11 L357 654 C356 657 354 660 350 660 L226 660 C222 660 220 657 219 654 L219 654 Z M247 270 L287 421 L330 270 L247 270 Z M336 879 C295 876 273 837 256 837 C238 837 233 856 233 861 C233 866 230 869 225 869 L160 869 C153 869 150 864 150 859 C150 807 180 752 240 752 C281 752 298 791 320 791 C332 791 342 781 342 770 C342 765 346 762 351 762 L417 762 C423 762 426 767 426 772 C426 824 387 879 336 879 L336 879 Z " />
<glyph glyph-name="adieresis" unicode="&#xe4;" horiz-adv-x="576" d="M219 654 L46 11 C45 5 49 0 55 0 L170 0 C174 0 176 2 177 6 L215 146 L361 146 L400 6 C401 2 404 0 407 0 L521 0 C527 0 531 5 530 11 L357 654 C356 657 354 660 350 660 L226 660 C222 660 220 657 219 654 L219 654 Z M247 270 L287 421 L330 270 L247 270 Z M184 811 C184 785 206 761 234 761 C260 761 281 785 281 811 C281 837 260 859 234 859 C206 859 184 837 184 811 L184 811 Z M346 761 C374 761 395 785 395 811 C395 837 374 859 346 859 C320 859 299 837 299 811 C299 785 320 761 346 761 L346 761 Z " />
<glyph glyph-name="aring" unicode="&#xe5;" horiz-adv-x="577" d="M390 684 L390 710 C390 776 346 802 289 802 C224 802 190 769 190 710 L190 684 C190 655 199 630 210 616 L45 10 C44 5 47 0 54 0 L170 0 C174 0 176 2 177 6 L215 146 L362 146 L399 6 C400 2 404 0 407 0 L524 0 C529 0 532 5 531 10 L369 617 C386 634 390 662 390 684 L390 684 Z M286 732 L291 732 C314 732 321 716 321 699 C321 682 319 661 291 661 L286 661 C264 661 257 680 257 699 C257 712 260 732 286 732 L286 732 Z M249 271 L289 421 L330 271 L249 271 L249 271 Z " />
<glyph glyph-name="ae" unicode="&#xe6;" horiz-adv-x="866" d="M794 660 L375 660 C371 660 369 657 367 655 L100 11 C97 6 101 0 107 0 L222 0 C226 0 229 2 230 5 L289 146 L446 146 L446 9 C446 4 450 0 455 0 L794 0 C799 0 802 5 802 9 L802 116 C802 121 799 125 794 125 L579 125 L579 272 L745 272 C750 272 754 276 754 281 L754 390 C754 395 750 399 745 399 L579 399 L579 535 L794 535 C799 535 802 539 802 544 L802 652 C802 656 799 660 794 660 L794 660 Z M446 271 L340 271 L446 526 L446 271 L446 271 Z " />
<glyph glyph-name="ccedilla" unicode="&#xe7;" horiz-adv-x="614" d="M415 437 L530 437 C535 437 539 441 539 446 L539 467 C539 620 452 674 311 674 C162 674 81 615 81 467 L81 204 C81 71 150 12 257 -1 L257 -38 C257 -71 259 -94 270 -105 C281 -118 299 -119 325 -119 C337 -119 345 -121 345 -130 C345 -141 315 -143 299 -143 L287 -143 C282 -143 277 -145 277 -151 L277 -224 C277 -226 281 -231 287 -231 L336 -231 C397 -231 435 -204 435 -135 L435 -118 C435 -89 435 -65 422 -51 C404 -30 377 -29 357 -29 L349 -29 L349 -4 C474 6 539 70 539 204 L539 267 C539 272 535 276 530 276 L416 276 C411 276 407 272 407 267 L407 236 C407 172 379 130 316 130 L304 130 C264 130 215 149 215 236 L215 434 C215 497 241 540 304 540 L316 540 C365 540 406 517 406 462 L406 446 C406 441 410 437 415 437 L415 437 Z " />
<glyph glyph-name="egrave" unicode="&#xe8;" horiz-adv-x="526" d="M102 0 L442 0 C447 0 451 4 451 9 L451 116 C451 121 447 125 442 125 L226 125 L226 272 L394 272 C399 272 402 276 402 281 L402 390 C402 395 399 399 394 399 L226 399 L226 535 L442 535 C447 535 451 539 451 544 L451 651 C451 656 447 660 442 660 L102 660 C97 660 94 656 94 651 L94 9 C94 4 97 0 102 0 L102 0 Z M262 769 C264 766 266 764 270 764 L301 764 C307 764 311 767 310 774 L297 857 C296 862 294 866 289 866 L224 866 C217 866 214 859 216 854 L262 769 L262 769 Z " />
<glyph glyph-name="eacute" unicode="&#xe9;" horiz-adv-x="526" d="M102 0 L442 0 C447 0 451 4 451 9 L451 116 C451 121 447 125 442 125 L226 125 L226 272 L394 272 C399 272 402 276 402 281 L402 390 C402 395 399 399 394 399 L226 399 L226 535 L442 535 C447 535 451 539 451 544 L451 651 C451 656 447 660 442 660 L102 660 C97 660 94 656 94 651 L94 9 C94 4 97 0 102 0 L102 0 Z M250 774 C249 767 255 764 259 764 L297 764 C300 764 304 765 307 771 L360 847 C366 856 361 861 352 861 L275 861 C270 861 267 859 266 855 L250 774 Z " />
<glyph glyph-name="ecircumflex" unicode="&#xea;" horiz-adv-x="526" d="M102 0 L442 0 C447 0 451 4 451 9 L451 116 C451 121 447 125 442 125 L226 125 L226 272 L394 272 C399 272 402 276 402 281 L402 390 C402 395 399 399 394 399 L226 399 L226 535 L442 535 C447 535 451 539 451 544 L451 651 C451 656 447 660 442 660 L102 660 C97 660 94 656 94 651 L94 9 C94 4 97 0 102 0 L102 0 Z M133 750 L210 750 C213 750 215 751 216 753 L269 815 L305 755 C306 752 309 750 313 750 L393 750 C401 750 403 760 400 763 L334 860 C331 863 329 865 326 865 L220 865 C218 865 216 863 214 861 L126 765 C120 758 125 750 133 750 L133 750 Z " />
<glyph glyph-name="edieresis" unicode="&#xeb;" horiz-adv-x="526" d="M102 0 L442 0 C447 0 451 4 451 9 L451 116 C451 121 447 125 442 125 L226 125 L226 272 L394 272 C399 272 402 276 402 281 L402 390 C402 395 399 399 394 399 L226 399 L226 535 L442 535 C447 535 451 539 451 544 L451 651 C451 656 447 660 442 660 L102 660 C97 660 94 656 94 651 L94 9 C94 4 97 0 102 0 L102 0 Z M178 811 C178 785 200 761 228 761 C254 761 275 785 275 811 C275 837 254 859 228 859 C200 859 178 837 178 811 L178 811 Z M340 761 C368 761 389 785 389 811 C389 837 368 859 340 859 C314 859 293 837 293 811 C293 785 314 761 340 761 L340 761 Z " />
<glyph glyph-name="igrave" unicode="&#xec;" horiz-adv-x="315" d="M102 0 L216 0 C221 0 225 4 225 9 L225 651 C225 656 221 660 216 660 L102 660 C97 660 94 656 94 651 L94 9 C94 4 97 0 102 0 L102 0 Z M146 769 C148 766 150 764 154 764 L185 764 C191 764 195 767 194 774 L181 857 C180 862 178 866 173 866 L108 866 C101 866 98 859 100 854 L146 769 L146 769 Z " />
<glyph glyph-name="iacute" unicode="&#xed;" horiz-adv-x="315" d="M102 0 L216 0 C221 0 225 4 225 9 L225 651 C225 656 221 660 216 660 L102 660 C97 660 94 656 94 651 L94 9 C94 4 97 0 102 0 L102 0 Z M134 774 C133 767 139 764 143 764 L181 764 C184 764 188 765 191 771 L244 847 C250 856 245 861 236 861 L159 861 C154 861 151 859 150 855 L134 774 Z " />
<glyph glyph-name="icircumflex" unicode="&#xee;" horiz-adv-x="315" d="M102 0 L216 0 C221 0 225 4 225 9 L225 651 C225 656 221 660 216 660 L102 660 C97 660 94 656 94 651 L94 9 C94 4 97 0 102 0 L102 0 Z M31 750 L108 750 C111 750 113 751 114 753 L167 815 L203 755 C204 752 207 750 211 750 L291 750 C299 750 301 760 298 763 L232 860 C229 863 227 865 224 865 L118 865 C116 865 114 863 112 861 L24 765 C18 758 23 750 31 750 L31 750 Z " />
<glyph glyph-name="idieresis" unicode="&#xef;" horiz-adv-x="315" d="M102 0 L216 0 C221 0 225 4 225 9 L225 651 C225 656 221 660 216 660 L102 660 C97 660 94 656 94 651 L94 9 C94 4 97 0 102 0 L102 0 Z M61 811 C61 785 83 761 111 761 C137 761 158 785 158 811 C158 837 137 859 111 859 C83 859 61 837 61 811 L61 811 Z M223 761 C251 761 272 785 272 811 C272 837 251 859 223 859 C197 859 176 837 176 811 C176 785 197 761 223 761 L223 761 Z " />
<glyph glyph-name="eth" unicode="&#xf0;" horiz-adv-x="682" d="M402 660 L152 660 C147 660 144 656 144 651 L144 390 L102 390 C99 390 94 385 94 380 L94 294 C94 289 100 285 102 285 L144 285 L144 9 C144 4 147 0 152 0 L402 0 C530 0 601 76 601 197 L601 462 C601 592 524 660 402 660 L402 660 Z M467 227 C467 164 426 125 367 125 L276 125 L276 285 L387 285 C392 285 395 289 395 294 L395 380 C395 386 391 390 387 390 L276 390 L276 535 L367 535 C436 535 467 494 467 432 L467 227 L467 227 Z " />
<glyph glyph-name="ntilde" unicode="&#xf1;" horiz-adv-x="596" d="M361 651 L361 332 L221 655 C220 657 218 660 214 660 L96 660 C91 660 88 656 88 651 L88 9 C88 4 91 0 96 0 L210 0 C215 0 219 4 219 9 L219 334 L365 5 C366 2 370 0 374 0 L485 0 C490 0 494 4 494 9 L494 651 C494 656 490 660 485 660 L370 660 C365 660 361 656 361 651 L361 651 Z M341 890 C300 887 278 848 261 848 C243 848 238 867 238 872 C238 877 235 880 230 880 L165 880 C158 880 155 875 155 870 C155 818 185 763 245 763 C286 763 303 802 325 802 C337 802 347 792 347 781 C347 776 351 773 356 773 L422 773 C428 773 431 778 431 783 C431 835 392 890 341 890 L341 890 Z " />
<glyph glyph-name="ograve" unicode="&#xf2;" horiz-adv-x="620" d="M311 669 C224 669 164 651 126 610 C96 577 81 529 81 462 L81 199 C81 130 97 82 126 50 C164 10 222 -10 311 -10 C397 -10 456 10 495 50 C525 82 539 130 539 199 L539 462 C539 529 525 576 495 609 C457 650 397 669 311 669 L311 669 Z M406 229 C405 165 380 122 316 122 L304 122 C262 122 215 141 215 229 L215 429 C215 494 240 535 304 535 L316 535 C359 535 406 517 406 429 L406 229 L406 229 Z M301 769 C303 766 305 764 309 764 L340 764 C346 764 350 767 349 774 L336 857 C335 862 333 866 328 866 L263 866 C256 866 253 859 255 854 L301 769 L301 769 Z " />
<glyph glyph-name="oacute" unicode="&#xf3;" horiz-adv-x="620" d="M311 669 C224 669 164 651 126 610 C96 577 81 529 81 462 L81 199 C81 130 97 82 126 50 C164 10 222 -10 311 -10 C397 -10 456 10 495 50 C525 82 539 130 539 199 L539 462 C539 529 525 576 495 609 C457 650 397 669 311 669 L311 669 Z M406 229 C405 165 380 122 316 122 L304 122 C262 122 215 141 215 229 L215 429 C215 494 240 535 304 535 L316 535 C359 535 406 517 406 429 L406 229 L406 229 Z M290 774 C289 767 295 764 299 764 L337 764 C340 764 344 765 347 771 L400 847 C406 856 401 861 392 861 L315 861 C310 861 307 859 306 855 L290 774 Z " />
<glyph glyph-name="ocircumflex" unicode="&#xf4;" horiz-adv-x="620" d="M180 750 L257 750 C260 750 262 751 263 753 L316 815 L352 755 C353 752 356 750 360 750 L440 750 C448 750 450 760 447 763 L381 860 C378 863 376 865 373 865 L267 865 C265 865 263 863 261 861 L173 765 C167 758 172 750 180 750 L180 750 Z M311 669 C224 669 164 651 126 610 C96 577 81 529 81 462 L81 199 C81 130 97 82 126 50 C164 10 222 -10 311 -10 C397 -10 456 10 495 50 C525 82 539 130 539 199 L539 462 C539 529 525 576 495 609 C457 650 397 669 311 669 L311 669 Z M406 229 C405 165 380 122 316 122 L304 122 C262 122 215 141 215 229 L215 429 C215 494 240 535 304 535 L316 535 C359 535 406 517 406 429 L406 229 L406 229 Z " />
<glyph glyph-name="otilde" unicode="&#xf5;" horiz-adv-x="620" d="M311 669 C224 669 164 651 126 610 C96 577 81 529 81 462 L81 199 C81 130 97 82 126 50 C164 10 222 -10 311 -10 C397 -10 456 10 495 50 C525 82 539 130 539 199 L539 462 C539 529 525 576 495 609 C457 650 397 669 311 669 L311 669 Z M406 229 C405 165 380 122 316 122 L304 122 C262 122 215 141 215 229 L215 429 C215 494 240 535 304 535 L316 535 C359 535 406 517 406 429 L406 229 L406 229 Z M370 890 C329 887 307 848 290 848 C272 848 267 867 267 872 C267 877 264 880 259 880 L194 880 C187 880 184 875 184 870 C184 818 214 763 274 763 C315 763 332 802 354 802 C366 802 376 792 376 781 C376 776 380 773 385 773 L451 773 C457 773 460 778 460 783 C460 835 421 890 370 890 L370 890 Z " />
<glyph glyph-name="odieresis" unicode="&#xf6;" horiz-adv-x="620" d="M311 669 C224 669 164 651 126 610 C96 577 81 529 81 462 L81 199 C81 130 97 82 126 50 C164 10 222 -10 311 -10 C397 -10 456 10 495 50 C525 82 539 130 539 199 L539 462 C539 529 525 576 495 609 C457 650 397 669 311 669 L311 669 Z M406 229 C405 165 380 122 316 122 L304 122 C262 122 215 141 215 229 L215 429 C215 494 240 535 304 535 L316 535 C359 535 406 517 406 429 L406 229 L406 229 Z M216 822 C216 796 238 772 266 772 C292 772 313 796 313 822 C313 848 292 870 266 870 C238 870 216 848 216 822 L216 822 Z M378 772 C406 772 427 796 427 822 C427 848 406 870 378 870 C352 870 331 848 331 822 C331 796 352 772 378 772 L378 772 Z " />
<glyph glyph-name="divide" unicode="&#xf7;" horiz-adv-x="395" d="M251 469 C251 497 227 522 199 522 C169 522 145 497 145 469 C145 440 169 415 199 415 C227 415 251 440 251 469 L251 469 Z M251 219 C251 249 227 272 199 272 C169 272 145 249 145 219 C145 190 169 166 199 166 C227 166 251 190 251 219 L251 219 Z M326 301 L326 389 C326 391 322 396 319 396 L79 396 C74 396 69 391 69 389 L69 301 C69 296 74 294 79 294 L319 294 C322 294 326 296 326 301 L326 301 Z " />
<glyph glyph-name="oslash" unicode="&#xf8;" horiz-adv-x="620" d="M270 -8 C282 -9 296 -10 311 -10 C460 -10 539 56 539 199 L539 462 C539 539 520 592 477 625 L499 686 C501 692 496 699 490 699 L377 699 C372 699 369 695 367 691 L359 667 C345 669 327 670 311 670 C164 670 81 607 81 462 L81 199 C81 134 99 66 150 30 L121 -55 C120 -60 125 -66 131 -66 L244 -66 C249 -66 251 -64 252 -60 L270 -8 Z M314 126 L406 409 L406 231 C406 166 377 126 314 126 L314 126 Z M215 337 L215 430 C215 462 220 489 234 507 C249 526 271 536 304 536 L316 536 L215 225 C215 226 215 229 215 231 L215 337 Z " />
<glyph glyph-name="ugrave" unicode="&#xf9;" horiz-adv-x="630" d="M412 231 C412 167 384 125 322 125 L310 125 C269 125 220 144 220 231 L220 651 C220 656 216 660 211 660 L96 660 C91 660 87 656 87 651 L87 199 C87 46 175 -10 316 -10 C465 -10 544 55 544 199 L544 651 C544 656 540 660 535 660 L421 660 C416 660 412 656 412 651 L412 231 L412 231 Z M296 769 C298 766 300 764 304 764 L335 764 C341 764 345 767 344 774 L331 857 C330 862 328 866 323 866 L258 866 C251 866 248 859 250 854 L296 769 L296 769 Z " />
<glyph glyph-name="uacute" unicode="&#xfa;" horiz-adv-x="630" d="M412 231 C412 167 384 125 322 125 L310 125 C269 125 220 144 220 231 L220 651 C220 656 216 660 211 660 L96 660 C91 660 87 656 87 651 L87 199 C87 46 175 -10 316 -10 C465 -10 544 55 544 199 L544 651 C544 656 540 660 535 660 L421 660 C416 660 412 656 412 651 L412 231 L412 231 Z M282 774 C281 767 287 764 291 764 L329 764 C332 764 336 765 339 771 L392 847 C398 856 393 861 384 861 L307 861 C302 861 299 859 298 855 L282 774 Z " />
<glyph glyph-name="ucircumflex" unicode="&#xfb;" horiz-adv-x="630" d="M412 231 C412 167 384 125 322 125 L310 125 C269 125 220 144 220 231 L220 651 C220 656 216 660 211 660 L96 660 C91 660 87 656 87 651 L87 199 C87 46 175 -10 316 -10 C465 -10 544 55 544 199 L544 651 C544 656 540 660 535 660 L421 660 C416 660 412 656 412 651 L412 231 L412 231 Z M185 750 L262 750 C265 750 267 751 268 753 L321 815 L357 755 C358 752 361 750 365 750 L445 750 C453 750 455 760 452 763 L386 860 C383 863 381 865 378 865 L272 865 C270 865 268 863 266 861 L178 765 C172 758 177 750 185 750 L185 750 Z " />
<glyph glyph-name="udieresis" unicode="&#xfc;" horiz-adv-x="630" d="M412 231 C412 167 384 125 322 125 L310 125 C269 125 220 144 220 231 L220 651 C220 656 216 660 211 660 L96 660 C91 660 87 656 87 651 L87 199 C87 46 175 -10 316 -10 C465 -10 544 55 544 199 L544 651 C544 656 540 660 535 660 L421 660 C416 660 412 656 412 651 L412 231 L412 231 Z M211 811 C211 785 233 761 261 761 C287 761 308 785 308 811 C308 837 287 859 261 859 C233 859 211 837 211 811 L211 811 Z M373 761 C401 761 422 785 422 811 C422 837 401 859 373 859 C347 859 326 837 326 811 C326 785 347 761 373 761 L373 761 Z " />
<glyph glyph-name="yacute" unicode="&#xfd;" horiz-adv-x="511" d="M256 487 L169 655 C166 660 165 660 161 660 L49 660 C42 660 39 654 41 647 L190 312 L190 9 C190 4 194 0 197 0 L315 0 C320 0 324 4 324 9 L324 312 L469 649 C471 654 467 660 461 660 L349 660 C345 660 344 660 341 655 L256 487 L256 487 Z M222 774 C221 767 227 764 231 764 L269 764 C272 764 276 765 279 771 L332 847 C338 856 333 861 324 861 L247 861 C242 861 239 859 238 855 L222 774 Z " />
<glyph glyph-name="thorn" unicode="&#xfe;" horiz-adv-x="554" d="M309 602 L239 602 L239 651 C239 656 235 660 230 660 L115 660 C110 660 106 656 106 651 L106 9 C106 4 110 0 115 0 L230 0 C235 0 239 4 239 9 L239 115 L309 115 C421 115 487 190 487 296 L487 421 C487 537 421 602 309 602 L309 602 Z M356 325 C356 257 310 240 254 240 L239 240 L239 476 L254 476 C321 476 356 456 356 391 L356 325 L356 325 Z " />
<glyph glyph-name="ydieresis" unicode="&#xff;" horiz-adv-x="511" d="M256 487 L169 655 C166 660 165 660 161 660 L49 660 C42 660 39 654 41 647 L190 312 L190 9 C190 4 194 0 197 0 L315 0 C320 0 324 4 324 9 L324 312 L469 649 C471 654 467 660 461 660 L349 660 C345 660 344 660 341 655 L256 487 L256 487 Z M149 811 C149 785 171 761 199 761 C225 761 246 785 246 811 C246 837 225 859 199 859 C171 859 149 837 149 811 L149 811 Z M311 761 C339 761 360 785 360 811 C360 837 339 859 311 859 C285 859 264 837 264 811 C264 785 285 761 311 761 L311 761 Z " />
<glyph glyph-name="Amacron" unicode="&#x100;" horiz-adv-x="576" d="M219 654 L46 11 C45 5 49 0 55 0 L170 0 C174 0 176 2 177 6 L215 146 L361 146 L400 6 C401 2 404 0 407 0 L521 0 C527 0 531 5 530 11 L357 654 C356 657 354 660 350 660 L226 660 C222 660 220 657 219 654 L219 654 Z M247 270 L287 421 L330 270 L247 270 Z M169 850 C164 850 159 848 159 843 L159 755 C159 750 164 748 169 748 L409 748 C412 748 416 750 416 755 L416 843 C416 845 412 850 409 850 L169 850 Z " />
<glyph glyph-name="amacron" unicode="&#x101;" horiz-adv-x="576" d="M219 654 L46 11 C45 5 49 0 55 0 L170 0 C174 0 176 2 177 6 L215 146 L361 146 L400 6 C401 2 404 0 407 0 L521 0 C527 0 531 5 530 11 L357 654 C356 657 354 660 350 660 L226 660 C222 660 220 657 219 654 L219 654 Z M247 270 L287 421 L330 270 L247 270 Z M169 850 C164 850 159 848 159 843 L159 755 C159 750 164 748 169 748 L409 748 C412 748 416 750 416 755 L416 843 C416 845 412 850 409 850 L169 850 Z " />
<glyph glyph-name="Abreve" unicode="&#x102;" horiz-adv-x="576" d="M219 654 L46 11 C45 5 49 0 55 0 L170 0 C174 0 176 2 177 6 L215 146 L361 146 L400 6 C401 2 404 0 407 0 L521 0 C527 0 531 5 530 11 L357 654 C356 657 354 660 350 660 L226 660 C222 660 220 657 219 654 L219 654 Z M247 270 L287 421 L330 270 L247 270 Z M320 889 C314 889 311 886 311 881 C311 867 301 858 290 858 C274 858 267 869 267 881 C267 887 264 889 259 889 L179 889 C174 889 170 887 170 879 C170 811 227 762 290 762 C357 762 409 813 409 879 C409 884 406 889 400 889 L320 889 Z " />
<glyph glyph-name="abreve" unicode="&#x103;" horiz-adv-x="576" d="M219 654 L46 11 C45 5 49 0 55 0 L170 0 C174 0 176 2 177 6 L215 146 L361 146 L400 6 C401 2 404 0 407 0 L521 0 C527 0 531 5 530 11 L357 654 C356 657 354 660 350 660 L226 660 C222 660 220 657 219 654 L219 654 Z M247 270 L287 421 L330 270 L247 270 Z M320 889 C314 889 311 886 311 881 C311 867 301 858 290 858 C274 858 267 869 267 881 C267 887 264 889 259 889 L179 889 C174 889 170 887 170 879 C170 811 227 762 290 762 C357 762 409 813 409 879 C409 884 406 889 400 889 L320 889 Z " />
<glyph glyph-name="Aogonek" unicode="&#x104;" horiz-adv-x="576" d="M530 11 L357 654 C356 659 354 660 350 660 L226 660 C222 660 220 659 219 654 L46 11 C45 6 49 0 55 0 L170 0 C174 0 176 2 177 6 L215 146 L361 146 L400 6 C401 1 404 0 407 0 L416 0 L416 -29 L407 -29 C387 -29 362 -31 347 -46 L342 -51 C331 -66 330 -89 330 -118 L330 -135 C330 -204 367 -231 429 -231 L477 -231 C484 -231 487 -226 487 -224 L487 -151 C487 -145 482 -143 477 -143 L466 -143 C450 -143 420 -141 420 -130 C420 -121 427 -119 440 -119 C469 -120 486 -114 495 -105 C507 -93 507 -68 507 -38 L507 0 L521 0 C527 0 531 6 530 11 L530 11 Z M247 270 L287 421 L330 270 L247 270 Z " />
<glyph glyph-name="aogonek" unicode="&#x105;" horiz-adv-x="576" d="M530 11 L357 654 C356 659 354 660 350 660 L226 660 C222 660 220 659 219 654 L46 11 C45 6 49 0 55 0 L170 0 C174 0 176 2 177 6 L215 146 L361 146 L400 6 C401 1 404 0 407 0 L416 0 L416 -29 L407 -29 C387 -29 362 -31 347 -46 L342 -51 C331 -66 330 -89 330 -118 L330 -135 C330 -204 367 -231 429 -231 L477 -231 C484 -231 487 -226 487 -224 L487 -151 C487 -145 482 -143 477 -143 L466 -143 C450 -143 420 -141 420 -130 C420 -121 427 -119 440 -119 C469 -120 486 -114 495 -105 C507 -93 507 -68 507 -38 L507 0 L521 0 C527 0 531 6 530 11 L530 11 Z M247 270 L287 421 L330 270 L247 270 Z " />
<glyph glyph-name="Cacute" unicode="&#x106;" horiz-adv-x="614" d="M407 231 C407 197 400 172 387 154 C372 134 349 125 316 125 L304 125 C264 125 215 144 215 231 L215 429 C215 462 220 487 234 506 C249 526 271 535 304 535 L316 535 C365 535 406 512 406 457 L406 441 C406 436 410 432 415 432 L530 432 C535 432 539 436 539 441 L539 462 C539 615 452 669 311 669 C162 669 81 610 81 462 L81 199 C81 45 172 -10 311 -10 C460 -10 539 52 539 199 L539 262 C539 267 535 271 530 271 L416 271 C411 271 407 267 407 262 L407 231 L407 231 Z M285 774 C284 767 290 764 294 764 L332 764 C335 764 339 765 342 771 L395 847 C401 856 396 861 387 861 L310 861 C305 861 302 859 301 855 L285 774 Z " />
<glyph glyph-name="cacute" unicode="&#x107;" horiz-adv-x="614" d="M407 231 C407 197 400 172 387 154 C372 134 349 125 316 125 L304 125 C264 125 215 144 215 231 L215 429 C215 462 220 487 234 506 C249 526 271 535 304 535 L316 535 C365 535 406 512 406 457 L406 441 C406 436 410 432 415 432 L530 432 C535 432 539 436 539 441 L539 462 C539 615 452 669 311 669 C162 669 81 610 81 462 L81 199 C81 45 172 -10 311 -10 C460 -10 539 52 539 199 L539 262 C539 267 535 271 530 271 L416 271 C411 271 407 267 407 262 L407 231 L407 231 Z M285 774 C284 767 290 764 294 764 L332 764 C335 764 339 765 342 771 L395 847 C401 856 396 861 387 861 L310 861 C305 861 302 859 301 855 L285 774 Z " />
<glyph glyph-name="Ccircumflex" unicode="&#x108;" horiz-adv-x="614" d="M407 231 C407 197 400 172 387 154 C372 134 349 125 316 125 L304 125 C264 125 215 144 215 231 L215 429 C215 462 220 487 234 506 C249 526 271 535 304 535 L316 535 C365 535 406 512 406 457 L406 441 C406 436 410 432 415 432 L530 432 C535 432 539 436 539 441 L539 462 C539 615 452 669 311 669 C162 669 81 610 81 462 L81 199 C81 45 172 -10 311 -10 C460 -10 539 52 539 199 L539 262 C539 267 535 271 530 271 L416 271 C411 271 407 267 407 262 L407 231 L407 231 Z M180 750 L257 750 C260 750 262 751 263 753 L316 815 L352 755 C353 752 356 750 360 750 L440 750 C448 750 450 760 447 763 L381 860 C378 863 376 865 373 865 L267 865 C265 865 263 863 261 861 L173 765 C167 758 172 750 180 750 L180 750 Z " />
<glyph glyph-name="ccircumflex" unicode="&#x109;" horiz-adv-x="614" d="M407 231 C407 197 400 172 387 154 C372 134 349 125 316 125 L304 125 C264 125 215 144 215 231 L215 429 C215 462 220 487 234 506 C249 526 271 535 304 535 L316 535 C365 535 406 512 406 457 L406 441 C406 436 410 432 415 432 L530 432 C535 432 539 436 539 441 L539 462 C539 615 452 669 311 669 C162 669 81 610 81 462 L81 199 C81 45 172 -10 311 -10 C460 -10 539 52 539 199 L539 262 C539 267 535 271 530 271 L416 271 C411 271 407 267 407 262 L407 231 L407 231 Z M180 750 L257 750 C260 750 262 751 263 753 L316 815 L352 755 C353 752 356 750 360 750 L440 750 C448 750 450 760 447 763 L381 860 C378 863 376 865 373 865 L267 865 C265 865 263 863 261 861 L173 765 C167 758 172 750 180 750 L180 750 Z " />
<glyph glyph-name="Cdotaccent" unicode="&#x10a;" horiz-adv-x="614" d="M407 231 C407 197 400 172 387 154 C372 134 349 125 316 125 L304 125 C264 125 215 144 215 231 L215 429 C215 462 220 487 234 506 C249 526 271 535 304 535 L316 535 C365 535 406 512 406 457 L406 441 C406 436 410 432 415 432 L530 432 C535 432 539 436 539 441 L539 462 C539 615 452 669 311 669 C162 669 81 610 81 462 L81 199 C81 45 172 -10 311 -10 C460 -10 539 52 539 199 L539 262 C539 267 535 271 530 271 L416 271 C411 271 407 267 407 262 L407 231 L407 231 Z M316 858 C289 858 266 836 266 810 C266 784 289 760 316 760 C343 760 364 784 364 810 C364 836 343 858 316 858 L316 858 Z " />
<glyph glyph-name="cdotaccent" unicode="&#x10b;" horiz-adv-x="614" d="M407 231 C407 197 400 172 387 154 C372 134 349 125 316 125 L304 125 C264 125 215 144 215 231 L215 429 C215 462 220 487 234 506 C249 526 271 535 304 535 L316 535 C365 535 406 512 406 457 L406 441 C406 436 410 432 415 432 L530 432 C535 432 539 436 539 441 L539 462 C539 615 452 669 311 669 C162 669 81 610 81 462 L81 199 C81 45 172 -10 311 -10 C460 -10 539 52 539 199 L539 262 C539 267 535 271 530 271 L416 271 C411 271 407 267 407 262 L407 231 L407 231 Z M316 858 C289 858 266 836 266 810 C266 784 289 760 316 760 C343 760 364 784 364 810 C364 836 343 858 316 858 L316 858 Z " />
<glyph glyph-name="Ccaron" unicode="&#x10c;" horiz-adv-x="614" d="M407 231 C407 197 400 172 387 154 C372 134 349 125 316 125 L304 125 C264 125 215 144 215 231 L215 429 C215 462 220 487 234 506 C249 526 271 535 304 535 L316 535 C365 535 406 512 406 457 L406 441 C406 436 410 432 415 432 L530 432 C535 432 539 436 539 441 L539 462 C539 615 452 669 311 669 C162 669 81 610 81 462 L81 199 C81 45 172 -10 311 -10 C460 -10 539 52 539 199 L539 262 C539 267 535 271 530 271 L416 271 C411 271 407 267 407 262 L407 231 L407 231 Z M446 869 L366 869 C363 869 361 867 358 864 L314 804 L271 864 C268 867 266 869 262 869 L184 869 C177 869 174 859 178 854 L256 757 C258 755 259 754 262 754 L368 754 C372 754 373 755 376 757 L452 854 C457 860 452 869 446 869 L446 869 Z " />
<glyph glyph-name="ccaron" unicode="&#x10d;" horiz-adv-x="614" d="M407 231 C407 197 400 172 387 154 C372 134 349 125 316 125 L304 125 C264 125 215 144 215 231 L215 429 C215 462 220 487 234 506 C249 526 271 535 304 535 L316 535 C365 535 406 512 406 457 L406 441 C406 436 410 432 415 432 L530 432 C535 432 539 436 539 441 L539 462 C539 615 452 669 311 669 C162 669 81 610 81 462 L81 199 C81 45 172 -10 311 -10 C460 -10 539 52 539 199 L539 262 C539 267 535 271 530 271 L416 271 C411 271 407 267 407 262 L407 231 L407 231 Z M446 869 L366 869 C363 869 361 867 358 864 L314 804 L271 864 C268 867 266 869 262 869 L184 869 C177 869 174 859 178 854 L256 757 C258 755 259 754 262 754 L368 754 C372 754 373 755 376 757 L452 854 C457 860 452 869 446 869 L446 869 Z " />
<glyph glyph-name="Dcaron" unicode="&#x10e;" horiz-adv-x="627" d="M346 660 L96 660 C91 660 88 656 88 651 L88 9 C88 4 91 0 96 0 L346 0 C474 0 544 76 544 197 L544 462 C544 522 529 571 499 604 C465 641 414 660 346 660 L346 660 Z M413 227 C413 164 370 125 310 125 L220 125 L220 535 L310 535 C380 535 413 495 413 432 L413 227 L413 227 Z M435 869 L355 869 C352 869 350 867 347 864 L303 804 L260 864 C257 867 255 869 251 869 L173 869 C166 869 163 859 167 854 L245 757 C247 755 248 754 251 754 L357 754 C361 754 362 755 365 757 L441 854 C446 860 441 869 435 869 L435 869 Z " />
<glyph glyph-name="dcaron" unicode="&#x10f;" horiz-adv-x="627" d="M346 660 L96 660 C91 660 88 656 88 651 L88 9 C88 4 91 0 96 0 L346 0 C474 0 544 76 544 197 L544 462 C544 522 529 571 499 604 C465 641 414 660 346 660 L346 660 Z M413 227 C413 164 370 125 310 125 L220 125 L220 535 L310 535 C380 535 413 495 413 432 L413 227 L413 227 Z M435 869 L355 869 C352 869 350 867 347 864 L303 804 L260 864 C257 867 255 869 251 869 L173 869 C166 869 163 859 167 854 L245 757 C247 755 248 754 251 754 L357 754 C361 754 362 755 365 757 L441 854 C446 860 441 869 435 869 L435 869 Z " />
<glyph glyph-name="Dcroat" unicode="&#x110;" horiz-adv-x="682" d="M402 660 L152 660 C147 660 144 656 144 651 L144 390 L102 390 C99 390 94 385 94 380 L94 294 C94 289 100 285 102 285 L144 285 L144 9 C144 4 147 0 152 0 L402 0 C530 0 601 76 601 197 L601 462 C601 592 524 660 402 660 L402 660 Z M467 227 C467 164 426 125 367 125 L276 125 L276 285 L387 285 C392 285 395 289 395 294 L395 380 C395 386 391 390 387 390 L276 390 L276 535 L367 535 C436 535 467 494 467 432 L467 227 L467 227 Z " />
<glyph glyph-name="dcroat" unicode="&#x111;" horiz-adv-x="682" d="M402 660 L152 660 C147 660 144 656 144 651 L144 390 L102 390 C99 390 94 385 94 380 L94 294 C94 289 100 285 102 285 L144 285 L144 9 C144 4 147 0 152 0 L402 0 C530 0 601 76 601 197 L601 462 C601 592 524 660 402 660 L402 660 Z M467 227 C467 164 426 125 367 125 L276 125 L276 285 L387 285 C392 285 395 289 395 294 L395 380 C395 386 391 390 387 390 L276 390 L276 535 L367 535 C436 535 467 494 467 432 L467 227 L467 227 Z " />
<glyph glyph-name="Emacron" unicode="&#x112;" horiz-adv-x="526" d="M102 0 L442 0 C447 0 451 4 451 9 L451 116 C451 121 447 125 442 125 L226 125 L226 272 L394 272 C399 272 402 276 402 281 L402 390 C402 395 399 399 394 399 L226 399 L226 535 L442 535 C447 535 451 539 451 544 L451 651 C451 656 447 660 442 660 L102 660 C97 660 94 656 94 651 L94 9 C94 4 97 0 102 0 L102 0 Z M153 850 C148 850 143 848 143 843 L143 755 C143 750 148 748 153 748 L393 748 C396 748 400 750 400 755 L400 843 C400 845 396 850 393 850 L153 850 Z " />
<glyph glyph-name="emacron" unicode="&#x113;" horiz-adv-x="526" d="M102 0 L442 0 C447 0 451 4 451 9 L451 116 C451 121 447 125 442 125 L226 125 L226 272 L394 272 C399 272 402 276 402 281 L402 390 C402 395 399 399 394 399 L226 399 L226 535 L442 535 C447 535 451 539 451 544 L451 651 C451 656 447 660 442 660 L102 660 C97 660 94 656 94 651 L94 9 C94 4 97 0 102 0 L102 0 Z M153 850 C148 850 143 848 143 843 L143 755 C143 750 148 748 153 748 L393 748 C396 748 400 750 400 755 L400 843 C400 845 396 850 393 850 L153 850 Z " />
<glyph glyph-name="Ebreve" unicode="&#x114;" horiz-adv-x="526" d="M102 0 L442 0 C447 0 451 4 451 9 L451 116 C451 121 447 125 442 125 L226 125 L226 272 L394 272 C399 272 402 276 402 281 L402 390 C402 395 399 399 394 399 L226 399 L226 535 L442 535 C447 535 451 539 451 544 L451 651 C451 656 447 660 442 660 L102 660 C97 660 94 656 94 651 L94 9 C94 4 97 0 102 0 L102 0 Z M295 889 C289 889 286 886 286 881 C286 867 276 858 265 858 C249 858 242 869 242 881 C242 887 239 889 234 889 L154 889 C149 889 145 887 145 879 C145 811 202 762 265 762 C332 762 384 813 384 879 C384 884 381 889 375 889 L295 889 Z " />
<glyph glyph-name="ebreve" unicode="&#x115;" horiz-adv-x="526" d="M102 0 L442 0 C447 0 451 4 451 9 L451 116 C451 121 447 125 442 125 L226 125 L226 272 L394 272 C399 272 402 276 402 281 L402 390 C402 395 399 399 394 399 L226 399 L226 535 L442 535 C447 535 451 539 451 544 L451 651 C451 656 447 660 442 660 L102 660 C97 660 94 656 94 651 L94 9 C94 4 97 0 102 0 L102 0 Z M295 889 C289 889 286 886 286 881 C286 867 276 858 265 858 C249 858 242 869 242 881 C242 887 239 889 234 889 L154 889 C149 889 145 887 145 879 C145 811 202 762 265 762 C332 762 384 813 384 879 C384 884 381 889 375 889 L295 889 Z " />
<glyph glyph-name="Edotaccent" unicode="&#x116;" horiz-adv-x="526" d="M102 0 L442 0 C447 0 451 4 451 9 L451 116 C451 121 447 125 442 125 L226 125 L226 272 L394 272 C399 272 402 276 402 281 L402 390 C402 395 399 399 394 399 L226 399 L226 535 L442 535 C447 535 451 539 451 544 L451 651 C451 656 447 660 442 660 L102 660 C97 660 94 656 94 651 L94 9 C94 4 97 0 102 0 L102 0 Z M278 858 C251 858 228 836 228 810 C228 784 251 760 278 760 C305 760 326 784 326 810 C326 836 305 858 278 858 L278 858 Z " />
<glyph glyph-name="edotaccent" unicode="&#x117;" horiz-adv-x="526" d="M102 0 L442 0 C447 0 451 4 451 9 L451 116 C451 121 447 125 442 125 L226 125 L226 272 L394 272 C399 272 402 276 402 281 L402 390 C402 395 399 399 394 399 L226 399 L226 535 L442 535 C447 535 451 539 451 544 L451 651 C451 656 447 660 442 660 L102 660 C97 660 94 656 94 651 L94 9 C94 4 97 0 102 0 L102 0 Z M278 858 C251 858 228 836 228 810 C228 784 251 760 278 760 C305 760 326 784 326 810 C326 836 305 858 278 858 L278 858 Z " />
<glyph glyph-name="Eogonek" unicode="&#x118;" horiz-adv-x="525" d="M94 651 L94 9 C94 4 97 0 102 0 L215 0 L215 -30 L207 -30 C145 -30 129 -66 129 -119 L129 -136 C129 -206 169 -233 229 -233 L277 -233 C282 -233 286 -229 286 -225 L286 -153 C286 -145 281 -144 277 -144 L265 -144 C249 -144 219 -143 219 -131 C219 -121 227 -120 234 -120 C265 -120 282 -118 294 -106 C305 -95 306 -73 306 -39 L306 0 L441 0 C446 0 450 4 450 9 L450 116 C450 121 446 125 441 125 L225 125 L225 272 L394 272 C399 272 402 276 402 281 L402 390 C402 395 399 399 394 399 L225 399 L225 535 L441 535 C446 535 450 539 450 544 L450 651 C450 656 446 660 441 660 L102 660 C97 660 94 656 94 651 L94 651 Z " />
<glyph glyph-name="eogonek" unicode="&#x119;" horiz-adv-x="525" d="M94 651 L94 9 C94 4 97 0 102 0 L215 0 L215 -30 L207 -30 C145 -30 129 -66 129 -119 L129 -136 C129 -206 169 -233 229 -233 L277 -233 C282 -233 286 -229 286 -225 L286 -153 C286 -145 281 -144 277 -144 L265 -144 C249 -144 219 -143 219 -131 C219 -121 227 -120 234 -120 C265 -120 282 -118 294 -106 C305 -95 306 -73 306 -39 L306 0 L441 0 C446 0 450 4 450 9 L450 116 C450 121 446 125 441 125 L225 125 L225 272 L394 272 C399 272 402 276 402 281 L402 390 C402 395 399 399 394 399 L225 399 L225 535 L441 535 C446 535 450 539 450 544 L450 651 C450 656 446 660 441 660 L102 660 C97 660 94 656 94 651 L94 651 Z " />
<glyph glyph-name="Ecaron" unicode="&#x11a;" horiz-adv-x="526" d="M102 0 L442 0 C447 0 451 4 451 9 L451 116 C451 121 447 125 442 125 L226 125 L226 272 L394 272 C399 272 402 276 402 281 L402 390 C402 395 399 399 394 399 L226 399 L226 535 L442 535 C447 535 451 539 451 544 L451 651 C451 656 447 660 442 660 L102 660 C97 660 94 656 94 651 L94 9 C94 4 97 0 102 0 L102 0 Z M424 869 L344 869 C341 869 339 867 336 864 L292 804 L249 864 C246 867 244 869 240 869 L162 869 C155 869 152 859 156 854 L234 757 C236 755 237 754 240 754 L346 754 C350 754 351 755 354 757 L430 854 C435 860 430 869 424 869 L424 869 Z " />
<glyph glyph-name="ecaron" unicode="&#x11b;" horiz-adv-x="526" d="M102 0 L442 0 C447 0 451 4 451 9 L451 116 C451 121 447 125 442 125 L226 125 L226 272 L394 272 C399 272 402 276 402 281 L402 390 C402 395 399 399 394 399 L226 399 L226 535 L442 535 C447 535 451 539 451 544 L451 651 C451 656 447 660 442 660 L102 660 C97 660 94 656 94 651 L94 9 C94 4 97 0 102 0 L102 0 Z M424 869 L344 869 C341 869 339 867 336 864 L292 804 L249 864 C246 867 244 869 240 869 L162 869 C155 869 152 859 156 854 L234 757 C236 755 237 754 240 754 L346 754 C350 754 351 755 354 757 L430 854 C435 860 430 869 424 869 L424 869 Z " />
<glyph glyph-name="Gcircumflex" unicode="&#x11c;" horiz-adv-x="615" d="M301 240 L406 240 L406 231 C406 167 377 125 316 125 L304 125 C262 125 215 144 215 231 L215 429 C215 462 220 487 234 506 C249 526 271 535 304 535 L316 535 C367 535 406 515 406 454 L406 441 C406 436 410 432 415 432 L530 432 C535 432 539 436 539 441 L539 462 C539 615 451 669 311 669 C162 669 81 607 81 462 L81 199 C81 45 172 -10 311 -10 C460 -10 539 52 539 199 L539 356 C539 361 535 365 530 365 L301 365 C296 365 292 361 292 356 L292 249 C292 244 296 240 301 240 L301 240 Z M180 750 L257 750 C260 750 262 751 263 753 L316 815 L352 755 C353 752 356 750 360 750 L440 750 C448 750 450 760 447 763 L381 860 C378 863 376 865 373 865 L267 865 C265 865 263 863 261 861 L173 765 C167 758 172 750 180 750 L180 750 Z " />
<glyph glyph-name="gcircumflex" unicode="&#x11d;" horiz-adv-x="615" d="M301 240 L406 240 L406 231 C406 167 377 125 316 125 L304 125 C262 125 215 144 215 231 L215 429 C215 462 220 487 234 506 C249 526 271 535 304 535 L316 535 C367 535 406 515 406 454 L406 441 C406 436 410 432 415 432 L530 432 C535 432 539 436 539 441 L539 462 C539 615 451 669 311 669 C162 669 81 607 81 462 L81 199 C81 45 172 -10 311 -10 C460 -10 539 52 539 199 L539 356 C539 361 535 365 530 365 L301 365 C296 365 292 361 292 356 L292 249 C292 244 296 240 301 240 L301 240 Z M180 750 L257 750 C260 750 262 751 263 753 L316 815 L352 755 C353 752 356 750 360 750 L440 750 C448 750 450 760 447 763 L381 860 C378 863 376 865 373 865 L267 865 C265 865 263 863 261 861 L173 765 C167 758 172 750 180 750 L180 750 Z " />
<glyph glyph-name="Gbreve" unicode="&#x11e;" horiz-adv-x="615" d="M301 240 L406 240 L406 231 C406 167 377 125 316 125 L304 125 C262 125 215 144 215 231 L215 429 C215 462 220 487 234 506 C249 526 271 535 304 535 L316 535 C367 535 406 515 406 454 L406 441 C406 436 410 432 415 432 L530 432 C535 432 539 436 539 441 L539 462 C539 615 451 669 311 669 C162 669 81 607 81 462 L81 199 C81 45 172 -10 311 -10 C460 -10 539 52 539 199 L539 356 C539 361 535 365 530 365 L301 365 C296 365 292 361 292 356 L292 249 C292 244 296 240 301 240 L301 240 Z M345 889 C339 889 336 886 336 881 C336 867 326 858 315 858 C299 858 292 869 292 881 C292 887 289 889 284 889 L204 889 C199 889 195 887 195 879 C195 811 252 762 315 762 C382 762 434 813 434 879 C434 884 431 889 425 889 L345 889 Z " />
<glyph glyph-name="gbreve" unicode="&#x11f;" horiz-adv-x="615" d="M301 240 L406 240 L406 231 C406 167 377 125 316 125 L304 125 C262 125 215 144 215 231 L215 429 C215 462 220 487 234 506 C249 526 271 535 304 535 L316 535 C367 535 406 515 406 454 L406 441 C406 436 410 432 415 432 L530 432 C535 432 539 436 539 441 L539 462 C539 615 451 669 311 669 C162 669 81 607 81 462 L81 199 C81 45 172 -10 311 -10 C460 -10 539 52 539 199 L539 356 C539 361 535 365 530 365 L301 365 C296 365 292 361 292 356 L292 249 C292 244 296 240 301 240 L301 240 Z M345 889 C339 889 336 886 336 881 C336 867 326 858 315 858 C299 858 292 869 292 881 C292 887 289 889 284 889 L204 889 C199 889 195 887 195 879 C195 811 252 762 315 762 C382 762 434 813 434 879 C434 884 431 889 425 889 L345 889 Z " />
<glyph glyph-name="Gdotaccent" unicode="&#x120;" horiz-adv-x="615" d="M301 240 L406 240 L406 231 C406 167 377 125 316 125 L304 125 C262 125 215 144 215 231 L215 429 C215 462 220 487 234 506 C249 526 271 535 304 535 L316 535 C367 535 406 515 406 454 L406 441 C406 436 410 432 415 432 L530 432 C535 432 539 436 539 441 L539 462 C539 615 451 669 311 669 C162 669 81 607 81 462 L81 199 C81 45 172 -10 311 -10 C460 -10 539 52 539 199 L539 356 C539 361 535 365 530 365 L301 365 C296 365 292 361 292 356 L292 249 C292 244 296 240 301 240 L301 240 Z M316 858 C289 858 266 836 266 810 C266 784 289 760 316 760 C343 760 364 784 364 810 C364 836 343 858 316 858 L316 858 Z " />
<glyph glyph-name="gdotaccent" unicode="&#x121;" horiz-adv-x="615" d="M301 240 L406 240 L406 231 C406 167 377 125 316 125 L304 125 C262 125 215 144 215 231 L215 429 C215 462 220 487 234 506 C249 526 271 535 304 535 L316 535 C367 535 406 515 406 454 L406 441 C406 436 410 432 415 432 L530 432 C535 432 539 436 539 441 L539 462 C539 615 451 669 311 669 C162 669 81 607 81 462 L81 199 C81 45 172 -10 311 -10 C460 -10 539 52 539 199 L539 356 C539 361 535 365 530 365 L301 365 C296 365 292 361 292 356 L292 249 C292 244 296 240 301 240 L301 240 Z M316 858 C289 858 266 836 266 810 C266 784 289 760 316 760 C343 760 364 784 364 810 C364 836 343 858 316 858 L316 858 Z " />
<glyph glyph-name="uni0122" unicode="&#x122;" horiz-adv-x="615" d="M301 240 L406 240 L406 231 C406 167 377 125 316 125 L304 125 C262 125 215 144 215 231 L215 429 C215 462 220 487 234 506 C249 526 271 535 304 535 L316 535 C367 535 406 515 406 454 L406 441 C406 436 410 432 415 432 L530 432 C535 432 539 436 539 441 L539 462 C539 615 451 669 311 669 C162 669 81 607 81 462 L81 199 C81 45 172 -10 311 -10 C460 -10 539 52 539 199 L539 356 C539 361 535 365 530 365 L301 365 C296 365 292 361 292 356 L292 249 C292 244 296 240 301 240 L301 240 Z M301 -69 C252 -69 211 -107 211 -156 C211 -196 241 -230 275 -241 L243 -321 C241 -327 243 -334 252 -334 L320 -334 C323 -334 327 -331 328 -327 L385 -179 C387 -172 390 -162 390 -154 C390 -105 348 -69 301 -69 L301 -69 Z " />
<glyph glyph-name="uni0123" unicode="&#x123;" horiz-adv-x="615" d="M301 240 L406 240 L406 231 C406 167 377 125 316 125 L304 125 C262 125 215 144 215 231 L215 429 C215 462 220 487 234 506 C249 526 271 535 304 535 L316 535 C367 535 406 515 406 454 L406 441 C406 436 410 432 415 432 L530 432 C535 432 539 436 539 441 L539 462 C539 615 451 669 311 669 C162 669 81 607 81 462 L81 199 C81 45 172 -10 311 -10 C460 -10 539 52 539 199 L539 356 C539 361 535 365 530 365 L301 365 C296 365 292 361 292 356 L292 249 C292 244 296 240 301 240 L301 240 Z M301 -69 C252 -69 211 -107 211 -156 C211 -196 241 -230 275 -241 L243 -321 C241 -327 243 -334 252 -334 L320 -334 C323 -334 327 -331 328 -327 L385 -179 C387 -172 390 -162 390 -154 C390 -105 348 -69 301 -69 L301 -69 Z " />
<glyph glyph-name="Hcircumflex" unicode="&#x124;" horiz-adv-x="612" d="M387 400 L225 400 L225 651 C225 656 221 660 216 660 L102 660 C97 660 94 656 94 651 L94 9 C94 4 97 0 102 0 L216 0 C221 0 225 4 225 9 L225 275 L387 275 L387 9 C387 4 391 0 396 0 L510 0 C515 0 519 4 519 9 L519 651 C519 656 515 660 510 660 L396 660 C391 660 387 656 387 651 L387 400 L387 400 Z M180 750 L257 750 C260 750 262 751 263 753 L316 815 L352 755 C353 752 356 750 360 750 L440 750 C448 750 450 760 447 763 L381 860 C378 863 376 865 373 865 L267 865 C265 865 263 863 261 861 L173 765 C167 758 172 750 180 750 L180 750 Z " />
<glyph glyph-name="hcircumflex" unicode="&#x125;" horiz-adv-x="612" d="M387 400 L225 400 L225 651 C225 656 221 660 216 660 L102 660 C97 660 94 656 94 651 L94 9 C94 4 97 0 102 0 L216 0 C221 0 225 4 225 9 L225 275 L387 275 L387 9 C387 4 391 0 396 0 L510 0 C515 0 519 4 519 9 L519 651 C519 656 515 660 510 660 L396 660 C391 660 387 656 387 651 L387 400 L387 400 Z M180 750 L257 750 C260 750 262 751 263 753 L316 815 L352 755 C353 752 356 750 360 750 L440 750 C448 750 450 760 447 763 L381 860 C378 863 376 865 373 865 L267 865 C265 865 263 863 261 861 L173 765 C167 758 172 750 180 750 L180 750 Z " />
<glyph glyph-name="Hbar" unicode="&#x126;" horiz-adv-x="727" d="M577 551 L577 651 C577 656 574 660 569 660 L452 660 C447 660 444 656 444 651 L444 551 L284 551 L284 651 C284 656 280 660 275 660 L160 660 C155 660 151 656 151 651 L151 551 L102 551 C97 551 94 547 94 542 L94 456 C94 451 97 447 102 447 L151 447 L151 9 C151 4 155 0 160 0 L275 0 C280 0 284 4 284 9 L284 275 L444 275 L444 9 C444 4 447 0 452 0 L569 0 C574 0 577 4 577 9 L577 447 L625 447 C630 447 634 451 634 456 L634 542 C634 547 630 551 625 551 L577 551 L577 551 Z M444 400 L284 400 L284 447 L444 447 L444 400 L444 400 Z " />
<glyph glyph-name="hbar" unicode="&#x127;" horiz-adv-x="727" d="M577 551 L577 651 C577 656 574 660 569 660 L452 660 C447 660 444 656 444 651 L444 551 L284 551 L284 651 C284 656 280 660 275 660 L160 660 C155 660 151 656 151 651 L151 551 L102 551 C97 551 94 547 94 542 L94 456 C94 451 97 447 102 447 L151 447 L151 9 C151 4 155 0 160 0 L275 0 C280 0 284 4 284 9 L284 275 L444 275 L444 9 C444 4 447 0 452 0 L569 0 C574 0 577 4 577 9 L577 447 L625 447 C630 447 634 451 634 456 L634 542 C634 547 630 551 625 551 L577 551 L577 551 Z M444 400 L284 400 L284 447 L444 447 L444 400 L444 400 Z " />
<glyph glyph-name="Itilde" unicode="&#x128;" horiz-adv-x="315" d="M102 0 L216 0 C221 0 225 4 225 9 L225 651 C225 656 221 660 216 660 L102 660 C97 660 94 656 94 651 L94 9 C94 4 97 0 102 0 L102 0 Z M231 879 C190 876 168 837 151 837 C133 837 128 856 128 861 C128 866 125 869 120 869 L55 869 C48 869 45 864 45 859 C45 807 75 752 135 752 C176 752 193 791 215 791 C227 791 237 781 237 770 C237 765 241 762 246 762 L312 762 C318 762 321 767 321 772 C321 824 282 879 231 879 L231 879 Z " />
<glyph glyph-name="itilde" unicode="&#x129;" horiz-adv-x="315" d="M102 0 L216 0 C221 0 225 4 225 9 L225 651 C225 656 221 660 216 660 L102 660 C97 660 94 656 94 651 L94 9 C94 4 97 0 102 0 L102 0 Z M231 879 C190 876 168 837 151 837 C133 837 128 856 128 861 C128 866 125 869 120 869 L55 869 C48 869 45 864 45 859 C45 807 75 752 135 752 C176 752 193 791 215 791 C227 791 237 781 237 770 C237 765 241 762 246 762 L312 762 C318 762 321 767 321 772 C321 824 282 879 231 879 L231 879 Z " />
<glyph glyph-name="Imacron" unicode="&#x12a;" horiz-adv-x="315" d="M102 0 L216 0 C221 0 225 4 225 9 L225 651 C225 656 221 660 216 660 L102 660 C97 660 94 656 94 651 L94 9 C94 4 97 0 102 0 L102 0 Z M41 850 C36 850 31 848 31 843 L31 755 C31 750 36 748 41 748 L281 748 C284 748 288 750 288 755 L288 843 C288 845 284 850 281 850 L41 850 Z " />
<glyph glyph-name="imacron" unicode="&#x12b;" horiz-adv-x="315" d="M102 0 L216 0 C221 0 225 4 225 9 L225 651 C225 656 221 660 216 660 L102 660 C97 660 94 656 94 651 L94 9 C94 4 97 0 102 0 L102 0 Z M41 850 C36 850 31 848 31 843 L31 755 C31 750 36 748 41 748 L281 748 C284 748 288 750 288 755 L288 843 C288 845 284 850 281 850 L41 850 Z " />
<glyph glyph-name="Iogonek" unicode="&#x12e;" horiz-adv-x="316" d="M94 651 L94 9 C94 4 97 0 102 0 L117 0 L117 -30 L109 -30 C49 -30 30 -68 30 -119 L30 -136 C30 -203 69 -233 130 -233 L180 -233 C186 -233 189 -228 189 -225 L189 -153 C189 -146 184 -144 180 -144 L166 -144 C150 -144 120 -143 120 -131 C120 -121 130 -120 136 -120 C202 -120 209 -95 209 -39 L209 0 L217 0 C222 0 226 4 226 9 L226 651 C226 656 222 660 217 660 L102 660 C97 660 94 656 94 651 L94 651 Z " />
<glyph glyph-name="iogonek" unicode="&#x12f;" horiz-adv-x="316" d="M94 651 L94 9 C94 4 97 0 102 0 L117 0 L117 -30 L109 -30 C49 -30 30 -68 30 -119 L30 -136 C30 -203 69 -233 130 -233 L180 -233 C186 -233 189 -228 189 -225 L189 -153 C189 -146 184 -144 180 -144 L166 -144 C150 -144 120 -143 120 -131 C120 -121 130 -120 136 -120 C202 -120 209 -95 209 -39 L209 0 L217 0 C222 0 226 4 226 9 L226 651 C226 656 222 660 217 660 L102 660 C97 660 94 656 94 651 L94 651 Z " />
<glyph glyph-name="Idotaccent" unicode="&#x130;" horiz-adv-x="315" d="M102 0 L216 0 C221 0 225 4 225 9 L225 651 C225 656 221 660 216 660 L102 660 C97 660 94 656 94 651 L94 9 C94 4 97 0 102 0 L102 0 Z M162 858 C135 858 112 836 112 810 C112 784 135 760 162 760 C189 760 210 784 210 810 C210 836 189 858 162 858 L162 858 Z " />
<glyph glyph-name="dotlessi" unicode="&#x131;" horiz-adv-x="315" d="M102 0 L216 0 C221 0 225 4 225 9 L225 651 C225 656 221 660 216 660 L102 660 C97 660 94 656 94 651 L94 9 C94 4 97 0 102 0 L102 0 Z M162 858 C135 858 112 836 112 810 C112 784 135 760 162 760 C189 760 210 784 210 810 C210 836 189 858 162 858 L162 858 Z " />
<glyph glyph-name="IJ" unicode="&#x132;" horiz-adv-x="739" d="M96 0 L210 0 C215 0 219 4 219 9 L219 651 C219 656 215 660 210 660 L96 660 C91 660 88 656 88 651 L88 9 C88 4 91 0 96 0 L96 0 Z M532 660 C527 660 523 656 523 651 L523 236 C523 194 514 125 464 125 C412 125 388 184 374 224 C372 230 366 230 362 227 L257 154 C253 151 252 147 254 142 C273 101 302 64 332 36 C368 7 409 -9 451 -9 L476 -9 C578 -9 656 75 656 172 L656 651 C656 656 652 660 647 660 L532 660 Z " />
<glyph glyph-name="ij" unicode="&#x133;" horiz-adv-x="739" d="M96 0 L210 0 C215 0 219 4 219 9 L219 651 C219 656 215 660 210 660 L96 660 C91 660 88 656 88 651 L88 9 C88 4 91 0 96 0 L96 0 Z M532 660 C527 660 523 656 523 651 L523 236 C523 194 514 125 464 125 C412 125 388 184 374 224 C372 230 366 230 362 227 L257 154 C253 151 252 147 254 142 C273 101 302 64 332 36 C368 7 409 -9 451 -9 L476 -9 C578 -9 656 75 656 172 L656 651 C656 656 652 660 647 660 L532 660 Z " />
<glyph glyph-name="Jcircumflex" unicode="&#x134;" horiz-adv-x="509" d="M300 660 C295 660 291 656 291 651 L291 236 C291 194 282 125 232 125 C180 125 156 184 142 224 C140 230 134 230 130 227 L25 154 C21 151 20 147 22 142 C41 101 70 64 100 36 C136 7 177 -9 219 -9 L244 -9 C346 -9 424 75 424 172 L424 651 C424 656 420 660 415 660 L300 660 Z M158 750 L235 750 C238 750 240 751 241 753 L294 815 L330 755 C331 752 334 750 338 750 L418 750 C426 750 428 760 425 763 L359 860 C356 863 354 865 351 865 L245 865 C243 865 241 863 239 861 L151 765 C145 758 150 750 158 750 L158 750 Z " />
<glyph glyph-name="jcircumflex" unicode="&#x135;" horiz-adv-x="509" d="M300 660 C295 660 291 656 291 651 L291 236 C291 194 282 125 232 125 C180 125 156 184 142 224 C140 230 134 230 130 227 L25 154 C21 151 20 147 22 142 C41 101 70 64 100 36 C136 7 177 -9 219 -9 L244 -9 C346 -9 424 75 424 172 L424 651 C424 656 420 660 415 660 L300 660 Z M158 750 L235 750 C238 750 240 751 241 753 L294 815 L330 755 C331 752 334 750 338 750 L418 750 C426 750 428 760 425 763 L359 860 C356 863 354 865 351 865 L245 865 C243 865 241 863 239 861 L151 765 C145 758 150 750 158 750 L158 750 Z " />
<glyph glyph-name="uni0136" unicode="&#x136;" horiz-adv-x="581" d="M514 660 L390 660 C386 660 385 660 382 656 L225 444 L225 651 C225 656 221 660 216 660 L102 660 C97 660 94 656 94 651 L94 9 C94 4 97 0 102 0 L216 0 C221 0 225 4 225 9 L225 235 L276 305 L380 6 C381 2 384 0 387 0 L522 0 C529 0 532 6 530 11 L364 429 L521 646 C525 652 521 660 514 660 L514 660 Z M281 -73 C232 -73 191 -111 191 -160 C191 -200 221 -234 255 -245 L223 -325 C221 -331 223 -338 232 -338 L300 -338 C303 -338 307 -335 308 -331 L365 -183 C367 -176 370 -166 370 -158 C370 -109 328 -73 281 -73 L281 -73 Z " />
<glyph glyph-name="uni0137" unicode="&#x137;" horiz-adv-x="581" d="M514 660 L390 660 C386 660 385 660 382 656 L225 444 L225 651 C225 656 221 660 216 660 L102 660 C97 660 94 656 94 651 L94 9 C94 4 97 0 102 0 L216 0 C221 0 225 4 225 9 L225 235 L276 305 L380 6 C381 2 384 0 387 0 L522 0 C529 0 532 6 530 11 L364 429 L521 646 C525 652 521 660 514 660 L514 660 Z M281 -73 C232 -73 191 -111 191 -160 C191 -200 221 -234 255 -245 L223 -325 C221 -331 223 -338 232 -338 L300 -338 C303 -338 307 -335 308 -331 L365 -183 C367 -176 370 -166 370 -158 C370 -109 328 -73 281 -73 L281 -73 Z " />
<glyph glyph-name="kgreenlandic" unicode="&#x138;" horiz-adv-x="581" d="M514 660 L390 660 C386 660 385 660 382 656 L225 444 L225 651 C225 656 221 660 216 660 L102 660 C97 660 94 656 94 651 L94 9 C94 4 97 0 102 0 L216 0 C221 0 225 4 225 9 L225 235 L276 305 L380 6 C381 2 384 0 387 0 L522 0 C529 0 532 6 530 11 L364 429 L521 646 C525 652 521 660 514 660 L514 660 Z " />
<glyph glyph-name="Lacute" unicode="&#x139;" horiz-adv-x="496" d="M216 660 L102 660 C97 660 94 656 94 651 L94 9 C94 4 97 0 102 0 L441 0 C446 0 450 4 450 9 L450 117 C450 122 446 126 441 126 L225 126 L225 651 C225 656 221 660 216 660 L216 660 Z M180 774 C179 767 185 764 189 764 L227 764 C230 764 234 765 237 771 L290 847 C296 856 291 861 282 861 L205 861 C200 861 197 859 196 855 L180 774 Z " />
<glyph glyph-name="lacute" unicode="&#x13a;" horiz-adv-x="496" d="M216 660 L102 660 C97 660 94 656 94 651 L94 9 C94 4 97 0 102 0 L441 0 C446 0 450 4 450 9 L450 117 C450 122 446 126 441 126 L225 126 L225 651 C225 656 221 660 216 660 L216 660 Z M180 774 C179 767 185 764 189 764 L227 764 C230 764 234 765 237 771 L290 847 C296 856 291 861 282 861 L205 861 C200 861 197 859 196 855 L180 774 Z " />
<glyph glyph-name="uni013B" unicode="&#x13b;" horiz-adv-x="496" d="M216 660 L102 660 C97 660 94 656 94 651 L94 9 C94 4 97 0 102 0 L441 0 C446 0 450 4 450 9 L450 117 C450 122 446 126 441 126 L225 126 L225 651 C225 656 221 660 216 660 L216 660 Z M240 -71 C191 -71 150 -109 150 -158 C150 -198 180 -232 214 -243 L182 -323 C180 -329 182 -336 191 -336 L259 -336 C262 -336 266 -333 267 -329 L324 -181 C326 -174 329 -164 329 -156 C329 -107 287 -71 240 -71 L240 -71 Z " />
<glyph glyph-name="uni013C" unicode="&#x13c;" horiz-adv-x="496" d="M216 660 L102 660 C97 660 94 656 94 651 L94 9 C94 4 97 0 102 0 L441 0 C446 0 450 4 450 9 L450 117 C450 122 446 126 441 126 L225 126 L225 651 C225 656 221 660 216 660 L216 660 Z M240 -71 C191 -71 150 -109 150 -158 C150 -198 180 -232 214 -243 L182 -323 C180 -329 182 -336 191 -336 L259 -336 C262 -336 266 -333 267 -329 L324 -181 C326 -174 329 -164 329 -156 C329 -107 287 -71 240 -71 L240 -71 Z " />
<glyph glyph-name="Lcaron" unicode="&#x13d;" horiz-adv-x="496" d="M216 660 L102 660 C97 660 94 656 94 651 L94 9 C94 4 97 0 102 0 L441 0 C446 0 450 4 450 9 L450 117 C450 122 446 126 441 126 L225 126 L225 651 C225 656 221 660 216 660 L216 660 Z M365 864 L285 864 C282 864 280 862 277 859 L233 799 L190 859 C187 862 185 864 181 864 L103 864 C96 864 93 854 97 849 L175 752 C177 750 178 749 181 749 L287 749 C291 749 292 750 295 752 L371 849 C376 855 371 864 365 864 L365 864 Z " />
<glyph glyph-name="lcaron" unicode="&#x13e;" horiz-adv-x="496" d="M216 660 L102 660 C97 660 94 656 94 651 L94 9 C94 4 97 0 102 0 L441 0 C446 0 450 4 450 9 L450 117 C450 122 446 126 441 126 L225 126 L225 651 C225 656 221 660 216 660 L216 660 Z M365 864 L285 864 C282 864 280 862 277 859 L233 799 L190 859 C187 862 185 864 181 864 L103 864 C96 864 93 854 97 849 L175 752 C177 750 178 749 181 749 L287 749 C291 749 292 750 295 752 L371 849 C376 855 371 864 365 864 L365 864 Z " />
<glyph glyph-name="Ldot" unicode="&#x13f;" horiz-adv-x="529" d="M216 660 L102 660 C97 660 94 656 94 651 L94 9 C94 4 97 0 102 0 L441 0 C446 0 450 4 450 9 L450 117 C450 122 446 126 441 126 L225 126 L225 651 C225 656 221 660 216 660 L216 660 Z M372 515 C399 515 420 493 420 467 C420 441 399 417 372 417 C345 417 322 441 322 467 C322 493 345 515 372 515 L372 515 Z " />
<glyph glyph-name="ldot" unicode="&#x140;" horiz-adv-x="529" d="M216 660 L102 660 C97 660 94 656 94 651 L94 9 C94 4 97 0 102 0 L441 0 C446 0 450 4 450 9 L450 117 C450 122 446 126 441 126 L225 126 L225 651 C225 656 221 660 216 660 L216 660 Z M372 515 C399 515 420 493 420 467 C420 441 399 417 372 417 C345 417 322 441 322 467 C322 493 345 515 372 515 L372 515 Z " />
<glyph glyph-name="Lslash" unicode="&#x141;" horiz-adv-x="582" d="M311 126 L311 360 L449 565 C452 570 450 575 441 575 L327 575 C324 575 320 574 317 569 L311 557 L311 651 C311 656 307 660 302 660 L185 660 C181 660 177 656 177 651 L177 361 L39 154 C34 146 39 141 44 141 L157 141 C161 141 165 144 167 147 L177 164 L177 9 C177 4 181 0 185 0 L527 0 C531 0 536 5 536 10 L536 117 C536 122 532 126 527 126 L311 126 L311 126 Z " />
<glyph glyph-name="lslash" unicode="&#x142;" horiz-adv-x="582" d="M311 126 L311 360 L449 565 C452 570 450 575 441 575 L327 575 C324 575 320 574 317 569 L311 557 L311 651 C311 656 307 660 302 660 L185 660 C181 660 177 656 177 651 L177 361 L39 154 C34 146 39 141 44 141 L157 141 C161 141 165 144 167 147 L177 164 L177 9 C177 4 181 0 185 0 L527 0 C531 0 536 5 536 10 L536 117 C536 122 532 126 527 126 L311 126 L311 126 Z " />
<glyph glyph-name="Nacute" unicode="&#x143;" horiz-adv-x="594" d="M367 651 L367 332 L227 655 C226 657 224 660 220 660 L102 660 C97 660 94 656 94 651 L94 9 C94 4 97 0 102 0 L216 0 C221 0 225 4 225 9 L225 334 L371 5 C372 2 376 0 380 0 L491 0 C496 0 500 4 500 9 L500 651 C500 656 496 660 491 660 L376 660 C371 660 367 656 367 651 L367 651 Z M285 774 C284 767 290 764 294 764 L332 764 C335 764 339 765 342 771 L395 847 C401 856 396 861 387 861 L310 861 C305 861 302 859 301 855 L285 774 Z " />
<glyph glyph-name="nacute" unicode="&#x144;" horiz-adv-x="594" d="M367 651 L367 332 L227 655 C226 657 224 660 220 660 L102 660 C97 660 94 656 94 651 L94 9 C94 4 97 0 102 0 L216 0 C221 0 225 4 225 9 L225 334 L371 5 C372 2 376 0 380 0 L491 0 C496 0 500 4 500 9 L500 651 C500 656 496 660 491 660 L376 660 C371 660 367 656 367 651 L367 651 Z M285 774 C284 767 290 764 294 764 L332 764 C335 764 339 765 342 771 L395 847 C401 856 396 861 387 861 L310 861 C305 861 302 859 301 855 L285 774 Z " />
<glyph glyph-name="uni0145" unicode="&#x145;" horiz-adv-x="594" d="M367 651 L367 332 L227 655 C226 657 224 660 220 660 L102 660 C97 660 94 656 94 651 L94 9 C94 4 97 0 102 0 L216 0 C221 0 225 4 225 9 L225 334 L371 5 C372 2 376 0 380 0 L491 0 C496 0 500 4 500 9 L500 651 C500 656 496 660 491 660 L376 660 C371 660 367 656 367 651 L367 651 Z M290 -73 C241 -73 200 -111 200 -160 C200 -200 230 -234 264 -245 L232 -325 C230 -331 232 -338 241 -338 L309 -338 C312 -338 316 -335 317 -331 L374 -183 C376 -176 379 -166 379 -158 C379 -109 337 -73 290 -73 L290 -73 Z " />
<glyph glyph-name="uni0146" unicode="&#x146;" horiz-adv-x="594" d="M367 651 L367 332 L227 655 C226 657 224 660 220 660 L102 660 C97 660 94 656 94 651 L94 9 C94 4 97 0 102 0 L216 0 C221 0 225 4 225 9 L225 334 L371 5 C372 2 376 0 380 0 L491 0 C496 0 500 4 500 9 L500 651 C500 656 496 660 491 660 L376 660 C371 660 367 656 367 651 L367 651 Z M290 -73 C241 -73 200 -111 200 -160 C200 -200 230 -234 264 -245 L232 -325 C230 -331 232 -338 241 -338 L309 -338 C312 -338 316 -335 317 -331 L374 -183 C376 -176 379 -166 379 -158 C379 -109 337 -73 290 -73 L290 -73 Z " />
<glyph glyph-name="Ncaron" unicode="&#x147;" horiz-adv-x="594" d="M367 651 L367 332 L227 655 C226 657 224 660 220 660 L102 660 C97 660 94 656 94 651 L94 9 C94 4 97 0 102 0 L216 0 C221 0 225 4 225 9 L225 334 L371 5 C372 2 376 0 380 0 L491 0 C496 0 500 4 500 9 L500 651 C500 656 496 660 491 660 L376 660 C371 660 367 656 367 651 L367 651 Z M445 869 L365 869 C362 869 360 867 357 864 L313 804 L270 864 C267 867 265 869 261 869 L183 869 C176 869 173 859 177 854 L255 757 C257 755 258 754 261 754 L367 754 C371 754 372 755 375 757 L451 854 C456 860 451 869 445 869 L445 869 Z " />
<glyph glyph-name="ncaron" unicode="&#x148;" horiz-adv-x="594" d="M367 651 L367 332 L227 655 C226 657 224 660 220 660 L102 660 C97 660 94 656 94 651 L94 9 C94 4 97 0 102 0 L216 0 C221 0 225 4 225 9 L225 334 L371 5 C372 2 376 0 380 0 L491 0 C496 0 500 4 500 9 L500 651 C500 656 496 660 491 660 L376 660 C371 660 367 656 367 651 L367 651 Z M445 869 L365 869 C362 869 360 867 357 864 L313 804 L270 864 C267 867 265 869 261 869 L183 869 C176 869 173 859 177 854 L255 757 C257 755 258 754 261 754 L367 754 C371 754 372 755 375 757 L451 854 C456 860 451 869 445 869 L445 869 Z " />
<glyph glyph-name="napostrophe" unicode="&#x149;" horiz-adv-x="594" d="M48 823 C41 823 36 818 38 812 L50 726 C51 719 54 717 59 717 L95 717 C100 717 101 719 103 726 L115 811 C116 819 111 823 106 823 L48 823 Z M367 651 L367 332 L227 655 C226 657 224 660 220 660 L102 660 C97 660 94 656 94 651 L94 9 C94 4 97 0 102 0 L216 0 C221 0 225 4 225 9 L225 334 L371 5 C372 2 376 0 380 0 L491 0 C496 0 500 4 500 9 L500 651 C500 656 496 660 491 660 L376 660 C371 660 367 656 367 651 L367 651 Z " />
<glyph glyph-name="Omacron" unicode="&#x14c;" horiz-adv-x="620" d="M311 669 C224 669 164 651 126 610 C96 577 81 529 81 462 L81 199 C81 130 97 82 126 50 C164 10 222 -10 311 -10 C397 -10 456 10 495 50 C525 82 539 130 539 199 L539 462 C539 529 525 576 495 609 C457 650 397 669 311 669 L311 669 Z M406 229 C405 165 380 122 316 122 L304 122 C262 122 215 141 215 229 L215 429 C215 494 240 535 304 535 L316 535 C359 535 406 517 406 429 L406 229 L406 229 Z M193 850 C188 850 183 848 183 843 L183 755 C183 750 188 748 193 748 L433 748 C436 748 440 750 440 755 L440 843 C440 845 436 850 433 850 L193 850 Z " />
<glyph glyph-name="omacron" unicode="&#x14d;" horiz-adv-x="620" d="M311 669 C224 669 164 651 126 610 C96 577 81 529 81 462 L81 199 C81 130 97 82 126 50 C164 10 222 -10 311 -10 C397 -10 456 10 495 50 C525 82 539 130 539 199 L539 462 C539 529 525 576 495 609 C457 650 397 669 311 669 L311 669 Z M406 229 C405 165 380 122 316 122 L304 122 C262 122 215 141 215 229 L215 429 C215 494 240 535 304 535 L316 535 C359 535 406 517 406 429 L406 229 L406 229 Z M193 850 C188 850 183 848 183 843 L183 755 C183 750 188 748 193 748 L433 748 C436 748 440 750 440 755 L440 843 C440 845 436 850 433 850 L193 850 Z " />
<glyph glyph-name="Obreve" unicode="&#x14e;" horiz-adv-x="620" d="M311 669 C224 669 164 651 126 610 C96 577 81 529 81 462 L81 199 C81 130 97 82 126 50 C164 10 222 -10 311 -10 C397 -10 456 10 495 50 C525 82 539 130 539 199 L539 462 C539 529 525 576 495 609 C457 650 397 669 311 669 L311 669 Z M406 229 C405 165 380 122 316 122 L304 122 C262 122 215 141 215 229 L215 429 C215 494 240 535 304 535 L316 535 C359 535 406 517 406 429 L406 229 L406 229 Z M345 889 C339 889 336 886 336 881 C336 867 326 858 315 858 C299 858 292 869 292 881 C292 887 289 889 284 889 L204 889 C199 889 195 887 195 879 C195 811 252 762 315 762 C382 762 434 813 434 879 C434 884 431 889 425 889 L345 889 Z " />
<glyph glyph-name="obreve" unicode="&#x14f;" horiz-adv-x="620" d="M311 669 C224 669 164 651 126 610 C96 577 81 529 81 462 L81 199 C81 130 97 82 126 50 C164 10 222 -10 311 -10 C397 -10 456 10 495 50 C525 82 539 130 539 199 L539 462 C539 529 525 576 495 609 C457 650 397 669 311 669 L311 669 Z M406 229 C405 165 380 122 316 122 L304 122 C262 122 215 141 215 229 L215 429 C215 494 240 535 304 535 L316 535 C359 535 406 517 406 429 L406 229 L406 229 Z M345 889 C339 889 336 886 336 881 C336 867 326 858 315 858 C299 858 292 869 292 881 C292 887 289 889 284 889 L204 889 C199 889 195 887 195 879 C195 811 252 762 315 762 C382 762 434 813 434 879 C434 884 431 889 425 889 L345 889 Z " />
<glyph glyph-name="Ohungarumlaut" unicode="&#x150;" horiz-adv-x="620" d="M311 669 C224 669 164 651 126 610 C96 577 81 529 81 462 L81 199 C81 130 97 82 126 50 C164 10 222 -10 311 -10 C397 -10 456 10 495 50 C525 82 539 130 539 199 L539 462 C539 529 525 576 495 609 C457 650 397 669 311 669 L311 669 Z M406 229 C405 165 380 122 316 122 L304 122 C262 122 215 141 215 229 L215 429 C215 494 240 535 304 535 L316 535 C359 535 406 517 406 429 L406 229 L406 229 Z M283 752 C288 752 291 752 292 756 L327 845 C330 852 327 857 320 857 L261 857 C256 857 253 855 252 848 L240 761 C238 753 245 752 250 752 L283 752 Z M345 857 C338 857 336 855 335 848 L323 761 C322 755 327 752 332 752 L367 752 C371 752 375 752 376 756 L410 845 C412 851 410 857 402 857 L345 857 Z " />
<glyph glyph-name="ohungarumlaut" unicode="&#x151;" horiz-adv-x="620" d="M311 669 C224 669 164 651 126 610 C96 577 81 529 81 462 L81 199 C81 130 97 82 126 50 C164 10 222 -10 311 -10 C397 -10 456 10 495 50 C525 82 539 130 539 199 L539 462 C539 529 525 576 495 609 C457 650 397 669 311 669 L311 669 Z M406 229 C405 165 380 122 316 122 L304 122 C262 122 215 141 215 229 L215 429 C215 494 240 535 304 535 L316 535 C359 535 406 517 406 429 L406 229 L406 229 Z M283 752 C288 752 291 752 292 756 L327 845 C330 852 327 857 320 857 L261 857 C256 857 253 855 252 848 L240 761 C238 753 245 752 250 752 L283 752 Z M345 857 C338 857 336 855 335 848 L323 761 C322 755 327 752 332 752 L367 752 C371 752 375 752 376 756 L410 845 C412 851 410 857 402 857 L345 857 Z " />
<glyph glyph-name="OE" unicode="&#x152;" horiz-adv-x="834" d="M287 660 C160 660 89 585 89 462 L89 197 C89 70 166 0 287 0 L761 0 C766 0 770 4 770 9 L770 116 C770 121 766 125 761 125 L546 125 L546 272 L714 272 C719 272 722 276 722 281 L722 390 C722 395 719 399 714 399 L546 399 L546 535 L761 535 C766 535 770 539 770 544 L770 651 C770 656 766 660 761 660 L287 660 L287 660 Z M414 125 L322 125 C260 125 221 167 221 227 L221 432 C221 501 261 535 322 535 L414 535 L414 125 L414 125 Z " />
<glyph glyph-name="oe" unicode="&#x153;" horiz-adv-x="834" d="M287 660 C160 660 89 585 89 462 L89 197 C89 70 166 0 287 0 L761 0 C766 0 770 4 770 9 L770 116 C770 121 766 125 761 125 L546 125 L546 272 L714 272 C719 272 722 276 722 281 L722 390 C722 395 719 399 714 399 L546 399 L546 535 L761 535 C766 535 770 539 770 544 L770 651 C770 656 766 660 761 660 L287 660 L287 660 Z M414 125 L322 125 C260 125 221 167 221 227 L221 432 C221 501 261 535 322 535 L414 535 L414 125 L414 125 Z " />
<glyph glyph-name="Racute" unicode="&#x154;" horiz-adv-x="570" d="M469 261 C481 286 487 319 487 354 L487 480 C487 597 420 660 309 660 L101 660 C97 660 94 656 94 651 L94 9 C94 4 97 0 101 0 L216 0 C221 0 225 4 225 9 L225 175 L276 175 L354 5 C355 2 357 0 361 0 L484 0 C490 0 494 6 491 12 L407 197 C435 210 455 232 469 261 L469 261 Z M356 385 C354 307 317 306 254 306 L225 306 L225 527 L254 527 C330 527 356 520 356 450 L356 385 L356 385 Z M250 774 C249 767 255 764 259 764 L297 764 C300 764 304 765 307 771 L360 847 C366 856 361 861 352 861 L275 861 C270 861 267 859 266 855 L250 774 Z " />
<glyph glyph-name="racute" unicode="&#x155;" horiz-adv-x="570" d="M469 261 C481 286 487 319 487 354 L487 480 C487 597 420 660 309 660 L101 660 C97 660 94 656 94 651 L94 9 C94 4 97 0 101 0 L216 0 C221 0 225 4 225 9 L225 175 L276 175 L354 5 C355 2 357 0 361 0 L484 0 C490 0 494 6 491 12 L407 197 C435 210 455 232 469 261 L469 261 Z M356 385 C354 307 317 306 254 306 L225 306 L225 527 L254 527 C330 527 356 520 356 450 L356 385 L356 385 Z M250 774 C249 767 255 764 259 764 L297 764 C300 764 304 765 307 771 L360 847 C366 856 361 861 352 861 L275 861 C270 861 267 859 266 855 L250 774 Z " />
<glyph glyph-name="uni0156" unicode="&#x156;" horiz-adv-x="570" d="M469 261 C481 286 487 319 487 354 L487 480 C487 597 420 660 309 660 L101 660 C97 660 94 656 94 651 L94 9 C94 4 97 0 101 0 L216 0 C221 0 225 4 225 9 L225 175 L276 175 L354 5 C355 2 357 0 361 0 L484 0 C490 0 494 6 491 12 L407 197 C435 210 455 232 469 261 L469 261 Z M356 385 C354 307 317 306 254 306 L225 306 L225 527 L254 527 C330 527 356 520 356 450 L356 385 L356 385 Z M272 -71 C223 -71 182 -109 182 -158 C182 -198 212 -232 246 -243 L214 -323 C212 -329 214 -336 223 -336 L291 -336 C294 -336 298 -333 299 -329 L356 -181 C358 -174 361 -164 361 -156 C361 -107 319 -71 272 -71 L272 -71 Z " />
<glyph glyph-name="uni0157" unicode="&#x157;" horiz-adv-x="570" d="M469 261 C481 286 487 319 487 354 L487 480 C487 597 420 660 309 660 L101 660 C97 660 94 656 94 651 L94 9 C94 4 97 0 101 0 L216 0 C221 0 225 4 225 9 L225 175 L276 175 L354 5 C355 2 357 0 361 0 L484 0 C490 0 494 6 491 12 L407 197 C435 210 455 232 469 261 L469 261 Z M356 385 C354 307 317 306 254 306 L225 306 L225 527 L254 527 C330 527 356 520 356 450 L356 385 L356 385 Z M272 -71 C223 -71 182 -109 182 -158 C182 -198 212 -232 246 -243 L214 -323 C212 -329 214 -336 223 -336 L291 -336 C294 -336 298 -333 299 -329 L356 -181 C358 -174 361 -164 361 -156 C361 -107 319 -71 272 -71 L272 -71 Z " />
<glyph glyph-name="Rcaron" unicode="&#x158;" horiz-adv-x="570" d="M469 261 C481 286 487 319 487 354 L487 480 C487 597 420 660 309 660 L101 660 C97 660 94 656 94 651 L94 9 C94 4 97 0 101 0 L216 0 C221 0 225 4 225 9 L225 175 L276 175 L354 5 C355 2 357 0 361 0 L484 0 C490 0 494 6 491 12 L407 197 C435 210 455 232 469 261 L469 261 Z M356 385 C354 307 317 306 254 306 L225 306 L225 527 L254 527 C330 527 356 520 356 450 L356 385 L356 385 Z M418 869 L338 869 C335 869 333 867 330 864 L286 804 L243 864 C240 867 238 869 234 869 L156 869 C149 869 146 859 150 854 L228 757 C230 755 231 754 234 754 L340 754 C344 754 345 755 348 757 L424 854 C429 860 424 869 418 869 L418 869 Z " />
<glyph glyph-name="rcaron" unicode="&#x159;" horiz-adv-x="570" d="M469 261 C481 286 487 319 487 354 L487 480 C487 597 420 660 309 660 L101 660 C97 660 94 656 94 651 L94 9 C94 4 97 0 101 0 L216 0 C221 0 225 4 225 9 L225 175 L276 175 L354 5 C355 2 357 0 361 0 L484 0 C490 0 494 6 491 12 L407 197 C435 210 455 232 469 261 L469 261 Z M356 385 C354 307 317 306 254 306 L225 306 L225 527 L254 527 C330 527 356 520 356 450 L356 385 L356 385 Z M418 869 L338 869 C335 869 333 867 330 864 L286 804 L243 864 C240 867 238 869 234 869 L156 869 C149 869 146 859 150 854 L228 757 C230 755 231 754 234 754 L340 754 C344 754 345 755 348 757 L424 854 C429 860 424 869 418 869 L418 869 Z " />
<glyph glyph-name="Sacute" unicode="&#x15a;" horiz-adv-x="550" d="M319 405 C279 424 196 447 196 492 C196 529 245 537 266 537 C306 537 336 514 370 465 C374 460 376 460 380 462 L469 524 C472 526 474 531 472 535 C430 624 366 669 280 669 C171 669 56 606 56 481 C56 431 76 389 117 351 C156 317 202 294 247 276 C286 261 349 235 349 189 C349 141 307 124 276 124 C236 124 200 155 185 186 C180 196 176 204 174 209 C171 214 165 214 161 211 L69 132 C66 130 65 127 66 124 C97 31 196 -10 281 -10 C361 -10 419 17 456 72 C489 121 494 179 494 209 C494 312 395 369 319 405 L319 405 Z M272 774 C271 767 277 764 281 764 L319 764 C322 764 326 765 329 771 L382 847 C388 856 383 861 374 861 L297 861 C292 861 289 859 288 855 L272 774 Z " />
<glyph glyph-name="sacute" unicode="&#x15b;" horiz-adv-x="550" d="M272 774 C271 769 271 764 281 764 L317 764 C325 764 326 766 329 770 C329 770 329 770 329 770 C329 770 330 771 382 847 C389 856 382 861 375 861 L297 861 C291 861 290 859 289 855 L272 774 Z M319 405 C279 424 196 447 196 492 C196 529 245 537 266 537 C306 537 336 514 370 465 C374 460 376 460 380 462 L469 524 C472 526 474 531 472 535 C430 624 366 669 280 669 C171 669 56 606 56 481 C56 431 76 389 117 351 C156 317 202 294 247 276 C286 261 349 235 349 189 C349 141 307 124 276 124 C236 124 200 155 185 186 C180 196 176 204 174 209 C171 214 165 214 161 211 L69 132 C66 130 65 127 66 124 C97 31 196 -10 281 -10 C361 -10 419 17 456 72 C489 121 494 179 494 209 C494 312 395 369 319 405 L319 405 Z " />
<glyph glyph-name="Scircumflex" unicode="&#x15c;" horiz-adv-x="550" d="M319 405 C279 424 196 447 196 492 C196 529 245 537 266 537 C306 537 336 514 370 465 C374 460 376 460 380 462 L469 524 C472 526 474 531 472 535 C430 624 366 669 280 669 C171 669 56 606 56 481 C56 431 76 389 117 351 C156 317 202 294 247 276 C286 261 349 235 349 189 C349 141 307 124 276 124 C236 124 200 155 185 186 C180 196 176 204 174 209 C171 214 165 214 161 211 L69 132 C66 130 65 127 66 124 C97 31 196 -10 281 -10 C361 -10 419 17 456 72 C489 121 494 179 494 209 C494 312 395 369 319 405 L319 405 Z M134 750 L211 750 C214 750 216 751 217 753 L270 815 L306 755 C307 752 310 750 314 750 L394 750 C402 750 404 760 401 763 L335 860 C332 863 330 865 327 865 L221 865 C219 865 217 863 215 861 L127 765 C121 758 126 750 134 750 L134 750 Z " />
<glyph glyph-name="scircumflex" unicode="&#x15d;" horiz-adv-x="550" d="M319 405 C279 424 196 447 196 492 C196 529 245 537 266 537 C306 537 336 514 370 465 C374 460 376 460 380 462 L469 524 C472 526 474 531 472 535 C430 624 366 669 280 669 C171 669 56 606 56 481 C56 431 76 389 117 351 C156 317 202 294 247 276 C286 261 349 235 349 189 C349 141 307 124 276 124 C236 124 200 155 185 186 C180 196 176 204 174 209 C171 214 165 214 161 211 L69 132 C66 130 65 127 66 124 C97 31 196 -10 281 -10 C361 -10 419 17 456 72 C489 121 494 179 494 209 C494 312 395 369 319 405 L319 405 Z M134 750 L211 750 C214 750 216 751 217 753 L270 815 L306 755 C307 752 310 750 314 750 L394 750 C402 750 404 760 401 763 L335 860 C332 863 330 865 327 865 L221 865 C219 865 217 863 215 861 L127 765 C121 758 126 750 134 750 L134 750 Z " />
<glyph glyph-name="Scedilla" unicode="&#x15e;" horiz-adv-x="575" d="M334 405 C291 424 205 447 205 492 C205 529 256 537 279 537 C321 537 352 514 375 484 L389 466 C392 461 396 461 400 464 L494 525 C497 527 499 531 496 535 C451 625 385 669 294 669 C177 669 56 606 56 481 C56 431 77 389 121 351 C162 317 211 294 259 276 C300 261 366 235 366 189 C366 141 322 124 289 124 C247 124 209 155 192 186 L181 209 C179 214 174 215 169 211 L70 134 C66 131 66 127 67 124 C95 47 172 5 250 -6 L250 -39 C250 -73 252 -94 262 -106 C275 -118 291 -120 317 -120 C330 -120 337 -123 337 -131 C337 -143 307 -144 291 -144 L280 -144 C275 -144 270 -146 270 -153 L270 -225 C270 -228 274 -233 280 -233 L329 -233 C390 -233 427 -205 427 -136 L427 -119 C427 -90 426 -68 415 -53 L410 -48 C395 -33 370 -30 350 -30 L341 -30 L341 -6 C402 2 447 29 479 72 C514 121 519 179 519 209 C519 312 415 369 334 405 L334 405 Z " />
<glyph glyph-name="scedilla" unicode="&#x15f;" horiz-adv-x="575" d="M334 405 C291 424 205 447 205 492 C205 529 256 537 279 537 C321 537 352 514 375 484 L389 466 C392 461 396 461 400 464 L494 525 C497 527 499 531 496 535 C451 625 385 669 294 669 C177 669 56 606 56 481 C56 431 77 389 121 351 C162 317 211 294 259 276 C300 261 366 235 366 189 C366 141 322 124 289 124 C247 124 209 155 192 186 L181 209 C179 214 174 215 169 211 L70 134 C66 131 66 127 67 124 C95 47 172 5 250 -6 L250 -39 C250 -73 252 -94 262 -106 C275 -118 291 -120 317 -120 C330 -120 337 -123 337 -131 C337 -143 307 -144 291 -144 L280 -144 C275 -144 270 -146 270 -153 L270 -225 C270 -228 274 -233 280 -233 L329 -233 C390 -233 427 -205 427 -136 L427 -119 C427 -90 426 -68 415 -53 L410 -48 C395 -33 370 -30 350 -30 L341 -30 L341 -6 C402 2 447 29 479 72 C514 121 519 179 519 209 C519 312 415 369 334 405 L334 405 Z " />
<glyph glyph-name="Scaron" unicode="&#x160;" horiz-adv-x="550" d="M431 869 L351 869 C348 869 346 867 343 864 L299 804 L256 864 C253 867 251 869 247 869 L169 869 C162 869 159 859 163 854 L241 757 C243 755 244 754 247 754 L353 754 C357 754 358 755 361 757 L437 854 C442 860 437 869 431 869 L431 869 Z M319 405 C279 424 196 447 196 492 C196 529 245 537 266 537 C306 537 336 514 370 465 C374 460 376 460 380 462 L469 524 C472 526 474 531 472 535 C430 624 366 669 280 669 C171 669 56 606 56 481 C56 431 76 389 117 351 C156 317 202 294 247 276 C286 261 349 235 349 189 C349 141 307 124 276 124 C236 124 200 155 185 186 C180 196 176 204 174 209 C171 214 165 214 161 211 L69 132 C66 130 65 127 66 124 C97 31 196 -10 281 -10 C361 -10 419 17 456 72 C489 121 494 179 494 209 C494 312 395 369 319 405 L319 405 Z " />
<glyph glyph-name="scaron" unicode="&#x161;" horiz-adv-x="550" d="M431 869 L351 869 C348 869 346 867 343 864 L299 804 L256 864 C253 867 251 869 247 869 L169 869 C162 869 159 859 163 854 L241 757 C243 755 244 754 247 754 L353 754 C357 754 358 755 361 757 L437 854 C442 860 437 869 431 869 L431 869 Z M319 405 C279 424 196 447 196 492 C196 529 245 537 266 537 C306 537 336 514 370 465 C374 460 376 460 380 462 L469 524 C472 526 474 531 472 535 C430 624 366 669 280 669 C171 669 56 606 56 481 C56 431 76 389 117 351 C156 317 202 294 247 276 C286 261 349 235 349 189 C349 141 307 124 276 124 C236 124 200 155 185 186 C180 196 176 204 174 209 C171 214 165 214 161 211 L69 132 C66 130 65 127 66 124 C97 31 196 -10 281 -10 C361 -10 419 17 456 72 C489 121 494 179 494 209 C494 312 395 369 319 405 L319 405 Z " />
<glyph glyph-name="uni0162" unicode="&#x162;" horiz-adv-x="527" d="M55 535 L197 535 L197 9 C197 4 201 0 206 0 L321 0 C326 0 330 4 330 9 L330 535 L472 535 C477 535 481 539 481 544 L481 651 C481 656 477 660 472 660 L55 660 C50 660 46 656 46 651 L46 544 C46 539 50 535 55 535 L55 535 Z M265 -56 C216 -56 175 -94 175 -143 C175 -183 205 -217 239 -228 L207 -308 C205 -314 207 -321 216 -321 L284 -321 C287 -321 291 -318 292 -314 L349 -166 C351 -159 354 -149 354 -141 C354 -92 312 -56 265 -56 L265 -56 Z " />
<glyph glyph-name="uni0163" unicode="&#x163;" horiz-adv-x="527" d="M55 535 L197 535 L197 9 C197 4 201 0 206 0 L321 0 C326 0 330 4 330 9 L330 535 L472 535 C477 535 481 539 481 544 L481 651 C481 656 477 660 472 660 L55 660 C50 660 46 656 46 651 L46 544 C46 539 50 535 55 535 L55 535 Z M265 -56 C216 -56 175 -94 175 -143 C175 -183 205 -217 239 -228 L207 -308 C205 -314 207 -321 216 -321 L284 -321 C287 -321 291 -318 292 -314 L349 -166 C351 -159 354 -149 354 -141 C354 -92 312 -56 265 -56 L265 -56 Z " />
<glyph glyph-name="Tcaron" unicode="&#x164;" horiz-adv-x="527" d="M55 535 L197 535 L197 9 C197 4 201 0 206 0 L321 0 C326 0 330 4 330 9 L330 535 L472 535 C477 535 481 539 481 544 L481 651 C481 656 477 660 472 660 L55 660 C50 660 46 656 46 651 L46 544 C46 539 50 535 55 535 L55 535 Z M390 869 L310 869 C307 869 305 867 302 864 L258 804 L215 864 C212 867 210 869 206 869 L128 869 C121 869 118 859 122 854 L200 757 C202 755 203 754 206 754 L312 754 C316 754 317 755 320 757 L396 854 C401 860 396 869 390 869 L390 869 Z " />
<glyph glyph-name="tcaron" unicode="&#x165;" horiz-adv-x="527" d="M55 535 L197 535 L197 9 C197 4 201 0 206 0 L321 0 C326 0 330 4 330 9 L330 535 L472 535 C477 535 481 539 481 544 L481 651 C481 656 477 660 472 660 L55 660 C50 660 46 656 46 651 L46 544 C46 539 50 535 55 535 L55 535 Z M390 869 L310 869 C307 869 305 867 302 864 L258 804 L215 864 C212 867 210 869 206 869 L128 869 C121 869 118 859 122 854 L200 757 C202 755 203 754 206 754 L312 754 C316 754 317 755 320 757 L396 854 C401 860 396 869 390 869 L390 869 Z " />
<glyph glyph-name="Tbar" unicode="&#x166;" horiz-adv-x="527" d="M46 651 L46 544 C46 539 50 535 55 535 L197 535 L197 410 L100 410 C95 410 91 406 91 401 L91 312 C91 307 95 304 100 304 L197 304 L197 9 C197 4 201 0 206 0 L321 0 C326 0 330 4 330 9 L330 304 L429 304 C434 304 437 307 437 312 L437 401 C437 406 434 410 429 410 L330 410 L330 535 L472 535 C477 535 481 539 481 544 L481 651 C481 656 477 660 472 660 L55 660 C50 660 46 656 46 651 L46 651 Z " />
<glyph glyph-name="tbar" unicode="&#x167;" horiz-adv-x="527" d="M46 651 L46 544 C46 539 50 535 55 535 L197 535 L197 410 L100 410 C95 410 91 406 91 401 L91 312 C91 307 95 304 100 304 L197 304 L197 9 C197 4 201 0 206 0 L321 0 C326 0 330 4 330 9 L330 304 L429 304 C434 304 437 307 437 312 L437 401 C437 406 434 410 429 410 L330 410 L330 535 L472 535 C477 535 481 539 481 544 L481 651 C481 656 477 660 472 660 L55 660 C50 660 46 656 46 651 L46 651 Z " />
<glyph glyph-name="Utilde" unicode="&#x168;" horiz-adv-x="630" d="M412 231 C412 167 384 125 322 125 L310 125 C269 125 220 144 220 231 L220 651 C220 656 216 660 211 660 L96 660 C91 660 87 656 87 651 L87 199 C87 46 175 -10 316 -10 C465 -10 544 55 544 199 L544 651 C544 656 540 660 535 660 L421 660 C416 660 412 656 412 651 L412 231 L412 231 Z M372 879 C331 876 309 837 292 837 C274 837 269 856 269 861 C269 866 266 869 261 869 L196 869 C189 869 186 864 186 859 C186 807 216 752 276 752 C317 752 334 791 356 791 C368 791 378 781 378 770 C378 765 382 762 387 762 L453 762 C459 762 462 767 462 772 C462 824 423 879 372 879 L372 879 Z " />
<glyph glyph-name="utilde" unicode="&#x169;" horiz-adv-x="630" d="M412 231 C412 167 384 125 322 125 L310 125 C269 125 220 144 220 231 L220 651 C220 656 216 660 211 660 L96 660 C91 660 87 656 87 651 L87 199 C87 46 175 -10 316 -10 C465 -10 544 55 544 199 L544 651 C544 656 540 660 535 660 L421 660 C416 660 412 656 412 651 L412 231 L412 231 Z M372 879 C331 876 309 837 292 837 C274 837 269 856 269 861 C269 866 266 869 261 869 L196 869 C189 869 186 864 186 859 C186 807 216 752 276 752 C317 752 334 791 356 791 C368 791 378 781 378 770 C378 765 382 762 387 762 L453 762 C459 762 462 767 462 772 C462 824 423 879 372 879 L372 879 Z " />
<glyph glyph-name="Umacron" unicode="&#x16a;" horiz-adv-x="630" d="M412 231 C412 167 384 125 322 125 L310 125 C269 125 220 144 220 231 L220 651 C220 656 216 660 211 660 L96 660 C91 660 87 656 87 651 L87 199 C87 46 175 -10 316 -10 C465 -10 544 55 544 199 L544 651 C544 656 540 660 535 660 L421 660 C416 660 412 656 412 651 L412 231 L412 231 Z M203 850 C198 850 193 848 193 843 L193 755 C193 750 198 748 203 748 L443 748 C446 748 450 750 450 755 L450 843 C450 845 446 850 443 850 L203 850 Z " />
<glyph glyph-name="umacron" unicode="&#x16b;" horiz-adv-x="630" d="M412 231 C412 167 384 125 322 125 L310 125 C269 125 220 144 220 231 L220 651 C220 656 216 660 211 660 L96 660 C91 660 87 656 87 651 L87 199 C87 46 175 -10 316 -10 C465 -10 544 55 544 199 L544 651 C544 656 540 660 535 660 L421 660 C416 660 412 656 412 651 L412 231 L412 231 Z M203 850 C198 850 193 848 193 843 L193 755 C193 750 198 748 203 748 L443 748 C446 748 450 750 450 755 L450 843 C450 845 446 850 443 850 L203 850 Z " />
<glyph glyph-name="Ubreve" unicode="&#x16c;" horiz-adv-x="630" d="M412 231 C412 167 384 125 322 125 L310 125 C269 125 220 144 220 231 L220 651 C220 656 216 660 211 660 L96 660 C91 660 87 656 87 651 L87 199 C87 46 175 -10 316 -10 C465 -10 544 55 544 199 L544 651 C544 656 540 660 535 660 L421 660 C416 660 412 656 412 651 L412 231 L412 231 Z M345 889 C339 889 336 886 336 881 C336 867 326 858 315 858 C299 858 292 869 292 881 C292 887 289 889 284 889 L204 889 C199 889 195 887 195 879 C195 811 252 762 315 762 C382 762 434 813 434 879 C434 884 431 889 425 889 L345 889 Z " />
<glyph glyph-name="ubreve" unicode="&#x16d;" horiz-adv-x="630" d="M412 231 C412 167 384 125 322 125 L310 125 C269 125 220 144 220 231 L220 651 C220 656 216 660 211 660 L96 660 C91 660 87 656 87 651 L87 199 C87 46 175 -10 316 -10 C465 -10 544 55 544 199 L544 651 C544 656 540 660 535 660 L421 660 C416 660 412 656 412 651 L412 231 L412 231 Z M345 889 C339 889 336 886 336 881 C336 867 326 858 315 858 C299 858 292 869 292 881 C292 887 289 889 284 889 L204 889 C199 889 195 887 195 879 C195 811 252 762 315 762 C382 762 434 813 434 879 C434 884 431 889 425 889 L345 889 Z " />
<glyph glyph-name="Uring" unicode="&#x16e;" horiz-adv-x="630" d="M412 231 C412 167 384 125 322 125 L310 125 C269 125 220 144 220 231 L220 651 C220 656 216 660 211 660 L96 660 C91 660 87 656 87 651 L87 199 C87 46 175 -10 316 -10 C465 -10 544 55 544 199 L544 651 C544 656 540 660 535 660 L421 660 C416 660 412 656 412 651 L412 231 L412 231 Z M413 858 C409 923 373 951 313 951 C249 951 211 921 211 858 L211 832 C214 766 253 739 313 739 C376 739 413 771 413 832 L413 858 L413 858 Z M346 846 C346 831 342 809 316 809 L309 809 C288 811 279 827 279 846 C279 861 283 881 309 881 L316 881 C338 879 346 864 346 846 L346 846 Z " />
<glyph glyph-name="uring" unicode="&#x16f;" horiz-adv-x="630" d="M412 231 C412 167 384 125 322 125 L310 125 C269 125 220 144 220 231 L220 651 C220 656 216 660 211 660 L96 660 C91 660 87 656 87 651 L87 199 C87 46 175 -10 316 -10 C465 -10 544 55 544 199 L544 651 C544 656 540 660 535 660 L421 660 C416 660 412 656 412 651 L412 231 L412 231 Z M413 858 C409 923 373 951 313 951 C249 951 211 921 211 858 L211 832 C214 766 253 739 313 739 C376 739 413 771 413 832 L413 858 L413 858 Z M346 846 C346 831 342 809 316 809 L309 809 C288 811 279 827 279 846 C279 861 283 881 309 881 L316 881 C338 879 346 864 346 846 L346 846 Z " />
<glyph glyph-name="Uhungarumlaut" unicode="&#x170;" horiz-adv-x="630" d="M412 231 C412 167 384 125 322 125 L310 125 C269 125 220 144 220 231 L220 651 C220 656 216 660 211 660 L96 660 C91 660 87 656 87 651 L87 199 C87 46 175 -10 316 -10 C465 -10 544 55 544 199 L544 651 C544 656 540 660 535 660 L421 660 C416 660 412 656 412 651 L412 231 L412 231 Z M283 752 C288 752 291 752 292 756 L327 845 C330 852 327 857 320 857 L261 857 C256 857 253 855 252 848 L240 761 C238 753 245 752 250 752 L283 752 Z M345 857 C338 857 336 855 335 848 L323 761 C322 755 327 752 332 752 L367 752 C371 752 375 752 376 756 L410 845 C412 851 410 857 402 857 L345 857 Z " />
<glyph glyph-name="uhungarumlaut" unicode="&#x171;" horiz-adv-x="630" d="M412 231 C412 167 384 125 322 125 L310 125 C269 125 220 144 220 231 L220 651 C220 656 216 660 211 660 L96 660 C91 660 87 656 87 651 L87 199 C87 46 175 -10 316 -10 C465 -10 544 55 544 199 L544 651 C544 656 540 660 535 660 L421 660 C416 660 412 656 412 651 L412 231 L412 231 Z M283 752 C288 752 291 752 292 756 L327 845 C330 852 327 857 320 857 L261 857 C256 857 253 855 252 848 L240 761 C238 753 245 752 250 752 L283 752 Z M345 857 C338 857 336 855 335 848 L323 761 C322 755 327 752 332 752 L367 752 C371 752 375 752 376 756 L410 845 C412 851 410 857 402 857 L345 857 Z " />
<glyph glyph-name="Uogonek" unicode="&#x172;" horiz-adv-x="631" d="M414 230 C414 167 382 124 322 124 L311 124 C247 124 220 176 220 230 L220 651 C220 656 215 660 211 660 L95 660 C91 660 87 656 87 651 L87 197 C87 75 146 6 262 -8 L262 -36 L254 -36 C234 -36 209 -38 189 -59 C179 -73 176 -95 176 -124 L176 -143 C176 -210 215 -239 275 -239 L324 -239 C330 -239 332 -233 332 -230 L332 -156 C332 -153 329 -149 325 -149 L311 -149 C294 -149 266 -149 266 -135 C266 -126 274 -125 286 -125 C346 -125 354 -93 354 -45 L354 -9 C487 1 545 71 545 197 L545 651 C545 656 540 660 536 660 L421 660 C417 660 414 656 414 651 L414 230 L414 230 Z " />
<glyph glyph-name="uogonek" unicode="&#x173;" horiz-adv-x="631" d="M414 230 C414 167 382 124 322 124 L311 124 C247 124 220 176 220 230 L220 651 C220 656 215 660 211 660 L95 660 C91 660 87 656 87 651 L87 197 C87 75 146 6 262 -8 L262 -36 L254 -36 C234 -36 209 -38 189 -59 C179 -73 176 -95 176 -124 L176 -143 C176 -210 215 -239 275 -239 L324 -239 C330 -239 332 -233 332 -230 L332 -156 C332 -153 329 -149 325 -149 L311 -149 C294 -149 266 -149 266 -135 C266 -126 274 -125 286 -125 C346 -125 354 -93 354 -45 L354 -9 C487 1 545 71 545 197 L545 651 C545 656 540 660 536 660 L421 660 C417 660 414 656 414 651 L414 230 L414 230 Z " />
<glyph glyph-name="Wcircumflex" unicode="&#x174;" horiz-adv-x="874" d="M804 660 L689 660 C685 660 682 657 681 654 L571 246 L479 654 C477 659 475 660 471 660 L347 660 C342 660 337 655 339 649 L385 481 L302 230 L191 654 C190 657 187 660 184 660 L69 660 C62 660 59 655 60 650 L231 6 C232 2 235 0 239 0 L345 0 C349 0 351 2 352 5 L444 259 L512 6 C514 2 517 0 521 0 L631 0 C635 0 639 2 640 6 L812 649 C814 655 810 660 804 660 L804 660 Z M311 750 L388 750 C391 750 393 751 394 753 L447 815 L483 755 C484 752 487 750 491 750 L571 750 C579 750 581 760 578 763 L512 860 C509 863 507 865 504 865 L398 865 C396 865 394 863 392 861 L304 765 C298 758 303 750 311 750 L311 750 Z " />
<glyph glyph-name="wcircumflex" unicode="&#x175;" horiz-adv-x="874" d="M804 660 L689 660 C685 660 682 657 681 654 L571 246 L479 654 C477 659 475 660 471 660 L347 660 C342 660 337 655 339 649 L385 481 L302 230 L191 654 C190 657 187 660 184 660 L69 660 C62 660 59 655 60 650 L231 6 C232 2 235 0 239 0 L345 0 C349 0 351 2 352 5 L444 259 L512 6 C514 2 517 0 521 0 L631 0 C635 0 639 2 640 6 L812 649 C814 655 810 660 804 660 L804 660 Z M311 750 L388 750 C391 750 393 751 394 753 L447 815 L483 755 C484 752 487 750 491 750 L571 750 C579 750 581 760 578 763 L512 860 C509 863 507 865 504 865 L398 865 C396 865 394 863 392 861 L304 765 C298 758 303 750 311 750 L311 750 Z " />
<glyph glyph-name="Ycircumflex" unicode="&#x176;" horiz-adv-x="511" d="M256 487 L169 655 C166 660 165 660 161 660 L49 660 C42 660 39 654 41 647 L190 312 L190 9 C190 4 194 0 197 0 L315 0 C320 0 324 4 324 9 L324 312 L469 649 C471 654 467 660 461 660 L349 660 C345 660 344 660 341 655 L256 487 L256 487 Z M134 750 L211 750 C214 750 216 751 217 753 L270 815 L306 755 C307 752 310 750 314 750 L394 750 C402 750 404 760 401 763 L335 860 C332 863 330 865 327 865 L221 865 C219 865 217 863 215 861 L127 765 C121 758 126 750 134 750 L134 750 Z " />
<glyph glyph-name="ycircumflex" unicode="&#x177;" horiz-adv-x="511" d="M256 487 L169 655 C166 660 165 660 161 660 L49 660 C42 660 39 654 41 647 L190 312 L190 9 C190 4 194 0 197 0 L315 0 C320 0 324 4 324 9 L324 312 L469 649 C471 654 467 660 461 660 L349 660 C345 660 344 660 341 655 L256 487 L256 487 Z M134 750 L211 750 C214 750 216 751 217 753 L270 815 L306 755 C307 752 310 750 314 750 L394 750 C402 750 404 760 401 763 L335 860 C332 863 330 865 327 865 L221 865 C219 865 217 863 215 861 L127 765 C121 758 126 750 134 750 L134 750 Z " />
<glyph glyph-name="Ydieresis" unicode="&#x178;" horiz-adv-x="511" d="M256 487 L169 655 C166 660 165 660 161 660 L49 660 C42 660 39 654 41 647 L190 312 L190 9 C190 4 194 0 197 0 L315 0 C320 0 324 4 324 9 L324 312 L469 649 C471 654 467 660 461 660 L349 660 C345 660 344 660 341 655 L256 487 L256 487 Z M155 811 C155 785 177 761 205 761 C231 761 252 785 252 811 C252 837 231 859 205 859 C177 859 155 837 155 811 L155 811 Z M317 761 C345 761 366 785 366 811 C366 837 345 859 317 859 C291 859 270 837 270 811 C270 785 291 761 317 761 L317 761 Z " />
<glyph glyph-name="Zacute" unicode="&#x179;" horiz-adv-x="590" d="M255 125 L496 536 C497 537 497 539 497 540 L497 652 C497 654 496 660 490 660 L101 660 C96 660 92 656 92 651 L92 544 C92 539 96 535 101 535 L337 535 L96 124 C95 121 95 120 95 120 L95 9 C95 2 100 0 104 0 L490 0 C495 0 499 4 499 9 L499 116 C499 121 495 125 490 125 L255 125 L255 125 Z M272 774 C271 767 277 764 281 764 L319 764 C322 764 326 765 329 771 L382 847 C388 856 383 861 374 861 L297 861 C292 861 289 859 288 855 L272 774 Z " />
<glyph glyph-name="zacute" unicode="&#x17a;" horiz-adv-x="590" d="M255 125 L496 536 C497 537 497 539 497 540 L497 652 C497 654 496 660 490 660 L101 660 C96 660 92 656 92 651 L92 544 C92 539 96 535 101 535 L337 535 L96 124 C95 121 95 120 95 120 L95 9 C95 2 100 0 104 0 L490 0 C495 0 499 4 499 9 L499 116 C499 121 495 125 490 125 L255 125 L255 125 Z M272 774 C271 767 277 764 281 764 L319 764 C322 764 326 765 329 771 L382 847 C388 856 383 861 374 861 L297 861 C292 861 289 859 288 855 L272 774 Z " />
<glyph glyph-name="Zdotaccent" unicode="&#x17b;" horiz-adv-x="590" d="M255 125 L496 536 C497 537 497 539 497 540 L497 652 C497 654 496 660 490 660 L101 660 C96 660 92 656 92 651 L92 544 C92 539 96 535 101 535 L337 535 L96 124 C95 121 95 120 95 120 L95 9 C95 2 100 0 104 0 L490 0 C495 0 499 4 499 9 L499 116 C499 121 495 125 490 125 L255 125 L255 125 Z M291 858 C264 858 241 836 241 810 C241 784 264 760 291 760 C318 760 339 784 339 810 C339 836 318 858 291 858 L291 858 Z " />
<glyph glyph-name="zdotaccent" unicode="&#x17c;" horiz-adv-x="590" d="M255 125 L496 536 C497 537 497 539 497 540 L497 652 C497 654 496 660 490 660 L101 660 C96 660 92 656 92 651 L92 544 C92 539 96 535 101 535 L337 535 L96 124 C95 121 95 120 95 120 L95 9 C95 2 100 0 104 0 L490 0 C495 0 499 4 499 9 L499 116 C499 121 495 125 490 125 L255 125 L255 125 Z M291 858 C264 858 241 836 241 810 C241 784 264 760 291 760 C318 760 339 784 339 810 C339 836 318 858 291 858 L291 858 Z " />
<glyph glyph-name="Zcaron" unicode="&#x17d;" horiz-adv-x="590" d="M255 125 L496 536 C497 537 497 539 497 540 L497 652 C497 654 496 660 490 660 L101 660 C96 660 92 656 92 651 L92 544 C92 539 96 535 101 535 L337 535 L96 124 C95 121 95 120 95 120 L95 9 C95 2 100 0 104 0 L490 0 C495 0 499 4 499 9 L499 116 C499 121 495 125 490 125 L255 125 L255 125 Z M434 869 L354 869 C351 869 349 867 346 864 L302 804 L259 864 C256 867 254 869 250 869 L172 869 C165 869 162 859 166 854 L244 757 C246 755 247 754 250 754 L356 754 C360 754 361 755 364 757 L440 854 C445 860 440 869 434 869 L434 869 Z " />
<glyph glyph-name="zcaron" unicode="&#x17e;" horiz-adv-x="590" d="M255 125 L496 536 C497 537 497 539 497 540 L497 652 C497 654 496 660 490 660 L101 660 C96 660 92 656 92 651 L92 544 C92 539 96 535 101 535 L337 535 L96 124 C95 121 95 120 95 120 L95 9 C95 2 100 0 104 0 L490 0 C495 0 499 4 499 9 L499 116 C499 121 495 125 490 125 L255 125 L255 125 Z M434 869 L354 869 C351 869 349 867 346 864 L302 804 L259 864 C256 867 254 869 250 869 L172 869 C165 869 162 859 166 854 L244 757 C246 755 247 754 250 754 L356 754 C360 754 361 755 364 757 L440 854 C445 860 440 869 434 869 L434 869 Z " />
<glyph glyph-name="uni0218" unicode="&#x218;" horiz-adv-x="550" d="M319 405 C279 424 196 447 196 492 C196 529 245 537 266 537 C306 537 336 514 370 465 C374 460 376 460 380 462 L469 524 C472 526 474 531 472 535 C430 624 366 669 280 669 C171 669 56 606 56 481 C56 431 76 389 117 351 C156 317 202 294 247 276 C286 261 349 235 349 189 C349 141 307 124 276 124 C236 124 200 155 185 186 C180 196 176 204 174 209 C171 214 165 214 161 211 L69 132 C66 130 65 127 66 124 C97 31 196 -10 281 -10 C361 -10 419 17 456 72 C489 121 494 179 494 209 C494 312 395 369 319 405 L319 405 Z M275 -69 C226 -69 185 -107 185 -156 C185 -196 215 -230 249 -241 L217 -321 C215 -327 217 -334 226 -334 L294 -334 C297 -334 301 -331 302 -327 L359 -179 C361 -172 364 -162 364 -154 C364 -105 322 -69 275 -69 L275 -69 Z " />
<glyph glyph-name="uni0219" unicode="&#x219;" horiz-adv-x="550" d="M319 405 C279 424 196 447 196 492 C196 529 245 537 266 537 C306 537 336 514 370 465 C374 460 376 460 380 462 L469 524 C472 526 474 531 472 535 C430 624 366 669 280 669 C171 669 56 606 56 481 C56 431 76 389 117 351 C156 317 202 294 247 276 C286 261 349 235 349 189 C349 141 307 124 276 124 C236 124 200 155 185 186 C180 196 176 204 174 209 C171 214 165 214 161 211 L69 132 C66 130 65 127 66 124 C97 31 196 -10 281 -10 C361 -10 419 17 456 72 C489 121 494 179 494 209 C494 312 395 369 319 405 L319 405 Z M275 -69 C226 -69 185 -107 185 -156 C185 -196 215 -230 249 -241 L217 -321 C215 -327 217 -334 226 -334 L294 -334 C297 -334 301 -331 302 -327 L359 -179 C361 -172 364 -162 364 -154 C364 -105 322 -69 275 -69 L275 -69 Z " />
<glyph glyph-name="uni021A" unicode="&#x21a;" horiz-adv-x="585" d="M47 535 L189 535 L189 9 C189 4 193 0 198 0 L313 0 C318 0 322 4 322 9 L322 535 L464 535 C469 535 473 539 473 544 L473 651 C473 656 469 660 464 660 L47 660 C42 660 38 656 38 651 L38 544 C38 539 42 535 47 535 L47 535 Z M257 -56 C208 -56 167 -94 167 -143 C167 -183 197 -217 231 -228 L199 -308 C197 -314 199 -321 208 -321 L276 -321 C279 -321 283 -318 284 -314 L341 -166 C343 -159 346 -149 346 -141 C346 -92 304 -56 257 -56 L257 -56 Z " />
<glyph glyph-name="uni021B" unicode="&#x21b;" horiz-adv-x="585" d="M47 535 L189 535 L189 9 C189 4 193 0 198 0 L313 0 C318 0 322 4 322 9 L322 535 L464 535 C469 535 473 539 473 544 L473 651 C473 656 469 660 464 660 L47 660 C42 660 38 656 38 651 L38 544 C38 539 42 535 47 535 L47 535 Z M257 -56 C208 -56 167 -94 167 -143 C167 -183 197 -217 231 -228 L199 -308 C197 -314 199 -321 208 -321 L276 -321 C279 -321 283 -318 284 -314 L341 -166 C343 -159 346 -149 346 -141 C346 -92 304 -56 257 -56 L257 -56 Z " />
<glyph glyph-name="uni0237" unicode="&#x237;" horiz-adv-x="572" d="M294 660 C289 660 285 656 285 651 L285 236 C285 194 276 125 226 125 C174 125 150 184 136 224 C134 230 128 230 124 227 L19 154 C15 151 14 147 16 142 C35 101 64 64 94 36 C130 7 171 -9 213 -9 L238 -9 C340 -9 418 75 418 172 L418 651 C418 656 414 660 409 660 L294 660 Z " />
<glyph glyph-name="circumflex" unicode="&#x2c6;" horiz-adv-x="430" d="M99 574 L176 574 C179 574 181 575 182 577 L235 639 L271 579 C272 576 275 574 279 574 L359 574 C367 574 369 584 366 587 L300 684 C297 687 295 689 292 689 L186 689 C184 689 182 687 180 685 L92 589 C86 582 91 574 99 574 L99 574 Z " />
<glyph glyph-name="caron" unicode="&#x2c7;" horiz-adv-x="430" d="M359 689 L279 689 C276 689 274 687 271 684 L227 624 L184 684 C181 687 179 689 175 689 L97 689 C90 689 87 679 91 674 L169 577 C171 575 172 574 175 574 L281 574 C285 574 286 575 289 577 L365 674 C370 680 365 689 359 689 L359 689 Z " />
<glyph glyph-name="uni02C9" unicode="&#x2c9;" horiz-adv-x="409" d="M98 690 C93 690 88 688 88 683 L88 595 C88 590 93 588 98 588 L338 588 C341 588 345 590 345 595 L345 683 C345 685 341 690 338 690 L98 690 Z " />
<glyph glyph-name="breve" unicode="&#x2d8;" horiz-adv-x="391" d="M240 692 C234 692 231 689 231 684 C231 670 221 661 210 661 C194 661 187 672 187 684 C187 690 184 692 179 692 L99 692 C94 692 90 690 90 682 C90 614 147 565 210 565 C277 565 329 616 329 682 C329 687 326 692 320 692 L240 692 Z " />
<glyph glyph-name="dotaccent" unicode="&#x2d9;" horiz-adv-x="329" d="M167 729 C140 729 117 707 117 681 C117 655 140 631 167 631 C194 631 215 655 215 681 C215 707 194 729 167 729 L167 729 Z " />
<glyph glyph-name="ring" unicode="&#x2da;" horiz-adv-x="352" d="M291 631 C287 696 251 724 191 724 C127 724 89 694 89 631 L89 605 C92 539 131 512 191 512 C254 512 291 544 291 605 L291 631 L291 631 Z M224 619 C224 604 220 582 194 582 L187 582 C166 584 157 600 157 619 C157 634 161 654 187 654 L194 654 C216 652 224 637 224 619 L224 619 Z " />
<glyph glyph-name="ogonek" unicode="&#x2db;" horiz-adv-x="329" d="M195 -105 L200 -105 C260 -105 266 -74 266 -25 L266 21 C266 26 261 30 257 30 L184 30 C180 30 176 26 176 21 L176 -15 L166 -15 C104 -15 89 -53 89 -104 L89 -123 C89 -188 127 -219 189 -219 L241 -219 C247 -219 250 -214 250 -209 L250 -136 C250 -129 244 -129 239 -129 C235 -129 231 -129 227 -129 C217 -129 205 -129 195 -129 C185 -129 180 -125 180 -118 C180 -110 184 -105 195 -105 L195 -105 Z " />
<glyph glyph-name="tilde" unicode="&#x2dc;" horiz-adv-x="430" d="M275 699 C234 696 212 657 195 657 C177 657 172 676 172 681 C172 686 169 689 164 689 L99 689 C92 689 89 684 89 679 C89 627 119 572 179 572 C220 572 237 611 259 611 C271 611 281 601 281 590 C281 585 285 582 290 582 L356 582 C362 582 365 587 365 592 C365 644 326 699 275 699 L275 699 Z " />
<glyph glyph-name="hungarumlaut" unicode="&#x2dd;" horiz-adv-x="322" d="M132 581 C137 581 140 581 141 585 L176 674 C179 681 176 686 169 686 L110 686 C105 686 102 684 101 677 L89 590 C87 582 94 581 99 581 L132 581 Z M194 686 C187 686 185 684 184 677 L172 590 C171 584 176 581 181 581 L216 581 C220 581 224 581 225 585 L259 674 C261 680 259 686 251 686 L194 686 Z " />
<glyph glyph-name="Wgrave" unicode="&#x1e80;" horiz-adv-x="874" d="M804 660 L689 660 C685 660 682 657 681 654 L571 246 L479 654 C477 659 475 660 471 660 L347 660 C342 660 337 655 339 649 L385 481 L302 230 L191 654 C190 657 187 660 184 660 L69 660 C62 660 59 655 60 650 L231 6 C232 2 235 0 239 0 L345 0 C349 0 351 2 352 5 L444 259 L512 6 C514 2 517 0 521 0 L631 0 C635 0 639 2 640 6 L812 649 C814 655 810 660 804 660 L804 660 Z M397 781 C399 778 401 776 405 776 L436 776 C442 776 446 779 445 786 L432 869 C431 874 429 878 424 878 L359 878 C352 878 349 871 351 866 L397 781 L397 781 Z " />
<glyph glyph-name="wgrave" unicode="&#x1e81;" horiz-adv-x="874" d="M804 660 L689 660 C685 660 682 657 681 654 L571 246 L479 654 C477 659 475 660 471 660 L347 660 C342 660 337 655 339 649 L385 481 L302 230 L191 654 C190 657 187 660 184 660 L69 660 C62 660 59 655 60 650 L231 6 C232 2 235 0 239 0 L345 0 C349 0 351 2 352 5 L444 259 L512 6 C514 2 517 0 521 0 L631 0 C635 0 639 2 640 6 L812 649 C814 655 810 660 804 660 L804 660 Z M397 781 C399 778 401 776 405 776 L436 776 C442 776 446 779 445 786 L432 869 C431 874 429 878 424 878 L359 878 C352 878 349 871 351 866 L397 781 L397 781 Z " />
<glyph glyph-name="Wacute" unicode="&#x1e82;" horiz-adv-x="874" d="M804 660 L689 660 C685 660 682 657 681 654 L571 246 L479 654 C477 659 475 660 471 660 L347 660 C342 660 337 655 339 649 L385 481 L302 230 L191 654 C190 657 187 660 184 660 L69 660 C62 660 59 655 60 650 L231 6 C232 2 235 0 239 0 L345 0 C349 0 351 2 352 5 L444 259 L512 6 C514 2 517 0 521 0 L631 0 C635 0 639 2 640 6 L812 649 C814 655 810 660 804 660 L804 660 Z M396 786 C395 779 401 776 405 776 L443 776 C446 776 450 777 453 783 L506 859 C512 868 507 873 498 873 L421 873 C416 873 413 871 412 867 L396 786 Z " />
<glyph glyph-name="wacute" unicode="&#x1e83;" horiz-adv-x="874" d="M804 660 L689 660 C685 660 682 657 681 654 L571 246 L479 654 C477 659 475 660 471 660 L347 660 C342 660 337 655 339 649 L385 481 L302 230 L191 654 C190 657 187 660 184 660 L69 660 C62 660 59 655 60 650 L231 6 C232 2 235 0 239 0 L345 0 C349 0 351 2 352 5 L444 259 L512 6 C514 2 517 0 521 0 L631 0 C635 0 639 2 640 6 L812 649 C814 655 810 660 804 660 L804 660 Z M396 786 C395 779 401 776 405 776 L443 776 C446 776 450 777 453 783 L506 859 C512 868 507 873 498 873 L421 873 C416 873 413 871 412 867 L396 786 Z " />
<glyph glyph-name="Wdieresis" unicode="&#x1e84;" horiz-adv-x="874" d="M804 660 L689 660 C685 660 682 657 681 654 L571 246 L479 654 C477 659 475 660 471 660 L347 660 C342 660 337 655 339 649 L385 481 L302 230 L191 654 C190 657 187 660 184 660 L69 660 C62 660 59 655 60 650 L231 6 C232 2 235 0 239 0 L345 0 C349 0 351 2 352 5 L444 259 L512 6 C514 2 517 0 521 0 L631 0 C635 0 639 2 640 6 L812 649 C814 655 810 660 804 660 L804 660 Z M328 840 C328 814 350 790 378 790 C404 790 425 814 425 840 C425 866 404 888 378 888 C350 888 328 866 328 840 L328 840 Z M490 790 C518 790 539 814 539 840 C539 866 518 888 490 888 C464 888 443 866 443 840 C443 814 464 790 490 790 L490 790 Z " />
<glyph glyph-name="wdieresis" unicode="&#x1e85;" horiz-adv-x="874" d="M804 660 L689 660 C685 660 682 657 681 654 L571 246 L479 654 C477 659 475 660 471 660 L347 660 C342 660 337 655 339 649 L385 481 L302 230 L191 654 C190 657 187 660 184 660 L69 660 C62 660 59 655 60 650 L231 6 C232 2 235 0 239 0 L345 0 C349 0 351 2 352 5 L444 259 L512 6 C514 2 517 0 521 0 L631 0 C635 0 639 2 640 6 L812 649 C814 655 810 660 804 660 L804 660 Z M328 840 C328 814 350 790 378 790 C404 790 425 814 425 840 C425 866 404 888 378 888 C350 888 328 866 328 840 L328 840 Z M490 790 C518 790 539 814 539 840 C539 866 518 888 490 888 C464 888 443 866 443 840 C443 814 464 790 490 790 L490 790 Z " />
<glyph glyph-name="endash" unicode="&#x2013;" horiz-adv-x="497" d="M426 422 L97 422 C94 422 89 420 89 415 L89 327 C89 322 94 320 97 320 L426 320 C430 320 435 324 435 327 L435 415 C435 420 431 422 426 422 L426 422 Z " />
<glyph glyph-name="emdash" unicode="&#x2014;" horiz-adv-x="649" d="M586 328 L586 414 C586 419 582 423 577 423 L99 423 C94 423 89 418 89 414 L89 328 C89 322 94 319 99 319 L577 319 C581 319 586 322 586 328 L586 328 Z " />
<glyph glyph-name="quoteleft" unicode="&#x2018;" horiz-adv-x="227" d="M99 696 C92 696 87 691 89 685 L101 599 C102 592 105 590 110 590 L146 590 C151 590 152 592 154 599 L166 684 C167 692 162 696 157 696 L99 696 Z " />
<glyph glyph-name="quoteright" unicode="&#x2019;" horiz-adv-x="227" d="M99 696 C92 696 87 691 89 685 L101 599 C102 592 105 590 110 590 L146 590 C151 590 152 592 154 599 L166 684 C167 692 162 696 157 696 L99 696 Z " />
<glyph glyph-name="quotesinglbase" unicode="&#x201a;" horiz-adv-x="329" d="M140 167 C91 167 50 129 50 80 C50 40 80 6 114 -5 L82 -85 C80 -91 82 -98 91 -98 L159 -98 C162 -98 166 -95 167 -91 L224 57 C226 64 229 74 229 82 C229 131 187 167 140 167 L140 167 Z " />
<glyph glyph-name="quotedblleft" unicode="&#x201c;" horiz-adv-x="311" d="M99 686 C91 686 87 682 89 676 L101 587 C102 582 105 581 110 581 L146 581 C151 581 154 585 154 587 L166 676 C167 681 164 686 157 686 L99 686 Z M249 676 C250 681 246 686 240 686 L181 686 C176 686 171 682 172 676 L184 587 C185 582 189 581 194 581 L227 581 C234 581 236 582 237 587 L249 676 Z " />
<glyph glyph-name="quotedblright" unicode="&#x201d;" horiz-adv-x="311" d="M99 686 C91 686 87 682 89 676 L101 587 C102 582 105 581 110 581 L146 581 C151 581 154 585 154 587 L166 676 C167 681 164 686 157 686 L99 686 Z M249 676 C250 681 246 686 240 686 L181 686 C176 686 171 682 172 676 L184 587 C185 582 189 581 194 581 L227 581 C234 581 236 582 237 587 L249 676 Z " />
<glyph glyph-name="quotedblbase" unicode="&#x201e;" horiz-adv-x="311" d="M99 133 C91 133 87 129 89 123 L101 34 C102 29 105 28 110 28 L146 28 C151 28 154 32 154 34 L166 123 C167 128 164 133 157 133 L99 133 Z M249 123 C250 128 246 133 240 133 L181 133 C176 133 171 129 172 123 L184 34 C185 29 189 28 194 28 L227 28 C234 28 236 29 237 34 L249 123 Z " />
<glyph glyph-name="bullet" unicode="&#x2022;" horiz-adv-x="329" d="M146 257 C195 257 236 297 236 346 C236 395 195 433 146 433 C99 433 59 395 59 346 C59 297 99 257 146 257 L146 257 Z " />
<glyph glyph-name="ellipsis" unicode="&#x2026;" horiz-adv-x="766" d="M146 -9 C195 -9 236 31 236 80 C236 129 195 167 146 167 C99 167 59 129 59 80 C59 31 99 -9 146 -9 L146 -9 Z M367 -9 C416 -9 457 31 457 80 C457 129 416 167 367 167 C320 167 280 129 280 80 C280 31 320 -9 367 -9 L367 -9 Z M583 -9 C632 -9 673 31 673 80 C673 129 632 167 583 167 C536 167 496 129 496 80 C496 31 536 -9 583 -9 L583 -9 Z " />
<glyph glyph-name="guilsinglleft" unicode="&#x2039;" horiz-adv-x="420" d="M95 240 L344 121 C350 117 357 122 357 130 L357 245 C357 249 355 250 352 251 L197 316 L354 406 C356 407 357 411 357 414 L357 529 C357 536 349 539 344 535 L94 377 C91 376 89 372 89 369 L89 249 C89 245 91 241 95 240 L95 240 Z " />
<glyph glyph-name="guilsinglright" unicode="&#x203a;" horiz-adv-x="420" d="M356 249 L356 369 C356 372 356 376 351 379 L102 535 C96 539 89 532 89 529 L89 414 C89 411 90 409 94 406 L249 316 L95 251 C91 250 89 249 89 245 L89 130 C89 121 96 119 101 121 L352 240 C355 241 356 245 356 249 L356 249 Z " />
<glyph glyph-name="fraction" unicode="&#x2044;" horiz-adv-x="529" d="M430 831 C432 837 429 844 422 844 L307 844 C305 844 302 844 300 837 L55 177 C52 171 56 166 61 166 L177 166 C180 166 185 167 186 171 L430 831 Z " />
<glyph glyph-name="Euro" unicode="&#x20ac;" horiz-adv-x="661" d="M319 670 C177 670 87 615 87 462 L87 199 C87 54 171 -10 319 -10 C364 -10 399 -6 430 4 C460 11 482 25 501 41 C532 71 546 114 546 180 L546 244 C546 249 542 252 536 252 L422 252 C417 252 414 249 414 245 L414 215 C414 157 389 126 324 126 L310 126 C251 126 221 170 221 231 L221 282 L355 282 C359 282 364 286 364 291 L364 400 C364 404 360 407 355 407 L221 407 L221 430 C221 487 246 536 310 536 L324 536 C365 536 402 525 412 480 C414 474 414 465 414 460 C415 455 419 451 422 451 L536 451 C541 451 546 456 546 461 L546 480 C546 625 459 670 319 670 L319 670 Z " />
<glyph glyph-name="trademark" unicode="&#x2122;" horiz-adv-x="587" d="M19 692 L90 692 L90 429 C90 427 92 425 95 425 L152 425 C155 425 157 427 157 429 L157 692 L228 692 C230 692 232 694 232 697 L232 750 C232 753 230 755 228 755 L19 755 C17 755 15 753 15 750 L15 697 C15 694 17 692 19 692 L19 692 Z M560 755 L492 755 C490 755 489 753 489 752 L422 549 L362 752 C361 753 359 755 357 755 L287 755 C285 755 284 753 284 750 L284 429 C284 427 285 425 287 425 L343 425 C345 425 347 427 347 429 L347 618 L399 428 C399 426 401 425 403 425 L442 425 C444 425 445 426 446 428 L501 614 L501 429 C501 427 504 425 505 425 L560 425 C562 425 564 427 564 429 L564 750 C564 753 562 755 560 755 L560 755 Z " />
<glyph glyph-name="minus" unicode="&#x2212;" horiz-adv-x="409" d="M99 396 C94 396 89 394 89 389 L89 301 C89 296 94 294 99 294 L339 294 C342 294 346 296 346 301 L346 389 C346 391 342 396 339 396 L99 396 Z " />
<glyph glyph-name="uni2215" unicode="&#x2215;" horiz-adv-x="529" d="M465 651 C467 657 464 664 457 664 L342 664 C340 664 337 664 335 657 L90 -3 C87 -9 91 -14 96 -14 L212 -14 C215 -14 220 -13 221 -9 L465 651 Z " />
<glyph glyph-name="uni2219" unicode="&#x2219;" horiz-adv-x="329" d="M146 257 C195 257 236 297 236 346 C236 395 195 433 146 433 C99 433 59 395 59 346 C59 297 99 257 146 257 L146 257 Z " />
<glyph glyph-name="lessequal" unicode="&#x2264;" horiz-adv-x="497" d="M371 225 C377 221 385 227 385 232 L385 347 C385 350 381 356 379 356 L224 420 L380 510 C382 510 385 514 385 517 L385 631 C385 637 376 642 370 639 L120 481 C117 480 116 476 116 474 L116 351 C116 347 117 345 121 344 L371 225 Z M97 90 L426 90 C430 90 435 94 435 99 L435 185 C435 190 430 194 426 194 L97 194 C94 194 89 190 89 185 L89 99 C89 94 94 90 97 90 L97 90 Z " />
<glyph glyph-name="greaterequal" unicode="&#x2265;" horiz-adv-x="497" d="M405 344 C409 345 410 347 410 351 L410 474 C410 476 409 480 406 481 L156 639 C150 642 141 637 141 631 L141 517 C141 514 144 510 146 510 L302 420 L147 356 C145 356 141 350 141 347 L141 232 C141 227 149 221 155 225 L405 344 Z M426 90 C430 90 435 94 435 99 L435 185 C435 190 430 194 426 194 L97 194 C94 194 89 190 89 185 L89 99 C89 94 94 90 97 90 L426 90 Z " />
</font>
</svg>
